<svg width="392" height="72" viewBox="0 0 392 72" fill="none" xmlns="http://www.w3.org/2000/svg">
<line x1="50" y1="17.5" x2="342" y2="17.5" stroke="#4B5768"/>
<rect width="112" height="35" transform="translate(140)" fill="white"/>
<path d="M152.2 23.21C151.449 23.21 150.8 23.0397 150.254 22.699C149.713 22.3583 149.295 21.887 149.001 21.285C148.707 20.683 148.56 19.9923 148.56 19.213C148.56 18.4197 148.709 17.7243 149.008 17.127C149.307 16.5297 149.729 16.0653 150.275 15.734C150.821 15.398 151.463 15.23 152.2 15.23C152.956 15.23 153.607 15.4003 154.153 15.741C154.699 16.077 155.117 16.546 155.406 17.148C155.7 17.7453 155.847 18.4337 155.847 19.213C155.847 20.0017 155.7 20.697 155.406 21.299C155.112 21.8963 154.692 22.3653 154.146 22.706C153.6 23.042 152.951 23.21 152.2 23.21ZM152.2 22.027C152.984 22.027 153.567 21.7657 153.95 21.243C154.333 20.7203 154.524 20.0437 154.524 19.213C154.524 18.359 154.33 17.68 153.943 17.176C153.556 16.6673 152.975 16.413 152.2 16.413C151.673 16.413 151.239 16.532 150.898 16.77C150.557 17.008 150.303 17.337 150.135 17.757C149.967 18.177 149.883 18.6623 149.883 19.213C149.883 20.0623 150.079 20.7437 150.471 21.257C150.863 21.7703 151.439 22.027 152.2 22.027ZM157.388 23V15.44H158.501V17.267L158.319 17.029C158.408 16.7957 158.522 16.581 158.662 16.385C158.807 16.189 158.968 16.028 159.145 15.902C159.341 15.7433 159.563 15.622 159.81 15.538C160.058 15.454 160.31 15.405 160.566 15.391C160.823 15.3723 161.063 15.3887 161.287 15.44V16.609C161.026 16.539 160.739 16.5203 160.426 16.553C160.114 16.5857 159.824 16.7 159.558 16.896C159.316 17.0687 159.127 17.2787 158.991 17.526C158.861 17.7733 158.77 18.0417 158.718 18.331C158.667 18.6157 158.641 18.9073 158.641 19.206V23H157.388ZM168.27 23.203C167.369 23.203 166.629 23.007 166.051 22.615C165.477 22.2183 165.124 21.6653 164.994 20.956L166.268 20.753C166.37 21.1637 166.606 21.4903 166.975 21.733C167.343 21.971 167.801 22.09 168.347 22.09C168.865 22.09 169.271 21.9827 169.565 21.768C169.859 21.5533 170.006 21.2617 170.006 20.893C170.006 20.6783 169.957 20.5057 169.859 20.375C169.761 20.2397 169.558 20.1137 169.25 19.997C168.946 19.8803 168.487 19.7403 167.871 19.577C167.203 19.3997 166.678 19.2153 166.296 19.024C165.913 18.8327 165.64 18.611 165.477 18.359C165.313 18.107 165.232 17.8013 165.232 17.442C165.232 16.9987 165.353 16.6113 165.596 16.28C165.838 15.944 166.177 15.685 166.611 15.503C167.049 15.321 167.558 15.23 168.137 15.23C168.711 15.23 169.224 15.321 169.677 15.503C170.129 15.685 170.493 15.944 170.769 16.28C171.049 16.6113 171.214 16.9987 171.266 17.442L169.992 17.673C169.931 17.267 169.735 16.9473 169.404 16.714C169.077 16.4807 168.655 16.357 168.137 16.343C167.647 16.3243 167.248 16.4107 166.94 16.602C166.636 16.7933 166.485 17.0523 166.485 17.379C166.485 17.561 166.541 17.7173 166.653 17.848C166.769 17.9787 166.982 18.1023 167.29 18.219C167.602 18.3357 168.055 18.4687 168.648 18.618C169.315 18.786 169.84 18.9703 170.223 19.171C170.61 19.367 170.885 19.6003 171.049 19.871C171.212 20.137 171.294 20.466 171.294 20.858C171.294 21.586 171.025 22.16 170.489 22.58C169.952 22.9953 169.212 23.203 168.27 23.203ZM172.977 14.103V12.815H174.223V14.103H172.977ZM172.977 23V15.44H174.223V23H172.977ZM179.383 26.57C178.986 26.57 178.599 26.5093 178.221 26.388C177.843 26.2667 177.495 26.0823 177.178 25.835C176.865 25.5923 176.604 25.2843 176.394 24.911L177.535 24.309C177.721 24.6777 177.985 24.946 178.326 25.114C178.671 25.282 179.026 25.366 179.39 25.366C179.87 25.366 180.269 25.2773 180.587 25.1C180.904 24.9273 181.137 24.6683 181.287 24.323C181.441 23.9777 181.515 23.5483 181.511 23.035V20.97H181.658V15.44H182.764V23.049C182.764 23.2543 182.757 23.4527 182.743 23.644C182.733 23.8353 182.71 24.0243 182.673 24.211C182.575 24.7477 182.381 25.1887 182.092 25.534C181.802 25.884 181.429 26.143 180.972 26.311C180.514 26.4837 179.985 26.57 179.383 26.57ZM179.292 23.21C178.587 23.21 177.983 23.035 177.479 22.685C176.975 22.3303 176.585 21.852 176.31 21.25C176.039 20.648 175.904 19.969 175.904 19.213C175.904 18.457 176.039 17.778 176.31 17.176C176.585 16.574 176.975 16.1003 177.479 15.755C177.983 15.405 178.585 15.23 179.285 15.23C179.999 15.23 180.598 15.4027 181.084 15.748C181.569 16.0933 181.935 16.567 182.183 17.169C182.435 17.771 182.561 18.4523 182.561 19.213C182.561 19.9643 182.435 20.6433 182.183 21.25C181.935 21.852 181.569 22.3303 181.084 22.685C180.598 23.035 180.001 23.21 179.292 23.21ZM179.446 22.069C179.954 22.069 180.372 21.9477 180.699 21.705C181.025 21.4577 181.266 21.1193 181.42 20.69C181.578 20.256 181.658 19.7637 181.658 19.213C181.658 18.653 181.578 18.1607 181.42 17.736C181.266 17.3067 181.028 16.973 180.706 16.735C180.384 16.4923 179.975 16.371 179.481 16.371C178.967 16.371 178.543 16.497 178.207 16.749C177.875 17.001 177.628 17.3417 177.465 17.771C177.306 18.2003 177.227 18.681 177.227 19.213C177.227 19.7497 177.308 20.235 177.472 20.669C177.635 21.0983 177.88 21.439 178.207 21.691C178.538 21.943 178.951 22.069 179.446 22.069ZM190.101 23V19.213C190.101 18.8537 190.069 18.5083 190.003 18.177C189.943 17.8457 189.833 17.5493 189.674 17.288C189.52 17.022 189.31 16.812 189.044 16.658C188.783 16.504 188.452 16.427 188.05 16.427C187.738 16.427 187.453 16.4807 187.196 16.588C186.944 16.6907 186.727 16.8493 186.545 17.064C186.363 17.2787 186.221 17.5493 186.118 17.876C186.02 18.198 185.971 18.5783 185.971 19.017L185.152 18.765C185.152 18.0323 185.283 17.4047 185.544 16.882C185.81 16.3547 186.181 15.951 186.657 15.671C187.138 15.3863 187.703 15.244 188.351 15.244C188.841 15.244 189.259 15.321 189.604 15.475C189.95 15.629 190.237 15.8343 190.465 16.091C190.694 16.343 190.874 16.6277 191.004 16.945C191.135 17.2577 191.226 17.5773 191.277 17.904C191.333 18.226 191.361 18.5317 191.361 18.821V23H190.101ZM184.711 23V15.44H185.831V17.463H185.971V23H184.711ZM198.854 23.196C198.369 23.196 197.951 23.119 197.601 22.965C197.256 22.811 196.969 22.6057 196.74 22.349C196.511 22.0923 196.332 21.8077 196.201 21.495C196.07 21.1823 195.977 20.8627 195.921 20.536C195.87 20.2093 195.844 19.9037 195.844 19.619V15.44H197.104V19.227C197.104 19.5817 197.137 19.9247 197.202 20.256C197.267 20.5873 197.377 20.886 197.531 21.152C197.69 21.418 197.9 21.628 198.161 21.782C198.427 21.936 198.758 22.013 199.155 22.013C199.468 22.013 199.752 21.9593 200.009 21.852C200.266 21.7447 200.485 21.586 200.667 21.376C200.849 21.1613 200.989 20.8907 201.087 20.564C201.185 20.2373 201.234 19.857 201.234 19.423L202.053 19.675C202.053 20.403 201.92 21.0307 201.654 21.558C201.393 22.0853 201.022 22.4913 200.541 22.776C200.065 23.056 199.503 23.196 198.854 23.196ZM201.374 23V20.977H201.234V15.44H202.487V23H201.374ZM207.919 23.21C207.209 23.21 206.612 23.035 206.127 22.685C205.641 22.3303 205.273 21.852 205.021 21.25C204.773 20.6433 204.65 19.9643 204.65 19.213C204.65 18.4523 204.773 17.771 205.021 17.169C205.273 16.567 205.641 16.0933 206.127 15.748C206.617 15.4027 207.216 15.23 207.926 15.23C208.626 15.23 209.228 15.405 209.732 15.755C210.24 16.1003 210.63 16.574 210.901 17.176C211.171 17.778 211.307 18.457 211.307 19.213C211.307 19.969 211.171 20.648 210.901 21.25C210.63 21.852 210.24 22.3303 209.732 22.685C209.228 23.035 208.623 23.21 207.919 23.21ZM204.44 26.36V15.44H205.553V21.005H205.693V26.36H204.44ZM207.765 22.069C208.264 22.069 208.677 21.943 209.004 21.691C209.33 21.439 209.575 21.0983 209.739 20.669C209.902 20.235 209.984 19.7497 209.984 19.213C209.984 18.681 209.902 18.2003 209.739 17.771C209.58 17.3417 209.333 17.001 208.997 16.749C208.665 16.497 208.243 16.371 207.73 16.371C207.24 16.371 206.834 16.4923 206.512 16.735C206.19 16.973 205.949 17.3067 205.791 17.736C205.632 18.1607 205.553 18.653 205.553 19.213C205.553 19.7637 205.63 20.256 205.784 20.69C205.942 21.1193 206.185 21.4577 206.512 21.705C206.838 21.9477 207.256 22.069 207.765 22.069ZM217.254 23L214.944 15.433L216.183 15.44L217.87 20.97L219.571 15.44H220.67L222.364 20.97L224.058 15.44H225.29L222.98 23H221.944L220.117 17.253L218.29 23H217.254ZM226.694 14.103V12.815H227.94V14.103H226.694ZM226.694 23V15.44H227.94V23H226.694ZM234.262 23C233.814 23.0887 233.37 23.1237 232.932 23.105C232.498 23.091 232.11 23.0047 231.77 22.846C231.429 22.6827 231.17 22.4307 230.993 22.09C230.843 21.7913 230.762 21.4903 230.748 21.187C230.738 20.879 230.734 20.5313 230.734 20.144V13.34H231.98V20.088C231.98 20.396 231.982 20.6597 231.987 20.879C231.996 21.0983 232.045 21.2873 232.134 21.446C232.302 21.7447 232.568 21.9197 232.932 21.971C233.3 22.0223 233.744 22.0083 234.262 21.929V23ZM229.201 16.469V15.44H234.262V16.469H229.201ZM241.179 23V19.213C241.179 18.8537 241.147 18.5083 241.081 18.177C241.021 17.8457 240.911 17.5493 240.752 17.288C240.598 17.022 240.388 16.812 240.122 16.658C239.861 16.504 239.53 16.427 239.128 16.427C238.816 16.427 238.531 16.4807 238.274 16.588C238.022 16.6907 237.805 16.8493 237.623 17.064C237.441 17.2787 237.299 17.5493 237.196 17.876C237.098 18.198 237.049 18.5783 237.049 19.017L236.23 18.765C236.23 18.0323 236.361 17.4047 236.622 16.882C236.888 16.3547 237.259 15.951 237.735 15.671C238.216 15.3863 238.781 15.244 239.429 15.244C239.919 15.244 240.337 15.321 240.682 15.475C241.028 15.629 241.315 15.8343 241.543 16.091C241.772 16.343 241.952 16.6277 242.082 16.945C242.213 17.2577 242.304 17.5773 242.355 17.904C242.411 18.226 242.439 18.5317 242.439 18.821V23H241.179ZM235.789 23V12.92H236.909V18.485H237.049V23H235.789Z" fill="#4B5768"/>
<g opacity="0.8">
<rect x="0.5" y="40.5" width="127" height="31" rx="3.5" stroke="#D0D5DD"/>
<path fill-rule="evenodd" clip-rule="evenodd" d="M48.68 56.1818C48.68 55.6146 48.6291 55.0691 48.5345 54.5455H41V57.64H45.3055C45.12 58.64 44.5564 59.4873 43.7091 60.0546V62.0618H46.2945C47.8073 60.6691 48.68 58.6182 48.68 56.1818Z" fill="#191D23"/>
<path fill-rule="evenodd" clip-rule="evenodd" d="M40.9999 63.9999C43.1599 63.9999 44.9708 63.2835 46.2945 62.0617L43.709 60.0544C42.9926 60.5344 42.0763 60.8181 40.9999 60.8181C38.9163 60.8181 37.1526 59.4108 36.5236 57.5199H33.8508V59.5926C35.1672 62.2072 37.8726 63.9999 40.9999 63.9999Z" fill="#191D23"/>
<path fill-rule="evenodd" clip-rule="evenodd" d="M36.5236 57.52C36.3636 57.04 36.2727 56.5273 36.2727 56C36.2727 55.4727 36.3636 54.96 36.5236 54.48V52.4073H33.8509C33.3091 53.4873 33 54.7091 33 56C33 57.2909 33.3091 58.5127 33.8509 59.5927L36.5236 57.52Z" fill="#191D23"/>
<path fill-rule="evenodd" clip-rule="evenodd" d="M40.9999 51.1818C42.1745 51.1818 43.229 51.5855 44.0581 52.3782L46.3526 50.0836C44.9672 48.7927 43.1563 48 40.9999 48C37.8726 48 35.1672 49.7927 33.8508 52.4073L36.5236 54.48C37.1526 52.5891 38.9163 51.1818 40.9999 51.1818Z" fill="#191D23"/>
<path d="M59.302 61.18C58.694 61.18 58.146 61.074 57.658 60.862C57.17 60.65 56.754 60.348 56.41 59.956C56.07 59.564 55.81 59.092 55.63 58.54C55.45 57.984 55.36 57.364 55.36 56.68C55.36 55.776 55.516 54.988 55.828 54.316C56.144 53.64 56.596 53.116 57.184 52.744C57.772 52.372 58.478 52.186 59.302 52.186C60.222 52.186 60.97 52.402 61.546 52.834C62.126 53.262 62.53 53.838 62.758 54.562L61.87 54.778C61.682 54.25 61.372 53.828 60.94 53.512C60.512 53.196 59.978 53.038 59.338 53.038C58.662 53.034 58.1 53.186 57.652 53.494C57.204 53.798 56.866 54.226 56.638 54.778C56.414 55.326 56.3 55.96 56.296 56.68C56.292 57.4 56.402 58.034 56.626 58.582C56.854 59.126 57.194 59.554 57.646 59.866C58.098 60.174 58.662 60.33 59.338 60.334C59.958 60.334 60.47 60.214 60.874 59.974C61.278 59.734 61.584 59.39 61.792 58.942C62.004 58.494 62.124 57.964 62.152 57.352H60.16V56.596H63.076C63.088 56.688 63.094 56.786 63.094 56.89C63.098 56.99 63.1 57.062 63.1 57.106C63.1 57.886 62.96 58.584 62.68 59.2C62.4 59.812 61.978 60.296 61.414 60.652C60.854 61.004 60.15 61.18 59.302 61.18ZM67.0069 61.18C66.3629 61.18 65.8129 61.034 65.3569 60.742C64.9009 60.45 64.5509 60.046 64.3069 59.53C64.0629 59.014 63.9409 58.422 63.9409 57.754C63.9409 57.074 64.0649 56.478 64.3129 55.966C64.5609 55.454 64.9129 55.056 65.3689 54.772C65.8289 54.484 66.3749 54.34 67.0069 54.34C67.6549 54.34 68.2069 54.486 68.6629 54.778C69.1229 55.066 69.4729 55.468 69.7129 55.984C69.9569 56.496 70.0789 57.086 70.0789 57.754C70.0789 58.434 69.9569 59.032 69.7129 59.548C69.4689 60.06 69.1169 60.46 68.6569 60.748C68.1969 61.036 67.6469 61.18 67.0069 61.18ZM67.0069 60.334C67.7269 60.334 68.2629 60.096 68.6149 59.62C68.9669 59.14 69.1429 58.518 69.1429 57.754C69.1429 56.97 68.9649 56.346 68.6089 55.882C68.2569 55.418 67.7229 55.186 67.0069 55.186C66.5229 55.186 66.1229 55.296 65.8069 55.516C65.4949 55.732 65.2609 56.034 65.1049 56.422C64.9529 56.806 64.8769 57.25 64.8769 57.754C64.8769 58.534 65.0569 59.16 65.4169 59.632C65.7769 60.1 66.3069 60.334 67.0069 60.334ZM74.1085 61.18C73.4645 61.18 72.9145 61.034 72.4585 60.742C72.0025 60.45 71.6525 60.046 71.4085 59.53C71.1645 59.014 71.0425 58.422 71.0425 57.754C71.0425 57.074 71.1665 56.478 71.4145 55.966C71.6625 55.454 72.0145 55.056 72.4705 54.772C72.9305 54.484 73.4765 54.34 74.1085 54.34C74.7565 54.34 75.3085 54.486 75.7645 54.778C76.2245 55.066 76.5745 55.468 76.8145 55.984C77.0585 56.496 77.1805 57.086 77.1805 57.754C77.1805 58.434 77.0585 59.032 76.8145 59.548C76.5705 60.06 76.2185 60.46 75.7585 60.748C75.2985 61.036 74.7485 61.18 74.1085 61.18ZM74.1085 60.334C74.8285 60.334 75.3645 60.096 75.7165 59.62C76.0685 59.14 76.2445 58.518 76.2445 57.754C76.2445 56.97 76.0665 56.346 75.7105 55.882C75.3585 55.418 74.8245 55.186 74.1085 55.186C73.6245 55.186 73.2245 55.296 72.9085 55.516C72.5965 55.732 72.3625 56.034 72.2065 56.422C72.0545 56.806 71.9785 57.25 71.9785 57.754C71.9785 58.534 72.1585 59.16 72.5185 59.632C72.8785 60.1 73.4085 60.334 74.1085 60.334ZM81.0781 64.06C80.7461 64.06 80.4181 64.01 80.0941 63.91C79.7741 63.814 79.4781 63.66 79.2061 63.448C78.9341 63.24 78.7061 62.968 78.5221 62.632L79.3201 62.188C79.5001 62.548 79.7521 62.806 80.0761 62.962C80.4041 63.122 80.7381 63.202 81.0781 63.202C81.5461 63.202 81.9241 63.114 82.2121 62.938C82.5041 62.766 82.7161 62.51 82.8481 62.17C82.9801 61.83 83.0441 61.406 83.0401 60.898V59.17H83.1421V54.52H83.9281V60.91C83.9281 61.094 83.9221 61.27 83.9101 61.438C83.9021 61.61 83.8841 61.778 83.8561 61.942C83.7801 62.426 83.6221 62.824 83.3821 63.136C83.1461 63.448 82.8341 63.68 82.4461 63.832C82.0621 63.984 81.6061 64.06 81.0781 64.06ZM81.0181 61.18C80.4141 61.18 79.8981 61.03 79.4701 60.73C79.0421 60.426 78.7141 60.016 78.4861 59.5C78.2581 58.984 78.1441 58.402 78.1441 57.754C78.1441 57.11 78.2561 56.53 78.4801 56.014C78.7081 55.498 79.0341 55.09 79.4581 54.79C79.8821 54.49 80.3901 54.34 80.9821 54.34C81.5901 54.34 82.1021 54.488 82.5181 54.784C82.9341 55.08 83.2481 55.486 83.4601 56.002C83.6761 56.514 83.7841 57.098 83.7841 57.754C83.7841 58.398 83.6781 58.98 83.4661 59.5C83.2541 60.016 82.9421 60.426 82.5301 60.73C82.1181 61.03 81.6141 61.18 81.0181 61.18ZM81.1081 60.358C81.5681 60.358 81.9481 60.246 82.2481 60.022C82.5481 59.798 82.7721 59.49 82.9201 59.098C83.0681 58.702 83.1421 58.254 83.1421 57.754C83.1421 57.246 83.0681 56.798 82.9201 56.41C82.7721 56.018 82.5481 55.712 82.2481 55.492C81.9521 55.272 81.5781 55.162 81.1261 55.162C80.6621 55.162 80.2781 55.276 79.9741 55.504C79.6701 55.732 79.4441 56.042 79.2961 56.434C79.1521 56.826 79.0801 57.266 79.0801 57.754C79.0801 58.246 79.1541 58.69 79.3021 59.086C79.4541 59.478 79.6801 59.788 79.9801 60.016C80.2801 60.244 80.6561 60.358 81.1081 60.358ZM85.7256 61V52.18H86.6076V61H85.7256ZM91.1484 61.18C90.5164 61.18 89.9684 61.04 89.5044 60.76C89.0444 60.48 88.6864 60.086 88.4304 59.578C88.1744 59.07 88.0464 58.474 88.0464 57.79C88.0464 57.082 88.1724 56.47 88.4244 55.954C88.6764 55.438 89.0304 55.04 89.4864 54.76C89.9464 54.48 90.4884 54.34 91.1124 54.34C91.7524 54.34 92.2984 54.488 92.7504 54.784C93.2024 55.076 93.5444 55.496 93.7764 56.044C94.0084 56.592 94.1144 57.246 94.0944 58.006H93.1944V57.694C93.1784 56.854 92.9964 56.22 92.6484 55.792C92.3044 55.364 91.8004 55.15 91.1364 55.15C90.4404 55.15 89.9064 55.376 89.5344 55.828C89.1664 56.28 88.9824 56.924 88.9824 57.76C88.9824 58.576 89.1664 59.21 89.5344 59.662C89.9064 60.11 90.4324 60.334 91.1124 60.334C91.5764 60.334 91.9804 60.228 92.3244 60.016C92.6724 59.8 92.9464 59.49 93.1464 59.086L93.9684 59.404C93.7124 59.968 93.3344 60.406 92.8344 60.718C92.3384 61.026 91.7764 61.18 91.1484 61.18ZM88.6704 58.006V57.268H93.6204V58.006H88.6704Z" fill="#191D23"/>
</g>
<rect x="132.5" y="40.5" width="127" height="31" rx="3.5" stroke="#D0D5DD"/>
<path d="M183.707 60.4689C183.455 61.0279 183.158 61.5424 182.813 62.0155C182.343 62.6604 181.958 63.1068 181.662 63.3547C181.202 63.7616 180.71 63.97 180.182 63.9818C179.804 63.9818 179.347 63.8781 178.816 63.6678C178.283 63.4584 177.793 63.3547 177.345 63.3547C176.875 63.3547 176.371 63.4584 175.832 63.6678C175.292 63.8781 174.857 63.9878 174.525 63.9986C174.019 64.0194 173.515 63.8051 173.012 63.3547C172.691 63.0851 172.289 62.6229 171.808 61.9681C171.292 61.2688 170.867 60.458 170.535 59.5336C170.179 58.5351 170 57.5682 170 56.6321C170 55.5599 170.241 54.6351 170.723 53.8601C171.102 53.2376 171.606 52.7465 172.237 52.386C172.867 52.0256 173.549 51.8419 174.283 51.8301C174.685 51.8301 175.211 51.9497 175.866 52.1848C176.519 52.4206 176.938 52.5402 177.122 52.5402C177.259 52.5402 177.725 52.4004 178.514 52.1216C179.26 51.863 179.89 51.7559 180.406 51.7981C181.804 51.9067 182.855 52.4374 183.554 53.3934C182.303 54.1229 181.684 55.1446 181.697 56.4553C181.708 57.4762 182.093 58.3257 182.849 59.0003C183.192 59.3133 183.574 59.5553 184 59.7272C183.908 59.9849 183.81 60.2318 183.707 60.4689ZM180.499 48.3201C180.499 49.1203 180.196 49.8674 179.591 50.5589C178.86 51.381 177.976 51.8561 177.018 51.7811C177.006 51.6851 176.999 51.5841 176.999 51.4779C176.999 50.7097 177.346 49.8876 177.963 49.2155C178.271 48.8751 178.663 48.5922 179.138 48.3664C179.612 48.144 180.06 48.0211 180.482 48C180.494 48.107 180.499 48.214 180.499 48.3201V48.3201Z" fill="#191D23"/>
<path d="M190.24 61L193.216 52.36H194.386L197.362 61H196.444L193.618 52.852H193.966L191.158 61H190.24ZM191.566 58.906V58.078H196.03V58.906H191.566ZM201.355 61.18C200.759 61.18 200.255 61.03 199.843 60.73C199.431 60.426 199.119 60.016 198.907 59.5C198.695 58.98 198.589 58.398 198.589 57.754C198.589 57.098 198.695 56.514 198.907 56.002C199.123 55.486 199.439 55.08 199.855 54.784C200.271 54.488 200.783 54.34 201.391 54.34C201.983 54.34 202.491 54.49 202.915 54.79C203.339 55.09 203.663 55.498 203.887 56.014C204.115 56.53 204.229 57.11 204.229 57.754C204.229 58.402 204.115 58.984 203.887 59.5C203.659 60.016 203.331 60.426 202.903 60.73C202.475 61.03 201.959 61.18 201.355 61.18ZM198.439 63.88V54.52H199.231V59.398H199.327V63.88H198.439ZM201.265 60.358C201.717 60.358 202.093 60.244 202.393 60.016C202.693 59.788 202.917 59.478 203.065 59.086C203.217 58.69 203.293 58.246 203.293 57.754C203.293 57.266 203.219 56.826 203.071 56.434C202.923 56.042 202.697 55.732 202.393 55.504C202.093 55.276 201.711 55.162 201.247 55.162C200.795 55.162 200.419 55.272 200.119 55.492C199.823 55.712 199.601 56.018 199.453 56.41C199.305 56.798 199.231 57.246 199.231 57.754C199.231 58.254 199.305 58.702 199.453 59.098C199.601 59.49 199.825 59.798 200.125 60.022C200.425 60.246 200.805 60.358 201.265 60.358ZM208.457 61.18C207.861 61.18 207.357 61.03 206.945 60.73C206.533 60.426 206.221 60.016 206.009 59.5C205.797 58.98 205.691 58.398 205.691 57.754C205.691 57.098 205.797 56.514 206.009 56.002C206.225 55.486 206.541 55.08 206.957 54.784C207.373 54.488 207.885 54.34 208.493 54.34C209.085 54.34 209.593 54.49 210.017 54.79C210.441 55.09 210.765 55.498 210.989 56.014C211.217 56.53 211.331 57.11 211.331 57.754C211.331 58.402 211.217 58.984 210.989 59.5C210.761 60.016 210.433 60.426 210.005 60.73C209.577 61.03 209.061 61.18 208.457 61.18ZM205.541 63.88V54.52H206.333V59.398H206.429V63.88H205.541ZM208.367 60.358C208.819 60.358 209.195 60.244 209.495 60.016C209.795 59.788 210.019 59.478 210.167 59.086C210.319 58.69 210.395 58.246 210.395 57.754C210.395 57.266 210.321 56.826 210.173 56.434C210.025 56.042 209.799 55.732 209.495 55.504C209.195 55.276 208.813 55.162 208.349 55.162C207.897 55.162 207.521 55.272 207.221 55.492C206.925 55.712 206.703 56.018 206.555 56.41C206.407 56.798 206.333 57.246 206.333 57.754C206.333 58.254 206.407 58.702 206.555 59.098C206.703 59.49 206.927 59.798 207.227 60.022C207.527 60.246 207.907 60.358 208.367 60.358ZM212.769 61V52.18H213.651V61H212.769ZM218.191 61.18C217.559 61.18 217.011 61.04 216.547 60.76C216.087 60.48 215.729 60.086 215.473 59.578C215.217 59.07 215.089 58.474 215.089 57.79C215.089 57.082 215.215 56.47 215.467 55.954C215.719 55.438 216.073 55.04 216.529 54.76C216.989 54.48 217.531 54.34 218.155 54.34C218.795 54.34 219.341 54.488 219.793 54.784C220.245 55.076 220.587 55.496 220.819 56.044C221.051 56.592 221.157 57.246 221.137 58.006H220.237V57.694C220.221 56.854 220.039 56.22 219.691 55.792C219.347 55.364 218.843 55.15 218.179 55.15C217.483 55.15 216.949 55.376 216.577 55.828C216.209 56.28 216.025 56.924 216.025 57.76C216.025 58.576 216.209 59.21 216.577 59.662C216.949 60.11 217.475 60.334 218.155 60.334C218.619 60.334 219.023 60.228 219.367 60.016C219.715 59.8 219.989 59.49 220.189 59.086L221.011 59.404C220.755 59.968 220.377 60.406 219.877 60.718C219.381 61.026 218.819 61.18 218.191 61.18ZM215.713 58.006V57.268H220.663V58.006H215.713Z" fill="#191D23"/>
<rect x="264.5" y="40.5" width="127" height="31" rx="3.5" stroke="#D0D5DD"/>
<path d="M306 56.0489C306 51.6036 302.418 48 298 48C293.582 48 290 51.6036 290 56.0489C290 60.0663 292.925 63.3962 296.75 64V58.3755H294.719V56.0489H296.75V54.2756C296.75 52.2584 297.944 51.1441 299.772 51.1441C300.647 51.1441 301.562 51.3013 301.562 51.3013V53.2821H300.554C299.56 53.2821 299.25 53.9025 299.25 54.539V56.0489H301.469L301.114 58.3755H299.25V64C303.075 63.3962 306 60.0663 306 56.0489Z" fill="#191D23"/>
<path d="M312.84 61V52.36H317.802V53.242H313.722V56.242H317.082V57.118H313.722V61H312.84ZM320.507 61.18C320.019 61.18 319.609 61.092 319.277 60.916C318.949 60.74 318.703 60.506 318.539 60.214C318.375 59.922 318.293 59.604 318.293 59.26C318.293 58.908 318.363 58.608 318.503 58.36C318.647 58.108 318.841 57.902 319.085 57.742C319.333 57.582 319.619 57.46 319.943 57.376C320.271 57.296 320.633 57.226 321.029 57.166C321.429 57.102 321.819 57.048 322.199 57.004C322.583 56.956 322.919 56.91 323.207 56.866L322.895 57.058C322.907 56.418 322.783 55.944 322.523 55.636C322.263 55.328 321.811 55.174 321.167 55.174C320.723 55.174 320.347 55.274 320.039 55.474C319.735 55.674 319.521 55.99 319.396 56.422L318.539 56.17C318.687 55.59 318.985 55.14 319.433 54.82C319.881 54.5 320.463 54.34 321.179 54.34C321.771 54.34 322.273 54.452 322.685 54.676C323.101 54.896 323.395 55.216 323.567 55.636C323.647 55.824 323.699 56.034 323.723 56.266C323.747 56.498 323.759 56.734 323.759 56.974V61H322.973V59.374L323.201 59.47C322.981 60.026 322.639 60.45 322.175 60.742C321.711 61.034 321.155 61.18 320.507 61.18ZM320.609 60.418C321.021 60.418 321.381 60.344 321.689 60.196C321.997 60.048 322.245 59.846 322.433 59.59C322.621 59.33 322.743 59.038 322.799 58.714C322.847 58.506 322.873 58.278 322.877 58.03C322.881 57.778 322.883 57.59 322.883 57.466L323.219 57.64C322.919 57.68 322.593 57.72 322.241 57.76C321.893 57.8 321.549 57.846 321.209 57.898C320.873 57.95 320.569 58.012 320.297 58.084C320.113 58.136 319.935 58.21 319.763 58.306C319.591 58.398 319.449 58.522 319.337 58.678C319.229 58.834 319.175 59.028 319.175 59.26C319.175 59.448 319.221 59.63 319.312 59.806C319.409 59.982 319.561 60.128 319.769 60.244C319.981 60.36 320.261 60.418 320.609 60.418ZM328.008 61.18C327.356 61.18 326.804 61.034 326.352 60.742C325.9 60.45 325.556 60.048 325.32 59.536C325.088 59.02 324.968 58.428 324.96 57.76C324.968 57.08 325.092 56.484 325.332 55.972C325.572 55.456 325.918 55.056 326.37 54.772C326.822 54.484 327.37 54.34 328.014 54.34C328.67 54.34 329.24 54.5 329.724 54.82C330.212 55.14 330.546 55.578 330.726 56.134L329.862 56.41C329.71 56.022 329.468 55.722 329.136 55.51C328.808 55.294 328.432 55.186 328.008 55.186C327.532 55.186 327.138 55.296 326.826 55.516C326.514 55.732 326.282 56.034 326.13 56.422C325.978 56.81 325.9 57.256 325.896 57.76C325.904 58.536 326.084 59.16 326.436 59.632C326.788 60.1 327.312 60.334 328.008 60.334C328.448 60.334 328.822 60.234 329.13 60.034C329.442 59.83 329.678 59.534 329.838 59.146L330.726 59.41C330.486 59.986 330.134 60.426 329.67 60.73C329.206 61.03 328.652 61.18 328.008 61.18ZM334.531 61.18C333.899 61.18 333.351 61.04 332.887 60.76C332.427 60.48 332.069 60.086 331.813 59.578C331.557 59.07 331.429 58.474 331.429 57.79C331.429 57.082 331.555 56.47 331.807 55.954C332.059 55.438 332.413 55.04 332.869 54.76C333.329 54.48 333.871 54.34 334.495 54.34C335.135 54.34 335.681 54.488 336.133 54.784C336.585 55.076 336.927 55.496 337.159 56.044C337.391 56.592 337.497 57.246 337.477 58.006H336.577V57.694C336.561 56.854 336.379 56.22 336.031 55.792C335.687 55.364 335.183 55.15 334.519 55.15C333.823 55.15 333.289 55.376 332.917 55.828C332.549 56.28 332.365 56.924 332.365 57.76C332.365 58.576 332.549 59.21 332.917 59.662C333.289 60.11 333.815 60.334 334.495 60.334C334.959 60.334 335.363 60.228 335.707 60.016C336.055 59.8 336.329 59.49 336.529 59.086L337.351 59.404C337.095 59.968 336.717 60.406 336.217 60.718C335.721 61.026 335.159 61.18 334.531 61.18ZM332.053 58.006V57.268H337.003V58.006H332.053ZM341.719 61.18C341.123 61.18 340.619 61.03 340.207 60.73C339.795 60.426 339.483 60.016 339.271 59.5C339.059 58.98 338.953 58.398 338.953 57.754C338.953 57.098 339.059 56.514 339.271 56.002C339.487 55.486 339.803 55.08 340.219 54.784C340.635 54.488 341.147 54.34 341.755 54.34C342.347 54.34 342.855 54.49 343.279 54.79C343.703 55.09 344.027 55.498 344.251 56.014C344.479 56.53 344.593 57.11 344.593 57.754C344.593 58.402 344.479 58.984 344.251 59.5C344.023 60.016 343.695 60.426 343.267 60.73C342.839 61.03 342.323 61.18 341.719 61.18ZM338.803 61V52.36H339.691V56.122H339.595V61H338.803ZM341.629 60.358C342.081 60.358 342.457 60.244 342.757 60.016C343.057 59.788 343.281 59.478 343.429 59.086C343.581 58.69 343.657 58.246 343.657 57.754C343.657 57.266 343.583 56.826 343.435 56.434C343.287 56.042 343.061 55.732 342.757 55.504C342.457 55.276 342.075 55.162 341.611 55.162C341.159 55.162 340.783 55.272 340.483 55.492C340.187 55.712 339.965 56.018 339.817 56.41C339.669 56.798 339.595 57.246 339.595 57.754C339.595 58.254 339.669 58.702 339.817 59.098C339.965 59.49 340.189 59.798 340.489 60.022C340.789 60.246 341.169 60.358 341.629 60.358ZM348.616 61.18C347.972 61.18 347.422 61.034 346.966 60.742C346.51 60.45 346.16 60.046 345.916 59.53C345.672 59.014 345.55 58.422 345.55 57.754C345.55 57.074 345.674 56.478 345.922 55.966C346.17 55.454 346.522 55.056 346.978 54.772C347.438 54.484 347.984 54.34 348.616 54.34C349.264 54.34 349.816 54.486 350.272 54.778C350.732 55.066 351.082 55.468 351.322 55.984C351.566 56.496 351.688 57.086 351.688 57.754C351.688 58.434 351.566 59.032 351.322 59.548C351.078 60.06 350.726 60.46 350.266 60.748C349.806 61.036 349.256 61.18 348.616 61.18ZM348.616 60.334C349.336 60.334 349.872 60.096 350.224 59.62C350.576 59.14 350.752 58.518 350.752 57.754C350.752 56.97 350.574 56.346 350.218 55.882C349.866 55.418 349.332 55.186 348.616 55.186C348.132 55.186 347.732 55.296 347.416 55.516C347.104 55.732 346.87 56.034 346.714 56.422C346.562 56.806 346.486 57.25 346.486 57.754C346.486 58.534 346.666 59.16 347.026 59.632C347.386 60.1 347.916 60.334 348.616 60.334ZM355.718 61.18C355.074 61.18 354.524 61.034 354.068 60.742C353.612 60.45 353.262 60.046 353.018 59.53C352.774 59.014 352.652 58.422 352.652 57.754C352.652 57.074 352.776 56.478 353.024 55.966C353.272 55.454 353.624 55.056 354.08 54.772C354.54 54.484 355.086 54.34 355.718 54.34C356.366 54.34 356.918 54.486 357.374 54.778C357.834 55.066 358.184 55.468 358.424 55.984C358.668 56.496 358.79 57.086 358.79 57.754C358.79 58.434 358.668 59.032 358.424 59.548C358.18 60.06 357.828 60.46 357.368 60.748C356.908 61.036 356.358 61.18 355.718 61.18ZM355.718 60.334C356.438 60.334 356.974 60.096 357.326 59.62C357.678 59.14 357.854 58.518 357.854 57.754C357.854 56.97 357.676 56.346 357.32 55.882C356.968 55.418 356.434 55.186 355.718 55.186C355.234 55.186 354.834 55.296 354.518 55.516C354.206 55.732 353.972 56.034 353.816 56.422C353.664 56.806 353.588 57.25 353.588 57.754C353.588 58.534 353.768 59.16 354.128 59.632C354.488 60.1 355.018 60.334 355.718 60.334ZM360.107 61L360.113 52.36H361.001V57.64L363.893 54.52H365.069L362.033 57.76L365.465 61H364.181L361.001 57.88V61H360.107Z" fill="#191D23"/>
</svg>
