<svg width="657" height="520" viewBox="0 0 657 520" fill="none" xmlns="http://www.w3.org/2000/svg">
<path fill-rule="evenodd" clip-rule="evenodd" d="M579.705 112.613C579.282 112.309 578.294 112.202 577.831 112.11C575.911 111.732 573.935 111.568 571.975 111.568C565.946 111.577 559.815 112.169 553.887 113.193C550.116 113.843 545.569 116.032 541.82 114.843C535.294 112.772 528.698 112.874 522.506 115.831C516.844 118.534 512.547 123.668 510.039 129.216C509.66 130.054 508.125 133.136 507.691 135.214C507.505 135.639 507.326 136.066 507.165 136.5C506.709 137.733 506.299 138.987 505.919 140.245C505.756 140.781 505.347 141.964 505.833 142.193C505.057 143.625 504.369 145.1 503.797 146.623C502.13 151.053 500.308 155.912 499.723 160.607C499.506 162.346 499.498 164.094 499.699 165.836C499.799 166.697 499.758 168.428 500.341 169.083C501.581 170.472 502.217 168.527 502.077 167.601C501.011 160.542 503.071 153.913 505.511 147.277C507.09 142.987 509.684 139.061 512.589 135.507C514.941 132.629 517.463 130.363 520.686 128.455C524.628 126.122 528.842 124.236 533.017 122.344C535.764 121.099 538.513 119.887 541.336 118.815C541.964 118.576 542.951 117.964 543.647 117.962C545.122 117.957 547.207 119.042 548.626 119.446C553.299 120.775 558.035 122.477 562.872 123.156C565.969 123.592 568.878 123.101 571.771 122.069C572.069 121.964 572.563 121.692 573.174 121.305C575.33 120.478 577.361 119.436 579.133 117.933C580.16 117.067 581.085 115.948 581.932 114.924C582.183 114.618 582.293 114.267 582.3 113.933C582.489 113.833 582.614 113.716 582.645 113.579C582.857 112.572 580.936 112.554 579.705 112.613Z" fill="#89C5CC"/>
<path fill-rule="evenodd" clip-rule="evenodd" d="M89.7217 196.64C88.5386 197.598 87.3783 198.577 86.2461 199.594C85.3829 200.371 83.8556 201.3 83.5459 202.475C83.2237 203.697 84.2406 204.84 85.0434 205.579C89.2905 209.485 94.0731 212.126 99.958 212.565C109.02 213.242 116.906 210.928 124.769 206.376C130.291 203.179 133.95 198.449 134.748 192.063C141.326 194.795 147.686 198.562 153.092 203.185C155.76 205.466 158.057 207.993 160.182 210.794C161.543 212.589 162.859 214.412 164.08 216.305C164.611 217.128 165.151 218.587 166.028 219.06C167.057 219.618 168.302 218.744 168.251 217.601C168.208 216.649 167.18 215.544 166.698 214.766C165.9 213.474 165.09 212.19 164.236 210.933C162.854 208.898 161.427 206.891 159.869 204.987C156.37 200.708 151.917 197.173 147.301 194.159C138.447 188.376 128.729 184.733 117.955 184.424C111.33 184.234 105.757 186.497 100.091 189.876C96.5639 191.981 92.9229 194.049 89.7217 196.64Z" fill="#DDE3E9"/>
<path fill-rule="evenodd" clip-rule="evenodd" d="M175.659 168.671C168.755 161.563 161.827 154.544 154.114 148.285C149.568 144.597 144.778 141.244 140.086 137.747C140.627 138.221 141.158 138.708 141.676 139.208C140.212 138.215 138.295 137.653 136.742 136.732C135.01 135.706 133.354 134.533 131.731 133.35C128.561 131.041 125.439 128.688 122.18 126.499C118.55 124.061 114.789 121.808 111.097 119.463C107.963 117.471 104.791 115.291 101.439 113.664C99.6122 112.777 97.7815 111.725 95.9469 110.799C95.333 110.49 89.1031 106.558 89.1188 106.546C89.463 106.286 92.5983 107.759 93.0828 107.957C94.4988 108.535 95.8536 109.227 97.2146 109.916C96.4675 108.443 95.8763 106.895 95.5541 105.264C95.4545 104.762 94.6579 101.099 95.0656 100.792C95.2687 100.639 97.2562 107.191 97.3581 107.821C97.4412 108.332 97.4287 109.07 97.5965 109.554C97.8669 110.336 97.8536 110.1 98.4495 110.541C99.5416 111.349 100.991 111.854 102.173 112.529C102.811 112.885 104.784 114.295 105.973 114.697C109.569 116.444 113.215 119.13 116.633 121.361C115.736 119.676 115.053 117.914 114.556 116.068C114.437 115.629 113.159 111.697 113.47 111.463C113.819 111.201 116.252 117.207 116.397 117.775C116.664 118.832 116.72 120.007 117.055 121.035C117.423 122.163 118.572 122.562 119.606 123.22C123.415 125.639 127.092 128.209 130.708 130.897C134.654 123.882 130.105 115.41 126.271 109.524C123.506 105.282 119.786 101.645 115.857 98.4697C110.614 94.2326 104.615 90.8466 98.6236 87.7499C91.6426 84.1421 84.0971 81.9068 76.2521 80.8737C72.1493 80.3337 67.9524 80.3486 63.808 80.5218C61.7836 80.6065 59.84 80.8745 57.9004 81.5345C57.0254 81.8323 56.1802 82.2077 55.357 82.6279C54.7313 82.9469 53.2174 83.2847 52.8583 83.7604C49.8962 87.6135 48.3815 91.4533 48.6128 96.2955C48.8315 100.879 50.2796 105.465 52.2444 109.554C54.4334 114.107 57.248 118.239 60.9298 121.707C63.7382 124.353 66.8783 126.656 69.9979 128.928C81.0927 137.011 95.1589 144.042 109.529 142.236C114.18 141.651 118.604 140.025 122.739 137.816C123.713 137.294 124.681 136.768 125.601 136.153C126.221 135.739 127.879 133.871 128.502 133.803C129.357 133.71 131.198 135.449 132 135.978C138.095 139.999 144.031 144.24 149.841 148.651C156.024 153.345 161.902 158.357 167.609 163.605C170.035 165.838 172.447 168.075 174.803 170.383C175.352 170.92 176.693 172.896 177.688 172.986C178.317 173.043 178.741 172.506 178.652 171.924C178.496 170.912 176.366 169.398 175.659 168.671Z" fill="#C1DEE2"/>
<path fill-rule="evenodd" clip-rule="evenodd" d="M572.453 141.085C569.78 140.501 566.824 140.546 564.103 140.593C549.497 140.792 535.147 147.707 525.81 158.755C517.862 168.161 515.676 179.855 514.106 191.676C513.95 192.849 513.884 194.015 513.796 195.192C513.777 195.444 513.749 195.669 513.718 195.881C513.101 196.433 512.777 197.077 513.143 197.784C511.783 200.76 510.632 203.811 509.644 206.959C506.737 216.223 503.782 225.664 505.602 235.405C506.028 230.044 506.923 224.562 507.993 219.289C508.055 218.987 508.121 218.686 508.19 218.387C508.198 218.356 508.204 218.324 508.211 218.292C508.59 216.678 509.082 215.112 509.681 213.57C509.688 213.553 509.694 213.536 509.7 213.52C509.779 213.317 509.863 213.115 509.946 212.913C510.118 212.495 510.295 212.078 510.481 211.664C510.545 211.522 510.605 211.379 510.664 211.236C511.536 209.099 511.903 206.691 512.685 204.481C512.872 203.979 513.067 203.478 513.271 202.979C513.284 202.95 513.296 202.921 513.308 202.892C513.862 201.551 514.473 200.228 515.119 198.917C515.471 198.653 515.658 197.998 515.962 197.404C516.023 197.286 516.513 196.505 516.659 196.054C517.04 195.318 517.419 194.582 517.802 193.847C517.791 193.851 517.78 193.855 517.768 193.86C518.151 193.154 518.536 192.452 518.918 191.752C519.002 191.598 519.087 191.444 519.171 191.29C519.309 191.045 519.446 190.799 519.582 190.555C520.862 188.265 522.219 186.022 523.628 183.806C524.131 183.016 525.332 181.882 525.563 180.994C525.571 180.961 525.573 180.93 525.578 180.899C528.636 176.605 532.156 172.645 536.378 169.508C535.867 170.06 534.782 171.931 534.496 172.301C533.618 173.435 532.665 174.491 531.71 175.56C529.996 177.475 528.325 179.45 526.839 181.539C524.122 185.359 521.778 189.379 519.562 193.481C519.541 193.504 519.518 193.527 519.498 193.552C518.384 194.924 517.683 196.998 516.882 198.568C520.054 197.099 523.563 196.142 526.818 194.838C530.065 193.538 533.223 192.09 536.273 190.39C540.326 188.129 544.531 185.578 548.36 182.69C552.75 179.969 556.435 176.223 559.689 172.293C563.547 167.642 567.075 162.951 569.254 157.304C570.328 154.529 571.167 151.635 571.669 148.708C571.693 148.581 571.724 148.442 571.747 148.299C572.265 147.288 572.72 146.254 573.104 145.197C573.715 143.519 575.15 141.674 572.453 141.085Z" fill="#69A1AC"/>
<path fill-rule="evenodd" clip-rule="evenodd" d="M63.8637 149.983C62.8037 148.927 61.6135 147.974 60.2164 147.295C59.8628 147.123 57.2316 145.972 57.0599 146.225C56.6608 146.813 63.5454 149.646 63.8637 149.983ZM76.3399 142.928C76.3313 142.973 77.2439 144.398 77.4924 144.836C78.0209 145.768 78.5093 146.718 78.9688 147.669C78.289 145.988 77.5904 144.429 76.3399 142.928ZM12.5302 154.53C11.6513 154.79 10.5953 153.763 11.7345 153.51C12.6573 153.307 12.6118 153.259 13.0258 152.576C13.3621 152.02 13.5699 151.343 13.8647 150.761C14.4903 149.524 15.2006 148.345 16.0725 147.241C17.94 144.873 20.2161 142.832 22.7689 141.113C27.2237 138.112 32.218 135.37 37.5164 133.992C45.9408 131.802 55.5295 131.666 63.9672 133.185C69.1927 134.126 73.969 135.761 77.4383 139.634C79.1726 141.569 80.5345 143.838 81.1295 146.335C81.2848 146.987 81.2558 147.713 81.4502 148.352C81.7489 149.334 81.6172 149.072 82.8654 149.264C84.2288 149.472 85.5906 149.685 86.9517 149.902C90.5167 150.47 94.1028 151.073 97.5761 151.994C98.72 152.297 99.838 152.667 100.93 153.098C101.756 153.422 105.046 154.444 105.445 155.432C106.111 157.076 103.881 156.33 103.189 155.973C102.582 155.659 101.959 155.366 101.327 155.097C99.7353 154.419 98.0771 153.895 96.3812 153.477C94.549 153.026 92.6791 152.69 90.8162 152.352C89.0796 152.037 87.3359 151.751 85.5899 151.479C84.62 151.327 83.6494 151.179 82.6788 151.031C82.3471 150.981 81.763 150.717 81.8069 151.113C79.7661 150.751 77.5591 150.804 75.4806 150.703C72.9349 150.582 70.3789 150.482 67.8246 150.555C65.9821 150.608 64.1381 150.719 62.305 150.946C61.234 151.08 60.1803 151.275 59.1289 151.522C58.5519 151.657 56.2759 151.944 55.9615 152.407C56.0963 152.208 58.6083 152.402 58.9282 152.39C60.207 152.346 61.4763 152.229 62.7504 152.099C65.115 151.856 67.4812 151.729 69.8529 151.747C69.8442 152.13 68.2236 152.813 67.8277 153.067C66.941 153.636 66.0919 154.258 65.2992 154.94C63.9037 156.141 62.2321 157.627 61.2662 159.05C61.5508 158.631 62.955 158.085 63.4529 157.765C64.251 157.252 65.0327 156.704 65.7728 156.119C66.4557 155.579 67.0931 154.995 67.7195 154.398C68.346 153.802 69.1966 152.562 70.0199 152.164C70.07 152.14 70.4291 152.401 70.633 152.313C70.8384 152.223 71.094 151.776 71.1465 151.758C71.9133 151.486 73.3684 151.824 74.1744 151.859C76.2646 151.947 78.3525 152.063 80.4404 152.169C81.0872 152.201 81.6376 152.066 81.8814 152.505C82.1417 152.974 81.665 154.205 81.5294 154.716C81.0253 156.611 80.1315 158.311 78.7234 159.779C76.0874 162.529 72.8361 164.362 69.1637 165.589C55.0975 170.287 40.1319 172.168 26.0696 167.281C20.2482 165.258 11.4804 161.643 12.5302 154.53Z" fill="#89C5CC"/>
<mask id="mask0_0_1" style="mask-type:luminance" maskUnits="userSpaceOnUse" x="0" y="242" width="657" height="215">
<path d="M656.886 242.432H0.387207V456.045H656.886V242.432Z" fill="white"/>
</mask>
<g mask="url(#mask0_0_1)">
<g opacity="0.6">
<path fill-rule="evenodd" clip-rule="evenodd" d="M656.328 375.851C665.901 435.483 433.913 474.38 234.239 447.235C34.5644 420.091 -57.0366 314.087 38.2447 257.604C133.526 201.121 646.763 316.218 656.328 375.851Z" fill="#DDE3E9"/>
</g>
</g>
<path d="M265.13 19.0811H153.014C149.55 19.0811 146.742 21.8884 146.742 25.3513V249.513C146.742 252.976 149.55 255.784 153.014 255.784H265.13C268.594 255.784 271.402 252.976 271.402 249.513V25.3513C271.402 21.8884 268.594 19.0811 265.13 19.0811Z" fill="#F2F2F2"/>
<path fill-rule="evenodd" clip-rule="evenodd" d="M208.68 240.892C215.175 240.892 220.44 235.628 220.44 229.135C220.44 222.642 215.175 217.378 208.68 217.378C202.185 217.378 196.919 222.642 196.919 229.135C196.919 235.628 202.185 240.892 208.68 240.892Z" fill="white"/>
<path fill-rule="evenodd" clip-rule="evenodd" d="M198.488 34.7567C199.354 34.7567 200.056 34.0552 200.056 33.1891C200.056 32.3231 199.354 31.6216 198.488 31.6216C197.621 31.6216 196.919 32.3231 196.919 33.1891C196.919 34.0552 197.621 34.7567 198.488 34.7567Z" fill="white"/>
<path d="M218.872 31.6216H205.544C204.678 31.6216 203.976 32.3234 203.976 33.1891C203.976 34.0549 204.678 34.7567 205.544 34.7567H218.872C219.738 34.7567 220.44 34.0549 220.44 33.1891C220.44 32.3234 219.738 31.6216 218.872 31.6216Z" fill="white"/>
<path d="M257.29 41.027H160.854C159.122 41.027 157.718 42.4306 157.718 44.1621V80.2162C157.718 81.9477 159.122 83.3513 160.854 83.3513H257.29C259.022 83.3513 260.426 81.9477 260.426 80.2162V44.1621C260.426 42.4306 259.022 41.027 257.29 41.027Z" fill="white"/>
<mask id="mask1_0_1" style="mask-type:luminance" maskUnits="userSpaceOnUse" x="188" y="53" width="58" height="18">
<path d="M245.529 53.7242H188.295V70.654H245.529V53.7242Z" fill="white"/>
</mask>
<g mask="url(#mask1_0_1)">
<path d="M243.177 53.7242H190.647C189.348 53.7242 188.295 54.777 188.295 56.0756V57.7215C188.295 59.0202 189.348 60.0729 190.647 60.0729H243.177C244.476 60.0729 245.529 59.0202 245.529 57.7215V56.0756C245.529 54.777 244.476 53.7242 243.177 53.7242Z" fill="#DDE3E9"/>
<path d="M224.36 64.3053H190.647C189.348 64.3053 188.295 65.358 188.295 66.6566V68.3026C188.295 69.6012 189.348 70.654 190.647 70.654H224.36C225.659 70.654 226.713 69.6012 226.713 68.3026V66.6566C226.713 65.358 225.659 64.3053 224.36 64.3053Z" fill="#DDE3E9"/>
</g>
<path fill-rule="evenodd" clip-rule="evenodd" d="M174.183 71.5945C179.378 71.5945 183.591 67.3832 183.591 62.1891C183.591 56.995 179.378 52.7837 174.183 52.7837C168.987 52.7837 164.774 56.995 164.774 62.1891C164.774 67.3832 168.987 71.5945 174.183 71.5945Z" fill="#C5CFD6"/>
<path d="M257.29 89.6216H160.854C159.122 89.6216 157.718 91.0252 157.718 92.7567V119.405C157.718 121.137 159.122 122.541 160.854 122.541H257.29C259.022 122.541 260.426 121.137 260.426 119.405V92.7567C260.426 91.0252 259.022 89.6216 257.29 89.6216Z" fill="white"/>
<mask id="mask2_0_1" style="mask-type:luminance" maskUnits="userSpaceOnUse" x="188" y="99" width="58" height="14">
<path d="M245.529 99.4973H188.295V112.665H245.529V99.4973Z" fill="white"/>
</mask>
<g mask="url(#mask2_0_1)">
<path d="M243.177 99.4973H190.647C189.348 99.4973 188.295 100.55 188.295 101.849V102.084C188.295 103.382 189.348 104.435 190.647 104.435H243.177C244.476 104.435 245.529 103.382 245.529 102.084V101.849C245.529 100.55 244.476 99.4973 243.177 99.4973Z" fill="#DDE3E9"/>
<path d="M224.36 107.727H190.647C189.348 107.727 188.295 108.78 188.295 110.078V110.314C188.295 111.612 189.348 112.665 190.647 112.665H224.36C225.659 112.665 226.713 111.612 226.713 110.314V110.078C226.713 108.78 225.659 107.727 224.36 107.727Z" fill="#DDE3E9"/>
</g>
<path fill-rule="evenodd" clip-rule="evenodd" d="M174.183 115.486C179.378 115.486 183.591 111.275 183.591 106.081C183.591 100.887 179.378 96.6757 174.183 96.6757C168.987 96.6757 164.774 100.887 164.774 106.081C164.774 111.275 168.987 115.486 174.183 115.486Z" fill="#C5CFD6"/>
<path d="M257.29 128.811H160.854C159.122 128.811 157.718 130.214 157.718 131.946V158.595C157.718 160.326 159.122 161.73 160.854 161.73H257.29C259.022 161.73 260.426 160.326 260.426 158.595V131.946C260.426 130.214 259.022 128.811 257.29 128.811Z" fill="white"/>
<mask id="mask3_0_1" style="mask-type:luminance" maskUnits="userSpaceOnUse" x="188" y="138" width="58" height="14">
<path d="M245.529 138.687H188.295V151.854H245.529V138.687Z" fill="white"/>
</mask>
<g mask="url(#mask3_0_1)">
<path d="M243.177 138.687H190.647C189.348 138.687 188.295 139.739 188.295 141.038V141.273C188.295 142.572 189.348 143.624 190.647 143.624H243.177C244.476 143.624 245.529 142.572 245.529 141.273V141.038C245.529 139.739 244.476 138.687 243.177 138.687Z" fill="#DDE3E9"/>
<path d="M224.36 146.916H190.647C189.348 146.916 188.295 147.969 188.295 149.268V149.503C188.295 150.801 189.348 151.854 190.647 151.854H224.36C225.659 151.854 226.713 150.801 226.713 149.503V149.268C226.713 147.969 225.659 146.916 224.36 146.916Z" fill="#DDE3E9"/>
</g>
<path fill-rule="evenodd" clip-rule="evenodd" d="M174.183 154.676C179.378 154.676 183.591 150.464 183.591 145.27C183.591 140.076 179.378 135.865 174.183 135.865C168.987 135.865 164.774 140.076 164.774 145.27C164.774 150.464 168.987 154.676 174.183 154.676Z" fill="#AFB9C5"/>
<path d="M257.29 168H160.854C159.122 168 157.718 169.404 157.718 171.135V197.784C157.718 199.515 159.122 200.919 160.854 200.919H257.29C259.022 200.919 260.426 199.515 260.426 197.784V171.135C260.426 169.404 259.022 168 257.29 168Z" fill="white"/>
<mask id="mask4_0_1" style="mask-type:luminance" maskUnits="userSpaceOnUse" x="188" y="177" width="58" height="15">
<path d="M245.529 177.876H188.295V191.043H245.529V177.876Z" fill="white"/>
</mask>
<g mask="url(#mask4_0_1)">
<path d="M243.177 177.876H190.647C189.348 177.876 188.295 178.928 188.295 180.227V180.462C188.295 181.761 189.348 182.814 190.647 182.814H243.177C244.476 182.814 245.529 181.761 245.529 180.462V180.227C245.529 178.928 244.476 177.876 243.177 177.876Z" fill="#DDE3E9"/>
<path d="M224.36 186.105H190.647C189.348 186.105 188.295 187.158 188.295 188.457V188.692C188.295 189.991 189.348 191.043 190.647 191.043H224.36C225.659 191.043 226.713 189.991 226.713 188.692V188.457C226.713 187.158 225.659 186.105 224.36 186.105Z" fill="#DDE3E9"/>
</g>
<path fill-rule="evenodd" clip-rule="evenodd" d="M174.183 193.865C179.378 193.865 183.591 189.654 183.591 184.459C183.591 179.265 179.378 175.054 174.183 175.054C168.987 175.054 164.774 179.265 164.774 184.459C164.774 189.654 168.987 193.865 174.183 193.865Z" fill="#C5CFD6"/>
<path fill-rule="evenodd" clip-rule="evenodd" d="M170.372 210.324C169.333 210.324 168.298 210.346 167.26 210.399C166.469 210.44 165.261 210.277 164.592 210.77C163.897 211.281 163.945 212.328 164.054 213.068C164.628 216.981 166.029 220.45 168.96 223.222C173.474 227.49 178.648 229.659 184.77 230.624C189.071 231.303 193.042 230.361 196.208 227.303C198.521 231.595 200.276 236.345 201.156 241.139C201.591 243.504 201.723 245.842 201.647 248.25C201.598 249.793 201.513 251.332 201.348 252.867C201.276 253.534 200.935 254.544 201.196 255.175C201.503 255.915 202.537 255.987 203.001 255.355C203.388 254.83 203.317 253.798 203.396 253.176C203.528 252.143 203.65 251.109 203.737 250.072C203.878 248.392 203.983 246.708 203.976 245.021C203.958 241.233 203.115 237.43 201.962 233.834C199.751 226.934 196.164 220.803 190.585 215.992C187.154 213.034 183.228 211.836 178.774 211.193C176 210.792 173.181 210.324 170.372 210.324Z" fill="#89C5CC"/>
<path fill-rule="evenodd" clip-rule="evenodd" d="M186.391 237.757C175.18 237.757 167.63 246.789 164.06 256.177C162.714 259.715 162.399 263.601 161.88 267.316C161.713 268.509 161.775 270.326 161.291 271.388C161.115 271.774 160.712 271.912 160.905 272.437C161.022 272.754 161.25 272.949 161.594 273.012C162.299 273.142 163.296 272.374 163.901 272.072C168.916 269.557 172.21 265.67 174.898 260.914C176.565 257.966 178.255 254.905 179.244 251.669C179.849 249.691 180.201 247.61 180.408 245.559C180.489 244.75 180.568 243.924 180.563 243.112C180.558 242.305 180.183 241.879 179.913 241.177C183.654 239.762 187.876 239.376 191.666 240.842C195.17 242.199 198.081 244.821 199.711 248.115C200.135 248.971 200.462 249.874 200.699 250.796C200.855 251.399 200.862 252.181 201.152 252.727C201.851 254.05 203.323 253.166 203.182 251.935C202.788 248.501 200.823 245.053 198.311 242.666C195.143 239.654 190.85 237.757 186.391 237.757Z" fill="#89C5CC"/>
<path d="M316.876 39.4595H204.76C201.296 39.4595 198.487 42.2668 198.487 45.7297V269.892C198.487 273.355 201.296 276.162 204.76 276.162H316.876C320.34 276.162 323.148 273.355 323.148 269.892V45.7297C323.148 42.2668 320.34 39.4595 316.876 39.4595Z" fill="#DDE3E9"/>
<path fill-rule="evenodd" clip-rule="evenodd" d="M260.426 261.27C266.921 261.27 272.186 256.006 272.186 249.514C272.186 243.021 266.921 237.757 260.426 237.757C253.931 237.757 248.665 243.021 248.665 249.514C248.665 256.006 253.931 261.27 260.426 261.27Z" fill="white"/>
<path fill-rule="evenodd" clip-rule="evenodd" d="M250.233 55.1351C251.1 55.1351 251.801 54.4336 251.801 53.5676C251.801 52.7015 251.1 52 250.233 52C249.367 52 248.665 52.7015 248.665 53.5676C248.665 54.4336 249.367 55.1351 250.233 55.1351Z" fill="white"/>
<path d="M270.618 52H257.29C256.424 52 255.722 52.7018 255.722 53.5676C255.722 54.4333 256.424 55.1351 257.29 55.1351H270.618C271.484 55.1351 272.186 54.4333 272.186 53.5676C272.186 52.7018 271.484 52 270.618 52Z" fill="white"/>
<path d="M309.035 61.4054H212.6C210.868 61.4054 209.464 62.809 209.464 64.5405V100.595C209.464 102.326 210.868 103.73 212.6 103.73H309.035C310.767 103.73 312.172 102.326 312.172 100.595V64.5405C312.172 62.809 310.767 61.4054 309.035 61.4054Z" fill="white"/>
<mask id="mask5_0_1" style="mask-type:luminance" maskUnits="userSpaceOnUse" x="216" y="74" width="58" height="18">
<path d="M273.754 74.1027H216.52V91.0324H273.754V74.1027Z" fill="white"/>
</mask>
<g mask="url(#mask5_0_1)">
<path d="M271.402 74.1027H218.872C217.573 74.1027 216.52 75.1554 216.52 76.454V78.1C216.52 79.3986 217.573 80.4513 218.872 80.4513H271.402C272.701 80.4513 273.754 79.3986 273.754 78.1V76.454C273.754 75.1554 272.701 74.1027 271.402 74.1027Z" fill="#DDE3E9"/>
<path d="M252.585 84.6837H218.872C217.573 84.6837 216.52 85.7365 216.52 87.0351V88.681C216.52 89.9796 217.573 91.0323 218.872 91.0323H252.585C253.885 91.0323 254.938 89.9796 254.938 88.681V87.0351C254.938 85.7365 253.885 84.6837 252.585 84.6837Z" fill="#DDE3E9"/>
</g>
<path fill-rule="evenodd" clip-rule="evenodd" d="M301.195 88.054C304.226 88.054 306.683 85.5976 306.683 82.5675C306.683 79.5374 304.226 77.0811 301.195 77.0811C298.164 77.0811 295.707 79.5374 295.707 82.5675C295.707 85.5976 298.164 88.054 301.195 88.054Z" fill="#DDE3E9"/>
<path fill-rule="evenodd" clip-rule="evenodd" d="M301.195 84.9189C302.494 84.9189 303.547 83.8663 303.547 82.5675C303.547 81.2688 302.494 80.2162 301.195 80.2162C299.896 80.2162 298.843 81.2688 298.843 82.5675C298.843 83.8663 299.896 84.9189 301.195 84.9189Z" fill="#F2F2F2"/>
<path d="M309.035 110H212.6C210.868 110 209.464 111.404 209.464 113.135V139.784C209.464 141.515 210.868 142.919 212.6 142.919H309.035C310.767 142.919 312.172 141.515 312.172 139.784V113.135C312.172 111.404 310.767 110 309.035 110Z" fill="white"/>
<mask id="mask6_0_1" style="mask-type:luminance" maskUnits="userSpaceOnUse" x="240" y="119" width="58" height="15">
<path d="M297.275 119.876H240.041V133.043H297.275V119.876Z" fill="white"/>
</mask>
<g mask="url(#mask6_0_1)">
<path d="M294.923 119.876H242.393C241.094 119.876 240.041 120.928 240.041 122.227V122.462C240.041 123.761 241.094 124.814 242.393 124.814H294.923C296.222 124.814 297.275 123.761 297.275 122.462V122.227C297.275 120.928 296.222 119.876 294.923 119.876Z" fill="#DDE3E9"/>
<path d="M276.106 128.105H242.393C241.094 128.105 240.041 129.158 240.041 130.457V130.692C240.041 131.991 241.094 133.043 242.393 133.043H276.106C277.405 133.043 278.458 131.991 278.458 130.692V130.457C278.458 129.158 277.405 128.105 276.106 128.105Z" fill="#DDE3E9"/>
</g>
<path fill-rule="evenodd" clip-rule="evenodd" d="M225.929 135.865C231.124 135.865 235.337 131.654 235.337 126.459C235.337 121.265 231.124 117.054 225.929 117.054C220.733 117.054 216.52 121.265 216.52 126.459C216.52 131.654 220.733 135.865 225.929 135.865Z" fill="#C5CFD6"/>
<path d="M309.035 149.189H212.6C210.868 149.189 209.464 150.593 209.464 152.324V178.973C209.464 180.704 210.868 182.108 212.6 182.108H309.035C310.767 182.108 312.172 180.704 312.172 178.973V152.324C312.172 150.593 310.767 149.189 309.035 149.189Z" fill="white"/>
<mask id="mask7_0_1" style="mask-type:luminance" maskUnits="userSpaceOnUse" x="216" y="159" width="58" height="14">
<path d="M273.754 159.065H216.52V172.233H273.754V159.065Z" fill="white"/>
</mask>
<g mask="url(#mask7_0_1)">
<path d="M271.402 159.065H218.872C217.573 159.065 216.52 160.118 216.52 161.416V161.651C216.52 162.95 217.573 164.003 218.872 164.003H271.402C272.701 164.003 273.754 162.95 273.754 161.651V161.416C273.754 160.118 272.701 159.065 271.402 159.065Z" fill="#DDE3E9"/>
<path d="M252.585 167.295H218.872C217.573 167.295 216.52 168.347 216.52 169.646V169.881C216.52 171.18 217.573 172.233 218.872 172.233H252.585C253.885 172.233 254.938 171.18 254.938 169.881V169.646C254.938 168.347 253.885 167.295 252.585 167.295Z" fill="#AFB9C5"/>
</g>
<path fill-rule="evenodd" clip-rule="evenodd" d="M301.195 171.135C304.226 171.135 306.683 168.679 306.683 165.649C306.683 162.619 304.226 160.162 301.195 160.162C298.164 160.162 295.707 162.619 295.707 165.649C295.707 168.679 298.164 171.135 301.195 171.135Z" fill="#DDE3E9"/>
<path fill-rule="evenodd" clip-rule="evenodd" d="M301.195 168C302.494 168 303.547 166.947 303.547 165.649C303.547 164.35 302.494 163.297 301.195 163.297C299.896 163.297 298.843 164.35 298.843 165.649C298.843 166.947 299.896 168 301.195 168Z" fill="#F2F2F2"/>
<path d="M309.035 188.378H212.6C210.868 188.378 209.464 189.782 209.464 191.514V218.162C209.464 219.894 210.868 221.297 212.6 221.297H309.035C310.767 221.297 312.172 219.894 312.172 218.162V191.514C312.172 189.782 310.767 188.378 309.035 188.378Z" fill="white"/>
<mask id="mask8_0_1" style="mask-type:luminance" maskUnits="userSpaceOnUse" x="240" y="198" width="58" height="14">
<path d="M297.275 198.254H240.041V211.422H297.275V198.254Z" fill="white"/>
</mask>
<g mask="url(#mask8_0_1)">
<path d="M294.923 198.254H242.393C241.094 198.254 240.041 199.307 240.041 200.606V200.841C240.041 202.139 241.094 203.192 242.393 203.192H294.923C296.222 203.192 297.275 202.139 297.275 200.841V200.606C297.275 199.307 296.222 198.254 294.923 198.254Z" fill="#DDE3E9"/>
<path d="M276.106 206.484H242.393C241.094 206.484 240.041 207.537 240.041 208.835V209.07C240.041 210.369 241.094 211.422 242.393 211.422H276.106C277.405 211.422 278.458 210.369 278.458 209.07V208.835C278.458 207.537 277.405 206.484 276.106 206.484Z" fill="#DDE3E9"/>
</g>
<path fill-rule="evenodd" clip-rule="evenodd" d="M225.929 214.243C231.124 214.243 235.337 210.032 235.337 204.838C235.337 199.644 231.124 195.432 225.929 195.432C220.733 195.432 216.52 199.644 216.52 204.838C216.52 210.032 220.733 214.243 225.929 214.243Z" fill="#C5CFD6"/>
<path d="M506.61 59.0541H256.506C253.042 59.0541 250.233 61.8614 250.233 65.3243V323.973C250.233 327.436 253.042 330.243 256.506 330.243H506.61C510.074 330.243 512.883 327.436 512.883 323.973V65.3243C512.883 61.8614 510.074 59.0541 506.61 59.0541Z" fill="#F2F2F2"/>
<path d="M494.066 92.7568H451.728C448.264 92.7568 445.456 95.5641 445.456 99.0271V149.973C445.456 153.436 448.264 156.243 451.728 156.243H494.066C497.53 156.243 500.338 153.436 500.338 149.973V99.0271C500.338 95.5641 497.53 92.7568 494.066 92.7568Z" fill="white"/>
<path fill-rule="evenodd" clip-rule="evenodd" d="M472.897 129.595C479.826 129.595 485.442 123.98 485.442 117.054C485.442 110.128 479.826 104.514 472.897 104.514C465.969 104.514 460.353 110.128 460.353 117.054C460.353 123.98 465.969 129.595 472.897 129.595Z" fill="#DDE3E9"/>
<path d="M490.146 132.73H455.649C454.35 132.73 453.297 133.782 453.297 135.081C453.297 136.38 454.35 137.432 455.649 137.432H490.146C491.445 137.432 492.498 136.38 492.498 135.081C492.498 133.782 491.445 132.73 490.146 132.73Z" fill="#DDE3E9"/>
<path d="M483.874 140.568H461.921C460.622 140.568 459.569 141.62 459.569 142.919C459.569 144.218 460.622 145.27 461.921 145.27H483.874C485.173 145.27 486.226 144.218 486.226 142.919C486.226 141.62 485.173 140.568 483.874 140.568Z" fill="#DDE3E9"/>
<path d="M250.233 65.3243C250.233 61.8616 253.042 59.0541 256.506 59.0541H506.61C510.074 59.0541 512.883 61.8616 512.883 65.3243V80.2162H250.233V65.3243Z" fill="#C5CFD6"/>
<path fill-rule="evenodd" clip-rule="evenodd" d="M260.426 73.1622C262.158 73.1622 263.562 71.7585 263.562 70.0271C263.562 68.2957 262.158 66.892 260.426 66.892C258.694 66.892 257.29 68.2957 257.29 70.0271C257.29 71.7585 258.694 73.1622 260.426 73.1622Z" fill="#F2F2F2"/>
<path fill-rule="evenodd" clip-rule="evenodd" d="M269.834 73.1622C271.566 73.1622 272.97 71.7585 272.97 70.0271C272.97 68.2957 271.566 66.892 269.834 66.892C268.102 66.892 266.698 68.2957 266.698 70.0271C266.698 71.7585 268.102 73.1622 269.834 73.1622Z" fill="#F2F2F2"/>
<path fill-rule="evenodd" clip-rule="evenodd" d="M279.242 73.1622C280.974 73.1622 282.378 71.7585 282.378 70.0271C282.378 68.2957 280.974 66.892 279.242 66.892C277.51 66.892 276.106 68.2957 276.106 70.0271C276.106 71.7585 277.51 73.1622 279.242 73.1622Z" fill="#F2F2F2"/>
<path d="M494.066 162.514H451.728C448.264 162.514 445.456 165.321 445.456 168.784V308.297C445.456 311.76 448.264 314.568 451.728 314.568H494.066C497.53 314.568 500.338 311.76 500.338 308.297V168.784C500.338 165.321 497.53 162.514 494.066 162.514Z" fill="white"/>
<path d="M483.09 176.622H462.705C460.973 176.622 459.569 178.025 459.569 179.757V193.865C459.569 195.596 460.973 197 462.705 197H483.09C484.822 197 486.226 195.596 486.226 193.865V179.757C486.226 178.025 484.822 176.622 483.09 176.622Z" fill="#DDE3E9"/>
<path d="M483.09 203.27H462.705C460.973 203.27 459.569 204.674 459.569 206.406V219.73C459.569 221.461 460.973 222.865 462.705 222.865H483.09C484.822 222.865 486.226 221.461 486.226 219.73V206.406C486.226 204.674 484.822 203.27 483.09 203.27Z" fill="#AFB9C5"/>
<path d="M483.09 229.135H462.705C460.973 229.135 459.569 230.539 459.569 232.27V245.595C459.569 247.326 460.973 248.73 462.705 248.73H483.09C484.822 248.73 486.226 247.326 486.226 245.595V232.27C486.226 230.539 484.822 229.135 483.09 229.135Z" fill="#DDE3E9"/>
<path d="M483.09 280.865H462.705C460.973 280.865 459.569 282.269 459.569 284V297.324C459.569 299.056 460.973 300.46 462.705 300.46H483.09C484.822 300.46 486.226 299.056 486.226 297.324V284C486.226 282.269 484.822 280.865 483.09 280.865Z" fill="#DDE3E9"/>
<path d="M483.09 255H462.705C460.973 255 459.569 256.404 459.569 258.135V271.46C459.569 273.191 460.973 274.595 462.705 274.595H483.09C484.822 274.595 486.226 273.191 486.226 271.46V258.135C486.226 256.404 484.822 255 483.09 255Z" fill="#C5CFD6"/>
<path d="M436.048 93.5405H265.914C264.182 93.5405 262.778 94.9442 262.778 96.6757V127.243C262.778 128.975 264.182 130.378 265.914 130.378H436.048C437.78 130.378 439.184 128.975 439.184 127.243V96.6757C439.184 94.9442 437.78 93.5405 436.048 93.5405Z" fill="white"/>
<mask id="mask9_0_1" style="mask-type:luminance" maskUnits="userSpaceOnUse" x="269" y="104" width="132" height="16">
<path d="M400.767 104.592H269.834V119.327H400.767V104.592Z" fill="white"/>
</mask>
<g mask="url(#mask9_0_1)">
<path d="M398.415 104.592H272.186C270.887 104.592 269.834 105.645 269.834 106.943V107.766C269.834 109.065 270.887 110.118 272.186 110.118H398.415C399.714 110.118 400.767 109.065 400.767 107.766V106.943C400.767 105.645 399.714 104.592 398.415 104.592Z" fill="#DDE3E9"/>
<path d="M355.368 113.801H272.186C270.887 113.801 269.834 114.854 269.834 116.153V116.976C269.834 118.274 270.887 119.327 272.186 119.327H355.368C356.667 119.327 357.72 118.274 357.72 116.976V116.153C357.72 114.854 356.667 113.801 355.368 113.801Z" fill="#DDE3E9"/>
</g>
<path fill-rule="evenodd" clip-rule="evenodd" d="M420.331 117.446C423.362 117.446 425.819 114.989 425.819 111.959C425.819 108.929 423.362 106.473 420.331 106.473C417.3 106.473 414.843 108.929 414.843 111.959C414.843 114.989 417.3 117.446 420.331 117.446Z" fill="#DDE3E9"/>
<path fill-rule="evenodd" clip-rule="evenodd" d="M420.331 114.311C421.63 114.311 422.683 113.258 422.683 111.959C422.683 110.661 421.63 109.608 420.331 109.608C419.032 109.608 417.979 110.661 417.979 111.959C417.979 113.258 419.032 114.311 420.331 114.311Z" fill="#F2F2F2"/>
<path d="M436.048 136.649H265.914C264.182 136.649 262.778 138.052 262.778 139.784V164.081C262.778 165.813 264.182 167.216 265.914 167.216H436.048C437.78 167.216 439.184 165.813 439.184 164.081V139.784C439.184 138.052 437.78 136.649 436.048 136.649Z" fill="white"/>
<mask id="mask10_0_1" style="mask-type:luminance" maskUnits="userSpaceOnUse" x="269" y="145" width="132" height="14">
<path d="M400.767 145.819H269.834V158.046H400.767V145.819Z" fill="white"/>
</mask>
<g mask="url(#mask10_0_1)">
<path d="M398.473 145.819H272.127C270.861 145.819 269.834 146.845 269.834 148.112C269.834 149.378 270.861 150.404 272.127 150.404H398.473C399.74 150.404 400.767 149.378 400.767 148.112C400.767 146.845 399.74 145.819 398.473 145.819Z" fill="#DDE3E9"/>
<path d="M355.427 153.461H272.127C270.861 153.461 269.834 154.487 269.834 155.753C269.834 157.02 270.861 158.046 272.127 158.046H355.427C356.694 158.046 357.72 157.02 357.72 155.753C357.72 154.487 356.694 153.461 355.427 153.461Z" fill="#DDE3E9"/>
</g>
<path fill-rule="evenodd" clip-rule="evenodd" d="M420.331 157.419C423.362 157.419 425.819 154.963 425.819 151.932C425.819 148.902 423.362 146.446 420.331 146.446C417.3 146.446 414.843 148.902 414.843 151.932C414.843 154.963 417.3 157.419 420.331 157.419Z" fill="#DDE3E9"/>
<path fill-rule="evenodd" clip-rule="evenodd" d="M420.331 154.284C421.63 154.284 422.683 153.231 422.683 151.932C422.683 150.634 421.63 149.581 420.331 149.581C419.032 149.581 417.979 150.634 417.979 151.932C417.979 153.231 419.032 154.284 420.331 154.284Z" fill="#F2F2F2"/>
<path d="M436.048 173.486H265.914C264.182 173.486 262.778 174.89 262.778 176.622V200.919C262.778 202.65 264.182 204.054 265.914 204.054H436.048C437.78 204.054 439.184 202.65 439.184 200.919V176.622C439.184 174.89 437.78 173.486 436.048 173.486Z" fill="white"/>
<mask id="mask11_0_1" style="mask-type:luminance" maskUnits="userSpaceOnUse" x="269" y="182" width="132" height="13">
<path d="M400.767 182.657H269.834V194.884H400.767V182.657Z" fill="white"/>
</mask>
<g mask="url(#mask11_0_1)">
<path d="M398.473 182.657H272.127C270.861 182.657 269.834 183.683 269.834 184.949C269.834 186.215 270.861 187.242 272.127 187.242H398.473C399.74 187.242 400.767 186.215 400.767 184.949C400.767 183.683 399.74 182.657 398.473 182.657Z" fill="#DDE3E9"/>
<path d="M355.427 190.299H272.127C270.861 190.299 269.834 191.325 269.834 192.591C269.834 193.857 270.861 194.884 272.127 194.884H355.427C356.694 194.884 357.72 193.857 357.72 192.591C357.72 191.325 356.694 190.299 355.427 190.299Z" fill="#DDE3E9"/>
</g>
<path fill-rule="evenodd" clip-rule="evenodd" d="M420.331 194.257C423.362 194.257 425.819 191.8 425.819 188.77C425.819 185.74 423.362 183.284 420.331 183.284C417.3 183.284 414.843 185.74 414.843 188.77C414.843 191.8 417.3 194.257 420.331 194.257Z" fill="#DDE3E9"/>
<path fill-rule="evenodd" clip-rule="evenodd" d="M420.331 191.122C421.63 191.122 422.683 190.069 422.683 188.77C422.683 187.471 421.63 186.419 420.331 186.419C419.032 186.419 417.979 187.471 417.979 188.77C417.979 190.069 419.032 191.122 420.331 191.122Z" fill="#AFB9C5"/>
<path d="M436.048 284H265.914C264.182 284 262.778 285.404 262.778 287.135V311.432C262.778 313.164 264.182 314.568 265.914 314.568H436.048C437.78 314.568 439.184 313.164 439.184 311.432V287.135C439.184 285.404 437.78 284 436.048 284Z" fill="white"/>
<mask id="mask12_0_1" style="mask-type:luminance" maskUnits="userSpaceOnUse" x="269" y="293" width="132" height="13">
<path d="M400.767 293.17H269.834V305.397H400.767V293.17Z" fill="white"/>
</mask>
<g mask="url(#mask12_0_1)">
<path d="M398.473 293.17H272.127C270.861 293.17 269.834 294.197 269.834 295.463C269.834 296.729 270.861 297.755 272.127 297.755H398.473C399.74 297.755 400.767 296.729 400.767 295.463C400.767 294.197 399.74 293.17 398.473 293.17Z" fill="#DDE3E9"/>
<path d="M355.427 300.812H272.127C270.861 300.812 269.834 301.839 269.834 303.105C269.834 304.371 270.861 305.397 272.127 305.397H355.427C356.694 305.397 357.72 304.371 357.72 303.105C357.72 301.839 356.694 300.812 355.427 300.812Z" fill="#DDE3E9"/>
</g>
<path fill-rule="evenodd" clip-rule="evenodd" d="M420.331 304.77C423.362 304.77 425.819 302.314 425.819 299.284C425.819 296.254 423.362 293.797 420.331 293.797C417.3 293.797 414.843 296.254 414.843 299.284C414.843 302.314 417.3 304.77 420.331 304.77Z" fill="#DDE3E9"/>
<path fill-rule="evenodd" clip-rule="evenodd" d="M420.331 301.635C421.63 301.635 422.683 300.582 422.683 299.284C422.683 297.985 421.63 296.932 420.331 296.932C419.032 296.932 417.979 297.985 417.979 299.284C417.979 300.582 419.032 301.635 420.331 301.635Z" fill="#F2F2F2"/>
<path d="M436.048 247.162H265.914C264.182 247.162 262.778 248.566 262.778 250.297V274.595C262.778 276.326 264.182 277.73 265.914 277.73H436.048C437.78 277.73 439.184 276.326 439.184 274.595V250.297C439.184 248.566 437.78 247.162 436.048 247.162Z" fill="white"/>
<mask id="mask13_0_1" style="mask-type:luminance" maskUnits="userSpaceOnUse" x="269" y="256" width="132" height="13">
<path d="M400.767 256.332H269.834V268.559H400.767V256.332Z" fill="white"/>
</mask>
<g mask="url(#mask13_0_1)">
<path d="M398.473 256.332H272.127C270.861 256.332 269.834 257.359 269.834 258.625C269.834 259.891 270.861 260.918 272.127 260.918H398.473C399.74 260.918 400.767 259.891 400.767 258.625C400.767 257.359 399.74 256.332 398.473 256.332Z" fill="#DDE3E9"/>
<path d="M355.427 263.974H272.127C270.861 263.974 269.834 265.001 269.834 266.267C269.834 267.533 270.861 268.559 272.127 268.559H355.427C356.694 268.559 357.72 267.533 357.72 266.267C357.72 265.001 356.694 263.974 355.427 263.974Z" fill="#DDE3E9"/>
</g>
<path fill-rule="evenodd" clip-rule="evenodd" d="M420.331 267.932C423.362 267.932 425.819 265.476 425.819 262.446C425.819 259.416 423.362 256.959 420.331 256.959C417.3 256.959 414.843 259.416 414.843 262.446C414.843 265.476 417.3 267.932 420.331 267.932Z" fill="#DDE3E9"/>
<path fill-rule="evenodd" clip-rule="evenodd" d="M420.331 264.797C421.63 264.797 422.683 263.745 422.683 262.446C422.683 261.147 421.63 260.094 420.331 260.094C419.032 260.094 417.979 261.147 417.979 262.446C417.979 263.745 419.032 264.797 420.331 264.797Z" fill="#F2F2F2"/>
<path d="M436.048 210.324H265.914C264.182 210.324 262.778 211.728 262.778 213.459V237.757C262.778 239.488 264.182 240.892 265.914 240.892H436.048C437.78 240.892 439.184 239.488 439.184 237.757V213.459C439.184 211.728 437.78 210.324 436.048 210.324Z" fill="white"/>
<mask id="mask14_0_1" style="mask-type:luminance" maskUnits="userSpaceOnUse" x="269" y="219" width="132" height="13">
<path d="M400.767 219.495H269.834V231.722H400.767V219.495Z" fill="white"/>
</mask>
<g mask="url(#mask14_0_1)">
<path d="M398.473 219.495H272.127C270.861 219.495 269.834 220.521 269.834 221.787C269.834 223.053 270.861 224.08 272.127 224.08H398.473C399.74 224.08 400.767 223.053 400.767 221.787C400.767 220.521 399.74 219.495 398.473 219.495Z" fill="#DDE3E9"/>
<path d="M355.427 227.136H272.127C270.861 227.136 269.834 228.163 269.834 229.429C269.834 230.695 270.861 231.722 272.127 231.722H355.427C356.694 231.722 357.72 230.695 357.72 229.429C357.72 228.163 356.694 227.136 355.427 227.136Z" fill="#DDE3E9"/>
</g>
<path fill-rule="evenodd" clip-rule="evenodd" d="M420.331 231.095C423.362 231.095 425.819 228.638 425.819 225.608C425.819 222.578 423.362 220.122 420.331 220.122C417.3 220.122 414.843 222.578 414.843 225.608C414.843 228.638 417.3 231.095 420.331 231.095Z" fill="#DDE3E9"/>
<path fill-rule="evenodd" clip-rule="evenodd" d="M420.331 227.959C421.63 227.959 422.683 226.907 422.683 225.608C422.683 224.309 421.63 223.257 420.331 223.257C419.032 223.257 417.979 224.309 417.979 225.608C417.979 226.907 419.032 227.959 420.331 227.959Z" fill="#F2F2F2"/>
<path fill-rule="evenodd" clip-rule="evenodd" d="M577.949 192.592C574.852 190.495 570.744 189.946 567.043 189.946C552.586 189.946 538.999 195.307 527.262 203.295C520.831 207.672 515.078 213.246 509.999 219.049C507.067 222.4 504.453 226.023 502.602 230.054C501.353 232.775 500.496 235.61 499.915 238.533C499.207 242.097 498.644 245.732 498.39 249.354C498.289 250.781 497.461 258.35 499.833 258.478C499.819 258.665 499.816 258.843 499.831 259.002C494.679 267.055 491.497 276.491 488.545 285.438C485.977 293.224 483.689 301.075 482.204 309.13C480.247 319.734 478.963 330.499 478.352 341.255C478.222 343.567 478.131 345.88 478.054 348.194C477.988 350.169 477.921 352.143 477.856 354.118C477.784 356.331 477.394 358.878 477.746 361.077C478.053 362.993 479.711 362.703 479.785 360.797C479.873 358.495 479.859 356.188 479.96 353.885C480.094 350.827 480.232 347.769 480.382 344.713C481.423 323.478 485.332 302.556 492.546 282.498C495.465 274.381 498.81 266.698 503.11 259.189C506.889 252.587 511.437 246.196 516.085 240.244C520.601 234.459 525.298 228.808 530.833 223.907C535.325 219.93 540.266 216.465 545.341 213.242C551.794 209.147 558.231 205.152 565.224 202.009C568.854 200.376 572.555 198.913 576.216 197.345C576.875 197.063 577.581 196.79 578.216 196.463C580.325 195.374 579.627 193.733 577.949 192.592Z" fill="#C1DEE2"/>
<path fill-rule="evenodd" clip-rule="evenodd" d="M519.796 266.757C525.658 266.757 530.875 267.519 536.277 269.847C540.939 271.858 545.185 274.519 549.316 277.415C555.118 281.49 559.689 286.232 562.888 292.516C564.801 296.269 566.204 301.581 564.919 305.676C563.405 310.497 559.25 314.52 553.785 313.67C550.406 313.145 547.302 310.907 544.734 308.801C541.659 306.281 539.198 303.252 537.166 299.887C533.851 294.398 531.903 288.194 529.087 282.458C527.751 279.736 526.46 276.995 524.859 274.408C524.067 273.127 523.223 271.858 522.021 270.906C521.378 270.397 518.667 269.516 519.704 268.372C504.501 268.571 491.033 280.243 488.114 294.692C487.843 296.038 487.631 297.396 487.406 298.751C487.265 299.606 487.322 302.761 486.557 303.308C484.869 304.513 485.578 300.851 485.651 300.323C485.838 298.96 486.038 297.599 486.247 296.239C487.387 288.845 490.68 281.971 496.171 276.697C502.45 270.668 510.923 266.757 519.796 266.757Z" fill="#89C5CC"/>
<path fill-rule="evenodd" clip-rule="evenodd" d="M20.4646 292.415C35.0993 316.96 52.1448 340.726 62.3811 367.562C61.9687 364.398 61.5312 361.238 61.0412 358.083C58.4445 341.357 55.2159 324.752 51.8242 308.168C50.0969 299.724 48.2694 291.31 46.3955 282.898C45.3881 278.379 44.3923 273.859 43.3637 269.345C43.1144 268.251 42.9004 266.341 42.5891 264.405C52.5368 297.04 62.1302 329.699 69.1473 363.117C70.0677 367.503 70.8517 371.881 71.4938 376.251C71.7134 375.254 71.9298 374.257 72.1658 373.263C75.0055 361.344 79.2644 349.52 84.3354 338.374C86.7597 333.045 89.5437 327.832 92.8225 322.974C94.8673 319.947 99.6891 316.348 101.553 313.246C91.3541 331.949 87.6707 355.349 81.7811 375.682C80.3439 380.644 78.8974 385.597 77.4799 390.559C86.3614 372.753 100.141 358.123 119.301 351.784C96.1092 367.102 82.1989 393.929 72.8251 421.366C72.7945 421.691 72.7577 422.016 72.7256 422.343C75.4845 417.109 78.9586 412.375 83.6674 409.061C93.7469 401.963 104.927 404.03 114.704 410.119C107.031 405.243 93.1636 409.683 86.7071 414.639C82.0853 418.186 78.1353 422.945 74.7052 427.589C73.8836 428.702 72.7616 430.001 71.577 431.386C69.9164 442.164 67.2099 452.868 63.3776 463.486C64.0103 460.438 63.5532 455.564 63.7288 453.292C63.7476 453.046 63.7633 452.8 63.7821 452.555C63.1996 454.88 62.6367 457.178 62.0949 459.44C63.1722 455.124 63.7571 450.619 64.2142 446.068C64.3318 444.112 64.447 442.156 64.5677 440.2C64.5293 436.487 64.3764 432.761 64.1177 429.028C63.2012 425.401 62.1741 421.979 61.3266 419.133C58.2712 408.865 53.7905 399.028 48.2764 389.851C43.2453 381.476 37.2224 373.891 30.2705 367.03C26.522 363.332 22.5995 359.811 18.7327 356.241C17.334 354.95 14.8345 351.777 12.6729 350.122C28.4162 358.8 44.6213 368.186 56.1065 382.167C54.7596 376.998 53.2973 371.902 51.7505 366.909C43.9016 341.572 33.9914 315.315 20.4646 292.415Z" fill="#DDE3E9"/>
<path fill-rule="evenodd" clip-rule="evenodd" d="M36.1938 431.351C36.1938 459.488 38.4228 482.297 68.3389 482.297C98.2551 482.297 100.484 459.488 100.484 431.351" fill="#C5CFD6"/>
<path d="M450.945 27.7027C450.945 26.4041 449.891 25.3513 448.592 25.3513C447.293 25.3513 446.24 26.4041 446.24 27.7027V42.5946C446.24 43.8932 447.293 44.9459 448.592 44.9459C449.891 44.9459 450.945 43.8932 450.945 42.5946V27.7027Z" fill="#DDE3E9"/>
<path d="M461.921 15.1621C461.921 13.8635 460.868 12.8108 459.569 12.8108C458.27 12.8108 457.217 13.8635 457.217 15.1621V42.5946C457.217 43.8932 458.27 44.9459 459.569 44.9459C460.868 44.9459 461.921 43.8932 461.921 42.5946V15.1621Z" fill="#DDE3E9"/>
<path d="M472.897 8.89188C472.897 7.59326 471.844 6.54053 470.545 6.54053C469.246 6.54053 468.193 7.59326 468.193 8.89188V42.5946C468.193 43.8932 469.246 44.9459 470.545 44.9459C471.844 44.9459 472.897 43.8932 472.897 42.5946V8.89188Z" fill="#DDE3E9"/>
<path d="M483.874 15.1621C483.874 13.8635 482.821 12.8108 481.522 12.8108C480.223 12.8108 479.169 13.8635 479.169 15.1621V42.5946C479.169 43.8932 480.223 44.9459 481.522 44.9459C482.821 44.9459 483.874 43.8932 483.874 42.5946V15.1621Z" fill="#DDE3E9"/>
<path d="M494.85 2.62161C494.85 1.323 493.797 0.270264 492.498 0.270264C491.199 0.270264 490.146 1.323 490.146 2.62161V42.5946C490.146 43.8932 491.199 44.9459 492.498 44.9459C493.797 44.9459 494.85 43.8932 494.85 42.5946V2.62161Z" fill="#C5CFD6"/>
<path fill-rule="evenodd" clip-rule="evenodd" d="M60.4986 240.309C60.4986 231.578 67.5564 224.432 76.1792 224.432V240.309L65.4631 251.865C62.4148 249.039 60.4986 244.895 60.4986 240.309Z" fill="#F2F2F2"/>
<path fill-rule="evenodd" clip-rule="evenodd" d="M75.7644 240.108H91.5994C91.5994 244.2 89.9295 248.034 87.2896 250.821C84.3864 253.868 80.2522 255.784 75.7644 255.784C71.6303 255.784 67.8465 254.131 64.9425 251.518L75.7644 240.108Z" fill="#AFB9C5"/>
<path fill-rule="evenodd" clip-rule="evenodd" d="M91.8597 240.108C91.8597 231.488 84.8019 224.432 76.1792 224.432V240.108H91.8597ZM68.3389 224.432L74.6111 238.54L60.4986 232.27C61.8942 228.613 65.028 225.828 68.3389 224.432Z" fill="#C5CFD6"/>
<path fill-rule="evenodd" clip-rule="evenodd" d="M570.72 247.302C569.207 248.901 567.075 249.905 564.707 249.905C560.144 249.905 556.443 246.221 556.443 241.676C556.443 237.13 560.144 233.446 564.707 233.446V218.162C551.731 218.162 541.108 228.746 541.108 241.676C541.108 254.606 551.731 265.189 564.707 265.189C571.52 265.189 577.675 262.316 581.877 257.745L570.72 247.302Z" fill="#F2F2F2"/>
<path fill-rule="evenodd" clip-rule="evenodd" d="M564.629 218.162V233.446C569.176 233.446 572.861 237.13 572.861 241.676H588.149C588.149 228.746 577.565 218.162 564.629 218.162Z" fill="#AFB9C5"/>
<path fill-rule="evenodd" clip-rule="evenodd" d="M572.547 241.676C572.547 244.346 571.285 246.719 569.333 248.252L578.945 260.486C584.543 256.107 588.149 249.317 588.149 241.676H572.547Z" fill="#C5CFD6"/>
<path fill-rule="evenodd" clip-rule="evenodd" d="M421.191 31.2328C420.033 32.4587 418.391 33.2283 416.565 33.2283C413.056 33.2283 410.213 30.4036 410.213 26.9189C410.213 23.4342 413.056 20.6094 416.565 20.6094V8.89185C406.584 8.89185 398.415 17.0056 398.415 26.9189C398.415 36.8322 406.584 44.9459 416.565 44.9459C421.808 44.9459 426.546 42.7427 429.776 39.2384L421.191 31.2328Z" fill="#F2F2F2"/>
<path fill-rule="evenodd" clip-rule="evenodd" d="M416.447 8.89185V20.6094C419.933 20.6094 422.759 23.4342 422.759 26.9189H434.48C434.48 17.0056 426.364 8.89185 416.447 8.89185Z" fill="#AFB9C5"/>
<path fill-rule="evenodd" clip-rule="evenodd" d="M422.777 26.9188C422.777 28.9214 421.833 30.7021 420.367 31.8512L427.577 41.0269C431.775 37.7421 434.48 32.6499 434.48 26.9188H422.777Z" fill="#C5CFD6"/>
<path fill-rule="evenodd" clip-rule="evenodd" d="M135.771 44.935C135.768 44.9428 135.765 44.9507 135.76 44.9601C135.765 44.9523 135.771 44.9209 135.771 44.935Z" fill="#C5CFD6"/>
<path fill-rule="evenodd" clip-rule="evenodd" d="M135.764 44.9471C135.764 44.9487 135.762 44.9519 135.762 44.9552C135.762 44.9471 135.777 44.9227 135.764 44.9471Z" fill="#C5CFD6"/>
<path fill-rule="evenodd" clip-rule="evenodd" d="M135.818 44.8143C135.807 44.8457 135.793 44.8756 135.78 44.9069C135.787 44.8912 135.793 44.8787 135.799 44.863C135.636 45.2711 135.739 45.0058 135.818 44.8143Z" fill="#C5CFD6"/>
<path fill-rule="evenodd" clip-rule="evenodd" d="M135.783 44.9092C135.777 44.9234 135.77 44.9393 135.764 44.9536C135.718 45.0424 135.783 44.9092 135.783 44.9092Z" fill="#C5CFD6"/>
<path fill-rule="evenodd" clip-rule="evenodd" d="M135.757 44.9586C135.748 44.9774 135.801 44.8864 135.757 44.9586V44.9586Z" fill="#C5CFD6"/>
<path fill-rule="evenodd" clip-rule="evenodd" d="M135.764 44.9485L135.768 44.9445C135.766 44.9465 135.766 44.9485 135.764 44.9485Z" fill="#C5CFD6"/>
<path d="M169.478 4.18921H101.268C99.536 4.18921 98.132 5.59286 98.132 7.32434V50.4325C98.132 52.1639 99.536 53.5676 101.268 53.5676H169.478C171.211 53.5676 172.615 52.1639 172.615 50.4325V7.32434C172.615 5.59286 171.211 4.18921 169.478 4.18921Z" fill="#DDE3E9"/>
<path fill-rule="evenodd" clip-rule="evenodd" d="M126.357 18.2974L104.404 53.5676H148.31L126.357 18.2974Z" fill="#AFB9C5"/>
<path fill-rule="evenodd" clip-rule="evenodd" d="M147.918 27.7028L128.709 53.5676H167.126L147.918 27.7028Z" fill="#C5CFD6"/>
<path fill-rule="evenodd" clip-rule="evenodd" d="M156.15 27.7027C160.047 27.7027 163.206 24.5448 163.206 20.6487C163.206 16.7525 160.047 13.5946 156.15 13.5946C152.253 13.5946 149.094 16.7525 149.094 20.6487C149.094 24.5448 152.253 27.7027 156.15 27.7027Z" fill="white"/>
<path fill-rule="evenodd" clip-rule="evenodd" d="M509.741 379.611C509.744 379.618 509.747 379.626 509.752 379.636C509.747 379.628 509.741 379.597 509.741 379.611Z" fill="#C5CFD6"/>
<path fill-rule="evenodd" clip-rule="evenodd" d="M509.748 379.623C509.748 379.624 509.75 379.628 509.75 379.631C509.75 379.623 509.735 379.598 509.748 379.623Z" fill="#C5CFD6"/>
<path fill-rule="evenodd" clip-rule="evenodd" d="M509.694 379.49C509.705 379.521 509.719 379.551 509.732 379.583C509.725 379.567 509.719 379.554 509.713 379.539C509.876 379.947 509.772 379.681 509.694 379.49Z" fill="#C5CFD6"/>
<path fill-rule="evenodd" clip-rule="evenodd" d="M509.729 379.585C509.736 379.599 509.742 379.615 509.748 379.629C509.794 379.718 509.729 379.585 509.729 379.585Z" fill="#C5CFD6"/>
<path fill-rule="evenodd" clip-rule="evenodd" d="M509.754 379.634C509.71 379.562 509.764 379.653 509.754 379.634V379.634Z" fill="#C5CFD6"/>
<path fill-rule="evenodd" clip-rule="evenodd" d="M509.749 379.624L509.745 379.62C509.747 379.622 509.747 379.624 509.749 379.624Z" fill="#C5CFD6"/>
<path d="M457.217 319.27H562.276C564.008 319.27 565.412 320.674 565.412 322.405V389.811C565.412 391.542 564.008 392.946 562.276 392.946H457.217C455.485 392.946 454.081 391.542 454.081 389.811V322.405C454.081 320.674 455.485 319.27 457.217 319.27Z" fill="#DDE3E9"/>
<path fill-rule="evenodd" clip-rule="evenodd" d="M524.074 340.432L556.263 392.946H491.886L524.074 340.432Z" fill="#AFB9C5"/>
<path fill-rule="evenodd" clip-rule="evenodd" d="M490.886 354.498L519.342 392.946H462.43L490.886 354.498Z" fill="#C5CFD6"/>
<path fill-rule="evenodd" clip-rule="evenodd" d="M478.777 354.541C472.932 354.541 468.193 349.803 468.193 343.959C468.193 338.116 472.932 333.378 478.777 333.378C484.623 333.378 489.362 338.116 489.362 343.959C489.362 349.803 484.623 354.541 478.777 354.541Z" fill="white"/>
<path fill-rule="evenodd" clip-rule="evenodd" d="M179.813 264.079C185.516 267.518 191.119 269.179 193.75 268.501C200.346 266.801 200.952 242.661 195.848 233.144C190.745 223.628 164.509 219.48 163.186 238.335C162.726 244.879 165.474 250.72 169.532 255.485L162.255 289.415H183.393L179.813 264.079Z" fill="#B28B67"/>
<path fill-rule="evenodd" clip-rule="evenodd" d="M153.97 232.059C153.288 231.382 152.915 230.416 152.593 229.499C152.259 228.546 151.934 227.583 151.712 226.591C151.268 224.61 151.263 222.33 152.677 220.792C153.81 219.558 155.51 219.004 157.08 218.884C158.126 218.804 159.2 218.95 160.202 219.28C161.196 219.607 162.054 220.259 163.017 220.663C163.054 218.527 163.42 216.293 164.503 214.47C165.545 212.715 167.207 211.73 169.099 211.47C171.041 211.203 172.96 211.658 174.698 212.598C175.133 212.833 175.565 213.08 175.977 213.36C176.323 213.594 176.682 213.876 177.087 213.971C177.54 214.076 177.763 213.815 178.057 213.485C178.402 213.099 178.79 212.758 179.2 212.456C181.016 211.121 183.399 210.572 185.502 211.372C186.471 211.741 187.415 212.367 188.072 213.23C188.658 214 189.076 215.22 189.885 215.755C190.229 215.983 190.471 215.682 190.784 215.459C191.253 215.124 191.701 214.754 192.176 214.429C192.843 213.971 193.566 213.63 194.34 213.45C195.473 213.188 197.039 213.249 197.362 214.734C197.484 215.291 197.391 215.888 197.351 216.45C197.298 217.221 197.242 217.992 197.174 218.763C197.124 219.347 197.06 219.912 196.949 220.487C196.89 220.793 196.706 221.363 196.837 221.67C197.002 222.054 197.758 221.836 198.081 221.849C198.72 221.875 199.362 221.987 199.952 222.26C200.41 222.472 200.891 222.783 201.084 223.308C201.203 223.63 201.172 223.961 201.116 224.293C201.048 224.691 201.126 224.902 201.176 225.304C202.034 224.882 205.006 223.943 205.38 225.48C205.505 225.992 205.221 226.571 205.004 227.002C204.625 227.76 204.128 228.452 203.619 229.113C202.558 230.49 201.292 231.679 199.929 232.694C201.526 233.404 201.943 235.499 200.56 236.747C199.95 237.298 199.129 237.421 198.359 237.385C198.077 237.372 197.671 237.264 197.449 237.313C197.33 237.339 197.203 237.44 197.037 237.452C195.95 237.526 194.724 237.265 193.662 237.023C191.77 236.594 189.978 235.696 188.515 234.33C188.139 233.98 187.829 233.778 187.325 233.783C186.882 233.788 186.447 233.909 186.005 233.92C184.834 233.95 183.779 233.378 182.692 232.997C182.627 234.466 182.208 236.083 181.607 237.404C181.118 238.482 180.096 238.639 179.091 238.733C175.877 239.035 172.652 238.697 169.435 238.702C172.55 239.407 175.768 239.697 178.855 240.525C180.25 240.9 179.185 241.841 178.588 242.493C177.606 243.567 176.875 244.898 176.369 246.299C174.845 244.312 172.152 243.003 169.766 243.614C167.13 244.288 165.274 247.854 166.959 250.419C167.938 251.907 169.705 252.482 171.176 253.121C170.029 254.314 169.751 256.076 169.061 257.561C168.72 258.293 168.242 259.12 167.481 259.376C167.199 259.47 166.868 259.479 166.646 259.708C166.371 259.993 166.306 260.311 165.954 260.556C164.55 261.531 162.359 261.456 161.114 260.182C159.99 259.03 160.283 257.208 161.222 256.04C159.727 255.416 157.002 254.614 157.597 252.284C154.357 252.069 146.49 246.812 150.838 242.971C148.452 241.621 146.259 238.323 147.792 235.416C148.973 233.178 151.718 232.178 153.97 232.059Z" fill="#191847"/>
<path fill-rule="evenodd" clip-rule="evenodd" d="M131.097 400.43H199.137L208.053 509.682H106.77L131.097 400.43Z" fill="#C5CFD6"/>
<path fill-rule="evenodd" clip-rule="evenodd" d="M131.097 400.43H152.024L164.549 509.682H106.77L131.097 400.43Z" fill="black" fill-opacity="0.1"/>
<path fill-rule="evenodd" clip-rule="evenodd" d="M236.521 422.075C228.875 438.297 216.927 477.675 216.927 477.675L227.07 482.311C227.07 482.311 252.806 440.917 268.534 412.621C267.801 418.99 267.055 426.162 266.363 433.701C264.725 451.561 266.362 490.146 267.244 501.292C267.798 508.297 277.313 506.83 278.2 501.274C278.351 500.333 278.964 497.029 279.879 492.1C284.364 467.931 296.104 404.675 296.125 389.186C296.133 382.954 283.962 377.355 276.708 381.713C271.725 376.393 262.294 373.328 256.876 382.114C253.432 387.7 245.249 403.558 236.521 422.075Z" fill="#B28B67"/>
<path fill-rule="evenodd" clip-rule="evenodd" d="M217.652 463.096L252.465 380.594C260.805 367.174 284.188 383.326 281.344 391.11C274.887 408.782 242.048 465.994 240.125 471.259L217.652 463.096Z" fill="#1F28CF"/>
<path fill-rule="evenodd" clip-rule="evenodd" d="M218.201 472.67C217.662 471.927 216.611 471.752 215.906 472.34C214.465 473.543 212.263 475.504 211.487 476.848C210.296 478.912 208.698 483.268 208.698 483.268C211.092 484.651 251.718 508.116 251.718 508.116C251.718 508.116 256.595 503.539 253.237 501.009C249.88 498.481 247.695 496.744 247.695 496.744L232.789 476.198C232.529 475.84 232.026 475.767 231.675 476.037L228.512 478.474C228.512 478.474 224.266 478.103 222.175 476.896C220.85 476.13 219.218 474.074 218.201 472.67Z" fill="#E4E4E4"/>
<path fill-rule="evenodd" clip-rule="evenodd" d="M267.266 495.75C266.427 495.376 265.429 495.75 265.113 496.612C264.466 498.375 263.538 501.175 263.538 502.727C263.538 505.11 264.332 509.682 264.332 509.682C267.095 509.682 314.006 509.682 314.006 509.682C314.006 509.682 315.943 503.279 311.771 502.767C307.599 502.257 304.84 501.846 304.84 501.846L281.661 491.508C281.257 491.328 280.785 491.517 280.617 491.925L279.095 495.619C279.095 495.619 275.233 497.422 272.818 497.422C271.288 497.422 268.848 496.457 267.266 495.75Z" fill="#E4E4E4"/>
<path fill-rule="evenodd" clip-rule="evenodd" d="M298.565 395.525C298.565 418.932 287.453 473.532 287.446 478.686L263.538 478.705C263.538 478.705 268.787 405.626 267.261 404.838C265.734 404.051 204.684 410.936 186.375 410.936C159.972 410.936 149.05 394.28 148.163 363.425H200.466C211.116 364.564 266.664 375.773 287.294 379.626C296.125 381.275 298.565 389.076 298.565 395.525Z" fill="#2B44FF"/>
<path fill-rule="evenodd" clip-rule="evenodd" d="M227.19 374.23C210.464 409.079 140.053 385.549 140.053 385.549C140.053 379.51 142.448 373.456 144.962 367.098C147.657 360.28 150.492 353.113 150.662 345.24C150.974 330.756 153.681 286.871 164.979 272.047C165.185 271.377 165.394 270.706 165.605 270.031L166.388 270.4C166.509 270.274 166.633 270.151 166.756 270.031L191.409 273.845C191.409 284.999 198.544 295.577 204.968 305.099C206.53 307.415 208.051 309.669 209.417 311.854C211.205 314.716 213.224 317.629 215.292 320.615C225.768 335.732 237.525 352.698 227.19 374.23Z" fill="#C1DEE2"/>
<path fill-rule="evenodd" clip-rule="evenodd" d="M195.602 367.643C197.25 359.131 198.32 353.449 198.811 350.596C211.944 365.443 219.531 372.952 221.572 373.124C225.411 373.449 228.247 370.043 229.055 371C230.39 374.965 226.619 384.889 219.412 386.332C215.971 387.022 210.645 379.922 208.451 377.407C207.589 376.417 203.305 373.162 195.602 367.643ZM218.288 322.264C221.692 322.264 223.521 323.671 225.534 326.512C227.547 329.353 229.452 342.751 226.22 342.751C222.988 342.751 209.447 337.572 209.447 334.09C209.447 330.608 218.686 329.133 218.686 326.512C218.686 323.891 214.883 322.264 218.288 322.264Z" fill="#B28B67"/>
<path fill-rule="evenodd" clip-rule="evenodd" d="M160.991 286.524C152.344 322.588 155.867 353.004 188.728 380.594C188.341 381.98 188.11 382.809 188.11 382.809C149.538 355.839 149.519 323.157 160.991 286.524Z" fill="black" fill-opacity="0.2"/>
<path fill-rule="evenodd" clip-rule="evenodd" d="M428.069 208.483C422.357 211.924 416.745 213.587 414.111 212.908C407.505 211.206 406.898 187.048 412.009 177.524C417.12 167.999 443.396 163.848 444.72 182.719C445.179 189.267 442.429 195.113 438.365 199.881L445.652 233.838H424.483L428.069 208.483Z" fill="#B28B67"/>
<path fill-rule="evenodd" clip-rule="evenodd" d="M424.074 166.547C426.865 166.089 434.376 165.775 435.762 165.775C436.647 165.775 437.607 165.977 438.131 165.165C438.56 164.499 438.403 163.374 438.531 162.601C438.68 161.705 438.892 160.819 439.105 159.936C439.713 157.422 440.634 155.031 441.92 152.786C444.336 148.574 447.874 145.274 452.341 143.355C457.274 141.235 462.855 140.749 468.161 141.179C473.839 141.639 478.979 143.513 484.34 145.277C489.449 146.957 494.799 147.618 500.142 146.798C505.526 145.971 509.594 143.054 514.134 140.285C518.782 137.451 524.095 135.598 529.59 136.024C534.72 136.421 539.448 138.539 543.689 141.368C547.662 144.014 550.931 147.198 552.782 151.679C554.773 156.5 554.765 161.791 551.496 166.052C546.76 172.226 537.957 173.824 530.635 173.664C526.4 173.573 522.241 172.8 518.242 171.395C512.91 169.519 508.302 166.342 503.314 163.763C500.972 162.553 498.552 161.559 496.016 160.843C493.554 160.149 491.13 159.83 488.902 161.316C486.544 162.889 484.431 164.434 481.734 165.418C479.147 166.362 476.407 166.89 473.65 166.869C468.286 166.828 463 165.157 457.791 164.038C453.543 163.126 448.998 162.217 444.667 163.094C442.859 163.46 440.22 164.215 439.567 166.093C450.552 168.083 454.867 181.665 451.77 191.634C450.098 197.016 440.051 203.306 436.145 200.478C433.67 198.685 435.173 196.332 436.145 194.779C438.007 191.804 438.645 187.983 435.199 185.913C432.227 184.126 429.101 188.368 429.042 188.364C428.226 188.299 421.166 184.308 416.304 178.485C411.505 178.769 410.778 175.607 411.923 173.02C413.069 170.434 420.219 167.179 424.074 166.547Z" fill="#191847"/>
<path fill-rule="evenodd" clip-rule="evenodd" d="M459.736 308.297L426.593 416.826L410.539 509.121H397.95L414.915 308.297H459.736Z" fill="#997659"/>
<path fill-rule="evenodd" clip-rule="evenodd" d="M471.593 308.297C469.342 367.885 471.991 398.621 472.494 404.035C472.998 409.449 479.897 444.552 496.23 510.938L482.816 506.324C457.004 445.438 448.208 413.795 445.248 405.799C442.287 397.805 434.424 365.304 421.659 308.297H471.593Z" fill="#B28B67"/>
<path fill-rule="evenodd" clip-rule="evenodd" d="M493.879 505.186C494.718 504.812 495.717 505.185 496.033 506.048C496.68 507.814 497.607 510.617 497.607 512.171C497.607 514.557 496.813 519.135 496.813 519.135C494.05 519.135 447.139 519.135 447.139 519.135C447.139 519.135 445.203 512.723 449.375 512.212C453.546 511.701 456.306 511.289 456.306 511.289L479.484 500.939C479.888 500.759 480.36 500.947 480.529 501.356L482.051 505.054C482.051 505.054 485.913 506.86 488.327 506.86C489.857 506.86 492.297 505.894 493.879 505.186Z" fill="#E4E4E4"/>
<path fill-rule="evenodd" clip-rule="evenodd" d="M411.091 505.186C411.93 504.812 412.929 505.185 413.245 506.048C413.891 507.814 414.819 510.617 414.819 512.171C414.819 514.557 414.025 519.135 414.025 519.135C411.262 519.135 364.351 519.135 364.351 519.135C364.351 519.135 362.414 512.723 366.586 512.212C370.758 511.701 373.518 511.289 373.518 511.289L396.696 500.939C397.1 500.759 397.573 500.947 397.74 501.356L399.263 505.054C399.263 505.054 403.124 506.86 405.539 506.86C407.069 506.86 409.509 505.894 411.091 505.186Z" fill="#E4E4E4"/>
<path fill-rule="evenodd" clip-rule="evenodd" d="M464.14 308.297L450.048 363.591H407.007L413.424 308.297H464.14Z" fill="#69A1AC"/>
<path fill-rule="evenodd" clip-rule="evenodd" d="M472.066 308.297C479.021 329.179 474.708 363.591 474.708 363.591H430.786L418.709 308.297H472.066Z" fill="#89C5CC"/>
<path fill-rule="evenodd" clip-rule="evenodd" d="M519.991 336.109C516.703 331.286 494.54 266.392 494.54 266.392L475.423 269.151C475.423 269.151 507.206 336.727 509.021 339.87C511.38 343.952 509.291 350.659 507.875 355.208C507.656 355.911 507.452 356.563 507.285 357.145C510.258 358.001 511.389 356.303 512.582 354.512C513.929 352.489 515.355 350.349 519.601 351.64C521.241 352.138 522.817 352.779 524.357 353.404C529.675 355.566 534.561 357.551 540.175 352.904C541.065 352.167 541.815 349.759 538.987 348.356C531.942 344.862 521.599 338.466 519.991 336.109ZM355.255 332.755L376.611 305.192L386.824 318.227L363.223 336.979C358.197 348.027 355.024 352.942 353.704 351.722C352.591 350.694 352.847 349.36 353.083 348.131C353.267 347.174 353.439 346.28 352.941 345.645C351.805 344.195 346.766 345.824 342.051 347.575C337.336 349.326 338.126 346.783 338.985 345.393C343.063 341.044 348.486 336.831 355.255 332.755Z" fill="#B28B67"/>
<path fill-rule="evenodd" clip-rule="evenodd" d="M428.647 220.438L420.912 220.206C414.914 263.848 357.805 301.046 356.258 317.262C355.691 323.21 360.249 325.535 358.352 327.589L369.177 333.381C370.567 331.211 374.613 334.254 381.674 330.736C388.734 327.219 435.633 270.134 428.647 220.438Z" fill="#DB2721"/>
<path fill-rule="evenodd" clip-rule="evenodd" d="M441.231 209.707C442.925 209.347 444.591 210.429 444.951 212.122L446.107 217.555C461.856 226.473 501.671 254.141 519.387 313.571C521.248 319.814 519.984 323.476 518.975 326.401C518.285 328.403 517.712 330.06 518.341 331.963L505.99 337.307C505.788 335.865 504.014 334.995 501.726 333.874C498.399 332.243 493.984 330.079 491.729 324.845C489.591 319.883 486.615 313.73 483.137 306.908C484.237 316.435 483.661 325.421 480.747 333.205C473.477 352.626 414.025 340.8 405.516 323.225C400.976 313.847 404.299 304.97 408.695 293.231C414.275 278.329 421.583 258.815 416.726 227.803L414.754 218.535C414.394 216.842 415.475 215.177 417.169 214.817L441.231 209.707Z" fill="#FF4133"/>
</svg>
