<svg width="1289" height="685" viewBox="0 0 1289 685" fill="none" xmlns="http://www.w3.org/2000/svg">
<path d="M12.52 30.6C10.2 30.6 8.16 30.1333 6.4 29.2C4.64 28.2533 3.26667 26.9267 2.28 25.22C1.29333 23.5133 0.8 21.5067 0.8 19.2V1.24L6.32 1.2V19.16C6.32 20.1067 6.48 20.9667 6.8 21.74C7.12 22.5133 7.56 23.18 8.12 23.74C8.69333 24.3 9.35333 24.7333 10.1 25.04C10.86 25.3333 11.6667 25.48 12.52 25.48C13.4 25.48 14.2133 25.3267 14.96 25.02C15.72 24.7133 16.38 24.28 16.94 23.72C17.5 23.16 17.9333 22.4933 18.24 21.72C18.56 20.9467 18.72 20.0933 18.72 19.16V1.2H24.24V19.2C24.24 21.5067 23.7467 23.5133 22.76 25.22C21.7733 26.9267 20.4 28.2533 18.64 29.2C16.88 30.1333 14.84 30.6 12.52 30.6ZM44.5434 30V19.8C44.5434 19.3067 44.5168 18.68 44.4634 17.92C44.4101 17.1467 44.2434 16.3733 43.9634 15.6C43.6834 14.8267 43.2234 14.18 42.5834 13.66C41.9568 13.14 41.0634 12.88 39.9034 12.88C39.4368 12.88 38.9368 12.9533 38.4034 13.1C37.8701 13.2467 37.3701 13.5333 36.9034 13.96C36.4368 14.3733 36.0501 14.9867 35.7434 15.8C35.4501 16.6133 35.3034 17.6933 35.3034 19.04L32.1834 17.56C32.1834 15.8533 32.5301 14.2533 33.2234 12.76C33.9168 11.2667 34.9568 10.06 36.3434 9.14C37.7434 8.22 39.5034 7.76 41.6234 7.76C43.3168 7.76 44.6968 8.04667 45.7634 8.62C46.8301 9.19333 47.6568 9.92 48.2434 10.8C48.8434 11.68 49.2701 12.6 49.5234 13.56C49.7768 14.5067 49.9301 15.3733 49.9834 16.16C50.0368 16.9467 50.0634 17.52 50.0634 17.88V30H44.5434ZM29.7834 30V8.4H34.6234V15.56H35.3034V30H29.7834ZM64.3825 30.6C62.1425 30.6 60.2225 30.1 58.6225 29.1C57.0225 28.1 55.7958 26.74 54.9425 25.02C54.0892 23.3 53.6625 21.36 53.6625 19.2C53.6625 17.0133 54.1025 15.06 54.9825 13.34C55.8758 11.62 57.1292 10.2667 58.7425 9.28C60.3558 8.29333 62.2625 7.8 64.4625 7.8C67.0092 7.8 69.1425 8.44667 70.8625 9.74C72.5958 11.02 73.7025 12.7733 74.1825 15L68.7425 16.44C68.4225 15.32 67.8625 14.4467 67.0625 13.82C66.2758 13.1933 65.3825 12.88 64.3825 12.88C63.2358 12.88 62.2958 13.16 61.5625 13.72C60.8292 14.2667 60.2892 15.02 59.9425 15.98C59.5958 16.9267 59.4225 18 59.4225 19.2C59.4225 21.08 59.8358 22.6067 60.6625 23.78C61.5025 24.94 62.7425 25.52 64.3825 25.52C65.6092 25.52 66.5425 25.24 67.1825 24.68C67.8225 24.12 68.3025 23.32 68.6225 22.28L74.1825 23.44C73.5692 25.7333 72.4092 27.5 70.7025 28.74C68.9958 29.98 66.8892 30.6 64.3825 30.6ZM87.3169 30.6C85.1435 30.6 83.2369 30.1133 81.5969 29.14C79.9569 28.1667 78.6769 26.8267 77.7569 25.12C76.8502 23.4 76.3969 21.4267 76.3969 19.2C76.3969 16.9467 76.8635 14.9667 77.7969 13.26C78.7302 11.54 80.0169 10.2 81.6569 9.24C83.2969 8.28 85.1835 7.8 87.3169 7.8C89.4902 7.8 91.3969 8.28667 93.0369 9.26C94.6902 10.2333 95.9769 11.58 96.8969 13.3C97.8169 15.0067 98.2769 16.9733 98.2769 19.2C98.2769 21.44 97.8102 23.42 96.8769 25.14C95.9569 26.8467 94.6702 28.1867 93.0169 29.16C91.3769 30.12 89.4769 30.6 87.3169 30.6ZM87.3169 25.52C89.0635 25.52 90.3635 24.9333 91.2169 23.76C92.0835 22.5733 92.5169 21.0533 92.5169 19.2C92.5169 17.28 92.0769 15.7467 91.1969 14.6C90.3302 13.4533 89.0369 12.88 87.3169 12.88C86.1302 12.88 85.1569 13.1467 84.3969 13.68C83.6369 14.2133 83.0702 14.9533 82.6969 15.9C82.3369 16.8467 82.1569 17.9467 82.1569 19.2C82.1569 21.1333 82.5902 22.6733 83.4569 23.82C84.3369 24.9533 85.6235 25.52 87.3169 25.52ZM107.734 30L99.8938 8.4H105.334L110.454 23.36L115.574 8.4H121.014L113.174 30H107.734ZM133.887 30.6C131.674 30.6 129.72 30.1267 128.027 29.18C126.347 28.22 125.027 26.9067 124.067 25.24C123.12 23.56 122.647 21.64 122.647 19.48C122.647 17.12 123.114 15.0667 124.047 13.32C124.98 11.5733 126.267 10.22 127.907 9.26C129.547 8.28667 131.434 7.8 133.567 7.8C135.834 7.8 137.76 8.33333 139.347 9.4C140.934 10.4667 142.107 11.9667 142.867 13.9C143.627 15.8333 143.894 18.1067 143.667 20.72H138.287V18.72C138.287 16.52 137.934 14.94 137.227 13.98C136.534 13.0067 135.394 12.52 133.807 12.52C131.954 12.52 130.587 13.0867 129.707 14.22C128.84 15.34 128.407 17 128.407 19.2C128.407 21.2133 128.84 22.7733 129.707 23.88C130.587 24.9733 131.874 25.52 133.567 25.52C134.634 25.52 135.547 25.2867 136.307 24.82C137.067 24.3533 137.647 23.68 138.047 22.8L143.487 24.36C142.674 26.3333 141.387 27.8667 139.627 28.96C137.88 30.0533 135.967 30.6 133.887 30.6ZM126.727 20.72V16.68H141.047V20.72H126.727ZM148.183 30V8.4H152.983V13.68L152.463 13C152.743 12.2533 153.116 11.5733 153.583 10.96C154.049 10.3467 154.623 9.84 155.303 9.44C155.823 9.12 156.389 8.87333 157.003 8.7C157.616 8.51333 158.249 8.4 158.903 8.36C159.556 8.30667 160.209 8.32 160.863 8.4V13.48C160.263 13.2933 159.563 13.2333 158.763 13.3C157.976 13.3533 157.263 13.5333 156.623 13.84C155.983 14.1333 155.443 14.5267 155.003 15.02C154.563 15.5 154.229 16.0733 154.003 16.74C153.776 17.3933 153.663 18.1333 153.663 18.96V30H148.183ZM172.675 30V1.2H181.995C182.222 1.2 182.688 1.20667 183.395 1.22C184.102 1.23333 184.782 1.28 185.435 1.36C187.755 1.64 189.722 2.44667 191.335 3.78C192.948 5.11333 194.175 6.80667 195.015 8.86C195.855 10.9133 196.275 13.16 196.275 15.6C196.275 18.04 195.855 20.2867 195.015 22.34C194.175 24.3933 192.948 26.0867 191.335 27.42C189.722 28.7533 187.755 29.56 185.435 29.84C184.782 29.92 184.102 29.9667 183.395 29.98C182.688 29.9933 182.222 30 181.995 30H172.675ZM178.195 24.88H181.995C182.355 24.88 182.842 24.8733 183.455 24.86C184.068 24.8333 184.622 24.7733 185.115 24.68C186.368 24.4267 187.388 23.84 188.175 22.92C188.975 22 189.562 20.8933 189.935 19.6C190.322 18.3067 190.515 16.9733 190.515 15.6C190.515 14.16 190.315 12.7933 189.915 11.5C189.528 10.2067 188.935 9.11333 188.135 8.22C187.335 7.32667 186.328 6.76 185.115 6.52C184.622 6.41333 184.068 6.35333 183.455 6.34C182.842 6.32667 182.355 6.32 181.995 6.32H178.195V24.88ZM211.113 30.6C208.9 30.6 206.947 30.1267 205.253 29.18C203.573 28.22 202.253 26.9067 201.293 25.24C200.347 23.56 199.873 21.64 199.873 19.48C199.873 17.12 200.34 15.0667 201.273 13.32C202.207 11.5733 203.493 10.22 205.133 9.26C206.773 8.28667 208.66 7.8 210.793 7.8C213.06 7.8 214.987 8.33333 216.573 9.4C218.16 10.4667 219.333 11.9667 220.093 13.9C220.853 15.8333 221.12 18.1067 220.893 20.72H215.513V18.72C215.513 16.52 215.16 14.94 214.453 13.98C213.76 13.0067 212.62 12.52 211.033 12.52C209.18 12.52 207.813 13.0867 206.933 14.22C206.067 15.34 205.633 17 205.633 19.2C205.633 21.2133 206.067 22.7733 206.933 23.88C207.813 24.9733 209.1 25.52 210.793 25.52C211.86 25.52 212.773 25.2867 213.533 24.82C214.293 24.3533 214.873 23.68 215.273 22.8L220.713 24.36C219.9 26.3333 218.613 27.8667 216.853 28.96C215.107 30.0533 213.193 30.6 211.113 30.6ZM203.953 20.72V16.68H218.273V20.72H203.953ZM231.019 30.6C229.472 30.6 228.159 30.3067 227.079 29.72C226.012 29.12 225.199 28.3267 224.639 27.34C224.092 26.34 223.819 25.24 223.819 24.04C223.819 23.04 223.972 22.1267 224.279 21.3C224.585 20.4733 225.079 19.7467 225.759 19.12C226.452 18.48 227.379 17.9467 228.539 17.52C229.339 17.2267 230.292 16.9667 231.399 16.74C232.505 16.5133 233.759 16.3 235.159 16.1C236.559 15.8867 238.099 15.6533 239.779 15.4L237.819 16.48C237.819 15.2 237.512 14.26 236.899 13.66C236.285 13.06 235.259 12.76 233.819 12.76C233.019 12.76 232.185 12.9533 231.319 13.34C230.452 13.7267 229.845 14.4133 229.499 15.4L224.579 13.84C225.125 12.0533 226.152 10.6 227.659 9.48C229.165 8.36 231.219 7.8 233.819 7.8C235.725 7.8 237.419 8.09333 238.899 8.68C240.379 9.26666 241.499 10.28 242.259 11.72C242.685 12.52 242.939 13.32 243.019 14.12C243.099 14.92 243.139 15.8133 243.139 16.8V30H238.379V25.56L239.059 26.48C238.005 27.9333 236.865 28.9867 235.639 29.64C234.425 30.28 232.885 30.6 231.019 30.6ZM232.179 26.32C233.179 26.32 234.019 26.1467 234.699 25.8C235.392 25.44 235.939 25.0333 236.339 24.58C236.752 24.1267 237.032 23.7467 237.179 23.44C237.459 22.8533 237.619 22.1733 237.659 21.4C237.712 20.6133 237.739 19.96 237.739 19.44L239.339 19.84C237.725 20.1067 236.419 20.3333 235.419 20.52C234.419 20.6933 233.612 20.8533 232.999 21C232.385 21.1467 231.845 21.3067 231.379 21.48C230.845 21.6933 230.412 21.9267 230.079 22.18C229.759 22.42 229.519 22.6867 229.359 22.98C229.212 23.2733 229.139 23.6 229.139 23.96C229.139 24.4533 229.259 24.88 229.499 25.24C229.752 25.5867 230.105 25.8533 230.559 26.04C231.012 26.2267 231.552 26.32 232.179 26.32ZM248.739 30V0.599999H254.179V30H248.739ZM268.615 30.6C265.895 30.6 263.695 29.9867 262.015 28.76C260.348 27.52 259.335 25.7733 258.975 23.52L264.535 22.68C264.762 23.6933 265.262 24.4867 266.035 25.06C266.822 25.6333 267.815 25.92 269.015 25.92C270.002 25.92 270.762 25.7333 271.295 25.36C271.828 24.9733 272.095 24.44 272.095 23.76C272.095 23.3333 271.988 22.9933 271.775 22.74C271.562 22.4733 271.082 22.2133 270.335 21.96C269.602 21.7067 268.455 21.3733 266.895 20.96C265.135 20.5067 263.728 20 262.675 19.44C261.622 18.88 260.862 18.2133 260.395 17.44C259.928 16.6533 259.695 15.7067 259.695 14.6C259.695 13.2133 260.048 12.0133 260.755 11C261.462 9.97333 262.455 9.18667 263.735 8.64C265.028 8.08 266.548 7.8 268.295 7.8C269.988 7.8 271.488 8.06 272.795 8.58C274.102 9.1 275.155 9.84 275.955 10.8C276.768 11.76 277.268 12.8933 277.455 14.2L271.895 15.2C271.802 14.4 271.455 13.7667 270.855 13.3C270.255 12.8333 269.442 12.56 268.415 12.48C267.415 12.4133 266.608 12.5467 265.995 12.88C265.395 13.2133 265.095 13.6933 265.095 14.32C265.095 14.6933 265.222 15.0067 265.475 15.26C265.742 15.5133 266.282 15.7733 267.095 16.04C267.922 16.3067 269.175 16.6533 270.855 17.08C272.495 17.5067 273.808 18.0067 274.795 18.58C275.795 19.14 276.522 19.82 276.975 20.62C277.428 21.4067 277.655 22.36 277.655 23.48C277.655 25.6933 276.855 27.4333 275.255 28.7C273.655 29.9667 271.442 30.6 268.615 30.6ZM281.65 35.4L281.97 33.12C282.61 33.1733 283.13 33.0667 283.53 32.8C283.93 32.5467 284.203 32.1733 284.35 31.68C284.51 31.2 284.543 30.64 284.45 30H281.65V24.56H287.09V30C287.09 31.92 286.643 33.3733 285.75 34.36C284.857 35.3467 283.49 35.6933 281.65 35.4ZM314.434 30.6C312.114 30.6 310.074 30.1333 308.314 29.2C306.554 28.2533 305.181 26.9267 304.194 25.22C303.207 23.5133 302.714 21.5067 302.714 19.2V1.24L308.234 1.2V19.16C308.234 20.1067 308.394 20.9667 308.714 21.74C309.034 22.5133 309.474 23.18 310.034 23.74C310.607 24.3 311.267 24.7333 312.014 25.04C312.774 25.3333 313.581 25.48 314.434 25.48C315.314 25.48 316.127 25.3267 316.874 25.02C317.634 24.7133 318.294 24.28 318.854 23.72C319.414 23.16 319.847 22.4933 320.154 21.72C320.474 20.9467 320.634 20.0933 320.634 19.16V1.2H326.154V19.2C326.154 21.5067 325.661 23.5133 324.674 25.22C323.687 26.9267 322.314 28.2533 320.554 29.2C318.794 30.1333 316.754 30.6 314.434 30.6ZM346.458 30V19.8C346.458 19.3067 346.431 18.68 346.378 17.92C346.324 17.1467 346.158 16.3733 345.878 15.6C345.598 14.8267 345.138 14.18 344.498 13.66C343.871 13.14 342.978 12.88 341.818 12.88C341.351 12.88 340.851 12.9533 340.318 13.1C339.784 13.2467 339.284 13.5333 338.818 13.96C338.351 14.3733 337.964 14.9867 337.658 15.8C337.364 16.6133 337.218 17.6933 337.218 19.04L334.098 17.56C334.098 15.8533 334.444 14.2533 335.138 12.76C335.831 11.2667 336.871 10.06 338.258 9.14C339.658 8.22 341.418 7.76 343.538 7.76C345.231 7.76 346.611 8.04667 347.678 8.62C348.744 9.19333 349.571 9.92 350.158 10.8C350.758 11.68 351.184 12.6 351.438 13.56C351.691 14.5067 351.844 15.3733 351.898 16.16C351.951 16.9467 351.978 17.52 351.978 17.88V30H346.458ZM331.698 30V8.4H336.538V15.56H337.218V30H331.698ZM357.567 30V0.599999H363.007V30H357.567ZM379.043 30.6C376.83 30.6 374.876 30.1267 373.183 29.18C371.503 28.22 370.183 26.9067 369.223 25.24C368.276 23.56 367.803 21.64 367.803 19.48C367.803 17.12 368.27 15.0667 369.203 13.32C370.136 11.5733 371.423 10.22 373.063 9.26C374.703 8.28667 376.59 7.8 378.723 7.8C380.99 7.8 382.916 8.33333 384.503 9.4C386.09 10.4667 387.263 11.9667 388.023 13.9C388.783 15.8333 389.05 18.1067 388.823 20.72H383.443V18.72C383.443 16.52 383.09 14.94 382.383 13.98C381.69 13.0067 380.55 12.52 378.963 12.52C377.11 12.52 375.743 13.0867 374.863 14.22C373.996 15.34 373.563 17 373.563 19.2C373.563 21.2133 373.996 22.7733 374.863 23.88C375.743 24.9733 377.03 25.52 378.723 25.52C379.79 25.52 380.703 25.2867 381.463 24.82C382.223 24.3533 382.803 23.68 383.203 22.8L388.643 24.36C387.83 26.3333 386.543 27.8667 384.783 28.96C383.036 30.0533 381.123 30.6 379.043 30.6ZM371.883 20.72V16.68H386.203V20.72H371.883ZM398.948 30.6C397.402 30.6 396.088 30.3067 395.008 29.72C393.942 29.12 393.128 28.3267 392.568 27.34C392.022 26.34 391.748 25.24 391.748 24.04C391.748 23.04 391.902 22.1267 392.208 21.3C392.515 20.4733 393.008 19.7467 393.688 19.12C394.382 18.48 395.308 17.9467 396.468 17.52C397.268 17.2267 398.222 16.9667 399.328 16.74C400.435 16.5133 401.688 16.3 403.088 16.1C404.488 15.8867 406.028 15.6533 407.708 15.4L405.748 16.48C405.748 15.2 405.442 14.26 404.828 13.66C404.215 13.06 403.188 12.76 401.748 12.76C400.948 12.76 400.115 12.9533 399.248 13.34C398.382 13.7267 397.775 14.4133 397.428 15.4L392.508 13.84C393.055 12.0533 394.082 10.6 395.588 9.48C397.095 8.36 399.148 7.8 401.748 7.8C403.655 7.8 405.348 8.09333 406.828 8.68C408.308 9.26666 409.428 10.28 410.188 11.72C410.615 12.52 410.868 13.32 410.948 14.12C411.028 14.92 411.068 15.8133 411.068 16.8V30H406.308V25.56L406.988 26.48C405.935 27.9333 404.795 28.9867 403.568 29.64C402.355 30.28 400.815 30.6 398.948 30.6ZM400.108 26.32C401.108 26.32 401.948 26.1467 402.628 25.8C403.322 25.44 403.868 25.0333 404.268 24.58C404.682 24.1267 404.962 23.7467 405.108 23.44C405.388 22.8533 405.548 22.1733 405.588 21.4C405.642 20.6133 405.668 19.96 405.668 19.44L407.268 19.84C405.655 20.1067 404.348 20.3333 403.348 20.52C402.348 20.6933 401.542 20.8533 400.928 21C400.315 21.1467 399.775 21.3067 399.308 21.48C398.775 21.6933 398.342 21.9267 398.008 22.18C397.688 22.42 397.448 22.6867 397.288 22.98C397.142 23.2733 397.068 23.6 397.068 23.96C397.068 24.4533 397.188 24.88 397.428 25.24C397.682 25.5867 398.035 25.8533 398.488 26.04C398.942 26.2267 399.482 26.32 400.108 26.32ZM424.709 30.6C421.989 30.6 419.789 29.9867 418.109 28.76C416.442 27.52 415.429 25.7733 415.069 23.52L420.629 22.68C420.855 23.6933 421.355 24.4867 422.129 25.06C422.915 25.6333 423.909 25.92 425.109 25.92C426.095 25.92 426.855 25.7333 427.389 25.36C427.922 24.9733 428.189 24.44 428.189 23.76C428.189 23.3333 428.082 22.9933 427.869 22.74C427.655 22.4733 427.175 22.2133 426.429 21.96C425.695 21.7067 424.549 21.3733 422.989 20.96C421.229 20.5067 419.822 20 418.769 19.44C417.715 18.88 416.955 18.2133 416.489 17.44C416.022 16.6533 415.789 15.7067 415.789 14.6C415.789 13.2133 416.142 12.0133 416.849 11C417.555 9.97333 418.549 9.18667 419.829 8.64C421.122 8.08 422.642 7.8 424.389 7.8C426.082 7.8 427.582 8.06 428.889 8.58C430.195 9.1 431.249 9.84 432.049 10.8C432.862 11.76 433.362 12.8933 433.549 14.2L427.989 15.2C427.895 14.4 427.549 13.7667 426.949 13.3C426.349 12.8333 425.535 12.56 424.509 12.48C423.509 12.4133 422.702 12.5467 422.089 12.88C421.489 13.2133 421.189 13.6933 421.189 14.32C421.189 14.6933 421.315 15.0067 421.569 15.26C421.835 15.5133 422.375 15.7733 423.189 16.04C424.015 16.3067 425.269 16.6533 426.949 17.08C428.589 17.5067 429.902 18.0067 430.889 18.58C431.889 19.14 432.615 19.82 433.069 20.62C433.522 21.4067 433.749 22.36 433.749 23.48C433.749 25.6933 432.949 27.4333 431.349 28.7C429.749 29.9667 427.535 30.6 424.709 30.6ZM452.864 30V19.8C452.864 19.3067 452.837 18.68 452.784 17.92C452.73 17.1467 452.564 16.3733 452.284 15.6C452.004 14.8267 451.544 14.18 450.904 13.66C450.277 13.14 449.384 12.88 448.224 12.88C447.757 12.88 447.257 12.9533 446.724 13.1C446.19 13.2467 445.69 13.5333 445.224 13.96C444.757 14.3733 444.37 14.9867 444.064 15.8C443.77 16.6133 443.624 17.6933 443.624 19.04L440.504 17.56C440.504 15.8533 440.85 14.2533 441.544 12.76C442.237 11.2667 443.277 10.06 444.664 9.14C446.064 8.22 447.824 7.76 449.944 7.76C451.637 7.76 453.017 8.04667 454.084 8.62C455.15 9.19333 455.977 9.92 456.564 10.8C457.164 11.68 457.59 12.6 457.844 13.56C458.097 14.5067 458.25 15.3733 458.304 16.16C458.357 16.9467 458.384 17.52 458.384 17.88V30H452.864ZM438.104 30V1.2H442.944V16H443.624V30H438.104ZM471.581 30V1.2H490.381V6.28H477.021V12.44H487.981V17.52H477.021V24.92H490.381V30H471.581ZM492.775 30L500.495 19.08L492.935 8.4H499.335L503.655 14.8L507.895 8.4H514.295L506.735 19.08L514.495 30H508.095L503.655 23.36L499.175 30H492.775ZM526.453 30.6C524.213 30.6 522.293 30.1 520.693 29.1C519.093 28.1 517.866 26.74 517.013 25.02C516.159 23.3 515.733 21.36 515.733 19.2C515.733 17.0133 516.173 15.06 517.053 13.34C517.946 11.62 519.199 10.2667 520.813 9.28C522.426 8.29333 524.333 7.8 526.533 7.8C529.079 7.8 531.213 8.44667 532.933 9.74C534.666 11.02 535.773 12.7733 536.253 15L530.813 16.44C530.493 15.32 529.933 14.4467 529.133 13.82C528.346 13.1933 527.453 12.88 526.453 12.88C525.306 12.88 524.366 13.16 523.633 13.72C522.899 14.2667 522.359 15.02 522.013 15.98C521.666 16.9267 521.493 18 521.493 19.2C521.493 21.08 521.906 22.6067 522.733 23.78C523.573 24.94 524.813 25.52 526.453 25.52C527.679 25.52 528.613 25.24 529.253 24.68C529.893 24.12 530.373 23.32 530.693 22.28L536.253 23.44C535.639 25.7333 534.479 27.5 532.773 28.74C531.066 29.98 528.959 30.6 526.453 30.6ZM540.067 5.4V0.599999H545.507V5.4H540.067ZM540.067 30V8.4H545.507V30H540.067ZM564.463 30C562.97 30.28 561.503 30.4 560.063 30.36C558.636 30.3333 557.356 30.0867 556.223 29.62C555.103 29.14 554.25 28.3733 553.663 27.32C553.13 26.3333 552.85 25.3333 552.823 24.32C552.796 23.2933 552.783 22.1333 552.783 20.84V2.4H558.223V20.52C558.223 21.36 558.23 22.12 558.243 22.8C558.27 23.4667 558.41 24 558.663 24.4C559.143 25.16 559.91 25.5733 560.963 25.64C562.016 25.7067 563.183 25.6533 564.463 25.48V30ZM549.103 12.6V8.4H564.463V12.6H549.103ZM578.145 30.6C575.931 30.6 573.978 30.1267 572.285 29.18C570.605 28.22 569.285 26.9067 568.325 25.24C567.378 23.56 566.905 21.64 566.905 19.48C566.905 17.12 567.371 15.0667 568.305 13.32C569.238 11.5733 570.525 10.22 572.165 9.26C573.805 8.28667 575.691 7.8 577.825 7.8C580.091 7.8 582.018 8.33333 583.605 9.4C585.191 10.4667 586.365 11.9667 587.125 13.9C587.885 15.8333 588.151 18.1067 587.925 20.72H582.545V18.72C582.545 16.52 582.191 14.94 581.485 13.98C580.791 13.0067 579.651 12.52 578.065 12.52C576.211 12.52 574.845 13.0867 573.965 14.22C573.098 15.34 572.665 17 572.665 19.2C572.665 21.2133 573.098 22.7733 573.965 23.88C574.845 24.9733 576.131 25.52 577.825 25.52C578.891 25.52 579.805 25.2867 580.565 24.82C581.325 24.3533 581.905 23.68 582.305 22.8L587.745 24.36C586.931 26.3333 585.645 27.8667 583.885 28.96C582.138 30.0533 580.225 30.6 578.145 30.6ZM570.985 20.72V16.68H585.305V20.72H570.985ZM617.855 30V17.24C617.855 15.8133 617.515 14.7067 616.835 13.92C616.168 13.12 615.241 12.72 614.055 12.72C613.295 12.72 612.635 12.9 612.075 13.26C611.515 13.6067 611.075 14.1 610.755 14.74C610.448 15.3667 610.295 16.0933 610.295 16.92L608.015 15.4C608.015 13.92 608.361 12.6133 609.055 11.48C609.761 10.3467 610.701 9.46667 611.875 8.84C613.061 8.2 614.375 7.88 615.815 7.88C618.281 7.88 620.141 8.61333 621.395 10.08C622.661 11.5333 623.295 13.44 623.295 15.8V30H617.855ZM591.815 30V8.4H596.615V15.56H597.295V30H591.815ZM604.855 30V17.24C604.855 15.8133 604.515 14.7067 603.835 13.92C603.168 13.12 602.241 12.72 601.055 12.72C599.921 12.72 599.008 13.1133 598.315 13.9C597.635 14.6733 597.295 15.68 597.295 16.92L595.015 15.32C595.015 13.9067 595.368 12.64 596.075 11.52C596.781 10.4 597.728 9.51333 598.915 8.86C600.115 8.20667 601.455 7.88 602.935 7.88C604.628 7.88 606.015 8.24 607.095 8.96C608.188 9.68 608.995 10.64 609.515 11.84C610.035 13.04 610.295 14.36 610.295 15.8V30H604.855ZM638.145 30.6C635.931 30.6 633.978 30.1267 632.285 29.18C630.605 28.22 629.285 26.9067 628.325 25.24C627.378 23.56 626.905 21.64 626.905 19.48C626.905 17.12 627.371 15.0667 628.305 13.32C629.238 11.5733 630.525 10.22 632.165 9.26C633.805 8.28667 635.691 7.8 637.825 7.8C640.091 7.8 642.018 8.33333 643.605 9.4C645.191 10.4667 646.365 11.9667 647.125 13.9C647.885 15.8333 648.151 18.1067 647.925 20.72H642.545V18.72C642.545 16.52 642.191 14.94 641.485 13.98C640.791 13.0067 639.651 12.52 638.065 12.52C636.211 12.52 634.845 13.0867 633.965 14.22C633.098 15.34 632.665 17 632.665 19.2C632.665 21.2133 633.098 22.7733 633.965 23.88C634.845 24.9733 636.131 25.52 637.825 25.52C638.891 25.52 639.805 25.2867 640.565 24.82C641.325 24.3533 641.905 23.68 642.305 22.8L647.745 24.36C646.931 26.3333 645.645 27.8667 643.885 28.96C642.138 30.0533 640.225 30.6 638.145 30.6ZM630.985 20.72V16.68H645.305V20.72H630.985ZM666.575 30V19.8C666.575 19.3067 666.548 18.68 666.495 17.92C666.441 17.1467 666.275 16.3733 665.995 15.6C665.715 14.8267 665.255 14.18 664.615 13.66C663.988 13.14 663.095 12.88 661.935 12.88C661.468 12.88 660.968 12.9533 660.435 13.1C659.901 13.2467 659.401 13.5333 658.935 13.96C658.468 14.3733 658.081 14.9867 657.775 15.8C657.481 16.6133 657.335 17.6933 657.335 19.04L654.215 17.56C654.215 15.8533 654.561 14.2533 655.255 12.76C655.948 11.2667 656.988 10.06 658.375 9.14C659.775 8.22 661.535 7.76 663.655 7.76C665.348 7.76 666.728 8.04667 667.795 8.62C668.861 9.19333 669.688 9.92 670.275 10.8C670.875 11.68 671.301 12.6 671.555 13.56C671.808 14.5067 671.961 15.3733 672.015 16.16C672.068 16.9467 672.095 17.52 672.095 17.88V30H666.575ZM651.815 30V8.4H656.655V15.56H657.335V30H651.815ZM690.244 30C688.751 30.28 687.284 30.4 685.844 30.36C684.418 30.3333 683.138 30.0867 682.004 29.62C680.884 29.14 680.031 28.3733 679.444 27.32C678.911 26.3333 678.631 25.3333 678.604 24.32C678.578 23.2933 678.564 22.1333 678.564 20.84V2.4H684.004V20.52C684.004 21.36 684.011 22.12 684.024 22.8C684.051 23.4667 684.191 24 684.444 24.4C684.924 25.16 685.691 25.5733 686.744 25.64C687.798 25.7067 688.964 25.6533 690.244 25.48V30ZM674.884 12.6V8.4H690.244V12.6H674.884ZM696.658 27.6V22.16H702.098V27.6H696.658ZM696.698 16.24V10.8H702.138V16.24H696.698Z" fill="black"/>
<path d="M717.363 30V1.2H726.683C726.909 1.2 727.376 1.20667 728.083 1.22C728.789 1.23333 729.469 1.28 730.123 1.36C732.443 1.64 734.409 2.44667 736.023 3.78C737.636 5.11333 738.863 6.80667 739.703 8.86C740.543 10.9133 740.963 13.16 740.963 15.6C740.963 18.04 740.543 20.2867 739.703 22.34C738.863 24.3933 737.636 26.0867 736.023 27.42C734.409 28.7533 732.443 29.56 730.123 29.84C729.469 29.92 728.789 29.9667 728.083 29.98C727.376 29.9933 726.909 30 726.683 30H717.363ZM722.883 24.88H726.683C727.043 24.88 727.529 24.8733 728.143 24.86C728.756 24.8333 729.309 24.7733 729.803 24.68C731.056 24.4267 732.076 23.84 732.863 22.92C733.663 22 734.249 20.8933 734.623 19.6C735.009 18.3067 735.203 16.9733 735.203 15.6C735.203 14.16 735.003 12.7933 734.603 11.5C734.216 10.2067 733.623 9.11333 732.823 8.22C732.023 7.32667 731.016 6.76 729.803 6.52C729.309 6.41333 728.756 6.35333 728.143 6.34C727.529 6.32667 727.043 6.32 726.683 6.32H722.883V24.88ZM746.161 5.4V0.599999H751.601V5.4H746.161ZM746.161 30V8.4H751.601V30H746.161ZM763.437 30L755.597 8.4H761.037L766.157 23.36L771.277 8.4H776.717L768.877 30H763.437ZM789.59 30.6C787.377 30.6 785.423 30.1267 783.73 29.18C782.05 28.22 780.73 26.9067 779.77 25.24C778.823 23.56 778.35 21.64 778.35 19.48C778.35 17.12 778.817 15.0667 779.75 13.32C780.683 11.5733 781.97 10.22 783.61 9.26C785.25 8.28667 787.137 7.8 789.27 7.8C791.537 7.8 793.463 8.33333 795.05 9.4C796.637 10.4667 797.81 11.9667 798.57 13.9C799.33 15.8333 799.597 18.1067 799.37 20.72H793.99V18.72C793.99 16.52 793.637 14.94 792.93 13.98C792.237 13.0067 791.097 12.52 789.51 12.52C787.657 12.52 786.29 13.0867 785.41 14.22C784.543 15.34 784.11 17 784.11 19.2C784.11 21.2133 784.543 22.7733 785.41 23.88C786.29 24.9733 787.577 25.52 789.27 25.52C790.337 25.52 791.25 25.2867 792.01 24.82C792.77 24.3533 793.35 23.68 793.75 22.8L799.19 24.36C798.377 26.3333 797.09 27.8667 795.33 28.96C793.583 30.0533 791.67 30.6 789.59 30.6ZM782.43 20.72V16.68H796.75V20.72H782.43ZM812.294 5.4V0.599999H817.734V5.4H812.294ZM812.294 30V8.4H817.734V30H812.294ZM838.45 30V19.8C838.45 19.3067 838.423 18.68 838.37 17.92C838.316 17.1467 838.15 16.3733 837.87 15.6C837.59 14.8267 837.13 14.18 836.49 13.66C835.863 13.14 834.97 12.88 833.81 12.88C833.343 12.88 832.843 12.9533 832.31 13.1C831.776 13.2467 831.276 13.5333 830.81 13.96C830.343 14.3733 829.956 14.9867 829.65 15.8C829.356 16.6133 829.21 17.6933 829.21 19.04L826.09 17.56C826.09 15.8533 826.436 14.2533 827.13 12.76C827.823 11.2667 828.863 10.06 830.25 9.14C831.65 8.22 833.41 7.76 835.53 7.76C837.223 7.76 838.603 8.04667 839.67 8.62C840.736 9.19333 841.563 9.92 842.15 10.8C842.75 11.68 843.176 12.6 843.43 13.56C843.683 14.5067 843.836 15.3733 843.89 16.16C843.943 16.9467 843.97 17.52 843.97 17.88V30H838.45ZM823.69 30V8.4H828.53V15.56H829.21V30H823.69ZM862.119 30C860.626 30.28 859.159 30.4 857.719 30.36C856.293 30.3333 855.013 30.0867 853.879 29.62C852.759 29.14 851.906 28.3733 851.319 27.32C850.786 26.3333 850.506 25.3333 850.479 24.32C850.453 23.2933 850.439 22.1333 850.439 20.84V2.4H855.879V20.52C855.879 21.36 855.886 22.12 855.899 22.8C855.926 23.4667 856.066 24 856.319 24.4C856.799 25.16 857.566 25.5733 858.619 25.64C859.673 25.7067 860.839 25.6533 862.119 25.48V30ZM846.759 12.6V8.4H862.119V12.6H846.759ZM875.481 30.6C873.308 30.6 871.401 30.1133 869.761 29.14C868.121 28.1667 866.841 26.8267 865.921 25.12C865.014 23.4 864.561 21.4267 864.561 19.2C864.561 16.9467 865.028 14.9667 865.961 13.26C866.894 11.54 868.181 10.2 869.821 9.24C871.461 8.28 873.348 7.8 875.481 7.8C877.654 7.8 879.561 8.28667 881.201 9.26C882.854 10.2333 884.141 11.58 885.061 13.3C885.981 15.0067 886.441 16.9733 886.441 19.2C886.441 21.44 885.974 23.42 885.041 25.14C884.121 26.8467 882.834 28.1867 881.181 29.16C879.541 30.12 877.641 30.6 875.481 30.6ZM875.481 25.52C877.228 25.52 878.528 24.9333 879.381 23.76C880.248 22.5733 880.681 21.0533 880.681 19.2C880.681 17.28 880.241 15.7467 879.361 14.6C878.494 13.4533 877.201 12.88 875.481 12.88C874.294 12.88 873.321 13.1467 872.561 13.68C871.801 14.2133 871.234 14.9533 870.861 15.9C870.501 16.8467 870.321 17.9467 870.321 19.2C870.321 21.1333 870.754 22.6733 871.621 23.82C872.501 24.9533 873.788 25.52 875.481 25.52ZM911.207 30.6C908.327 30.6 905.84 29.9733 903.747 28.72C901.667 27.4667 900.06 25.7133 898.927 23.46C897.807 21.2067 897.247 18.5867 897.247 15.6C897.247 12.6133 897.807 9.99333 898.927 7.74C900.06 5.48667 901.667 3.73333 903.747 2.48C905.84 1.22667 908.327 0.599999 911.207 0.599999C914.087 0.599999 916.567 1.22667 918.647 2.48C920.74 3.73333 922.347 5.48667 923.467 7.74C924.6 9.99333 925.167 12.6133 925.167 15.6C925.167 18.5867 924.6 21.2067 923.467 23.46C922.347 25.7133 920.74 27.4667 918.647 28.72C916.567 29.9733 914.087 30.6 911.207 30.6ZM911.207 25.48C913.034 25.5067 914.554 25.1133 915.767 24.3C916.98 23.4867 917.887 22.3333 918.487 20.84C919.1 19.3467 919.407 17.6 919.407 15.6C919.407 13.6 919.1 11.8667 918.487 10.4C917.887 8.93333 916.98 7.79333 915.767 6.98C914.554 6.16667 913.034 5.74667 911.207 5.72C909.38 5.69333 907.86 6.08666 906.647 6.9C905.434 7.71333 904.52 8.86666 903.907 10.36C903.307 11.8533 903.007 13.6 903.007 15.6C903.007 17.6 903.307 19.3333 903.907 20.8C904.52 22.2667 905.434 23.4067 906.647 24.22C907.86 25.0333 909.38 25.4533 911.207 25.48ZM937.199 30.64C935.506 30.64 934.126 30.3533 933.059 29.78C931.993 29.2067 931.159 28.48 930.559 27.6C929.973 26.72 929.553 25.8067 929.299 24.86C929.046 23.9 928.893 23.0267 928.839 22.24C928.786 21.4533 928.759 20.88 928.759 20.52V8.4H934.279V18.6C934.279 19.0933 934.306 19.7267 934.359 20.5C934.413 21.26 934.579 22.0267 934.859 22.8C935.139 23.5733 935.593 24.22 936.219 24.74C936.859 25.26 937.759 25.52 938.919 25.52C939.386 25.52 939.886 25.4467 940.419 25.3C940.953 25.1533 941.453 24.8733 941.919 24.46C942.386 24.0333 942.766 23.4133 943.059 22.6C943.366 21.7733 943.519 20.6933 943.519 19.36L946.639 20.84C946.639 22.5467 946.293 24.1467 945.599 25.64C944.906 27.1333 943.859 28.34 942.459 29.26C941.073 30.18 939.319 30.64 937.199 30.64ZM944.199 30V22.84H943.519V8.4H948.999V30H944.199ZM954.589 30V8.4H959.389V13.68L958.869 13C959.149 12.2533 959.522 11.5733 959.989 10.96C960.456 10.3467 961.029 9.84 961.709 9.44C962.229 9.12 962.796 8.87333 963.409 8.7C964.022 8.51333 964.656 8.4 965.309 8.36C965.962 8.30667 966.616 8.32 967.269 8.4V13.48C966.669 13.2933 965.969 13.2333 965.169 13.3C964.382 13.3533 963.669 13.5333 963.029 13.84C962.389 14.1333 961.849 14.5267 961.409 15.02C960.969 15.5 960.636 16.0733 960.409 16.74C960.182 17.3933 960.069 18.1333 960.069 18.96V30H954.589ZM977.081 30L985.881 1.2H994.001L1002.8 30H997.201L989.361 4.6H990.401L982.681 30H977.081ZM982.361 24V18.92H997.561V24H982.361ZM1014.43 30.64C1012.73 30.64 1011.35 30.3533 1010.29 29.78C1009.22 29.2067 1008.39 28.48 1007.79 27.6C1007.2 26.72 1006.78 25.8067 1006.53 24.86C1006.27 23.9 1006.12 23.0267 1006.07 22.24C1006.01 21.4533 1005.99 20.88 1005.99 20.52V8.4H1011.51V18.6C1011.51 19.0933 1011.53 19.7267 1011.59 20.5C1011.64 21.26 1011.81 22.0267 1012.09 22.8C1012.37 23.5733 1012.82 24.22 1013.45 24.74C1014.09 25.26 1014.99 25.52 1016.15 25.52C1016.61 25.52 1017.11 25.4467 1017.65 25.3C1018.18 25.1533 1018.68 24.8733 1019.15 24.46C1019.61 24.0333 1019.99 23.4133 1020.29 22.6C1020.59 21.7733 1020.75 20.6933 1020.75 19.36L1023.87 20.84C1023.87 22.5467 1023.52 24.1467 1022.83 25.64C1022.13 27.1333 1021.09 28.34 1019.69 29.26C1018.3 30.18 1016.55 30.64 1014.43 30.64ZM1021.43 30V22.84H1020.75V8.4H1026.23V30H1021.43ZM1041.34 30.6C1039.1 30.6 1037.18 30.1 1035.58 29.1C1033.98 28.1 1032.75 26.74 1031.9 25.02C1031.04 23.3 1030.62 21.36 1030.62 19.2C1030.62 17.0133 1031.06 15.06 1031.94 13.34C1032.83 11.62 1034.08 10.2667 1035.7 9.28C1037.31 8.29333 1039.22 7.8 1041.42 7.8C1043.96 7.8 1046.1 8.44667 1047.82 9.74C1049.55 11.02 1050.66 12.7733 1051.14 15L1045.7 16.44C1045.38 15.32 1044.82 14.4467 1044.02 13.82C1043.23 13.1933 1042.34 12.88 1041.34 12.88C1040.19 12.88 1039.25 13.16 1038.52 13.72C1037.78 14.2667 1037.24 15.02 1036.9 15.98C1036.55 16.9267 1036.38 18 1036.38 19.2C1036.38 21.08 1036.79 22.6067 1037.62 23.78C1038.46 24.94 1039.7 25.52 1041.34 25.52C1042.56 25.52 1043.5 25.24 1044.14 24.68C1044.78 24.12 1045.26 23.32 1045.58 22.28L1051.14 23.44C1050.52 25.7333 1049.36 27.5 1047.66 28.74C1045.95 29.98 1043.84 30.6 1041.34 30.6ZM1068.1 30C1066.6 30.28 1065.14 30.4 1063.7 30.36C1062.27 30.3333 1060.99 30.0867 1059.86 29.62C1058.74 29.14 1057.88 28.3733 1057.3 27.32C1056.76 26.3333 1056.48 25.3333 1056.46 24.32C1056.43 23.2933 1056.42 22.1333 1056.42 20.84V2.4H1061.86V20.52C1061.86 21.36 1061.86 22.12 1061.88 22.8C1061.9 23.4667 1062.04 24 1062.3 24.4C1062.78 25.16 1063.54 25.5733 1064.6 25.64C1065.65 25.7067 1066.82 25.6533 1068.1 25.48V30ZM1052.74 12.6V8.4H1068.1V12.6H1052.74ZM1073.31 5.4V0.599999H1078.75V5.4H1073.31ZM1073.31 30V8.4H1078.75V30H1073.31ZM1094.47 30.6C1092.29 30.6 1090.39 30.1133 1088.75 29.14C1087.11 28.1667 1085.83 26.8267 1084.91 25.12C1084 23.4 1083.55 21.4267 1083.55 19.2C1083.55 16.9467 1084.01 14.9667 1084.95 13.26C1085.88 11.54 1087.17 10.2 1088.81 9.24C1090.45 8.28 1092.33 7.8 1094.47 7.8C1096.64 7.8 1098.55 8.28667 1100.19 9.26C1101.84 10.2333 1103.13 11.58 1104.05 13.3C1104.97 15.0067 1105.43 16.9733 1105.43 19.2C1105.43 21.44 1104.96 23.42 1104.03 25.14C1103.11 26.8467 1101.82 28.1867 1100.17 29.16C1098.53 30.12 1096.63 30.6 1094.47 30.6ZM1094.47 25.52C1096.21 25.52 1097.51 24.9333 1098.37 23.76C1099.23 22.5733 1099.67 21.0533 1099.67 19.2C1099.67 17.28 1099.23 15.7467 1098.35 14.6C1097.48 13.4533 1096.19 12.88 1094.47 12.88C1093.28 12.88 1092.31 13.1467 1091.55 13.68C1090.79 14.2133 1090.22 14.9533 1089.85 15.9C1089.49 16.8467 1089.31 17.9467 1089.31 19.2C1089.31 21.1333 1089.74 22.6733 1090.61 23.82C1091.49 24.9533 1092.77 25.52 1094.47 25.52ZM1124.54 30V19.8C1124.54 19.3067 1124.52 18.68 1124.46 17.92C1124.41 17.1467 1124.24 16.3733 1123.96 15.6C1123.68 14.8267 1123.22 14.18 1122.58 13.66C1121.96 13.14 1121.06 12.88 1119.9 12.88C1119.44 12.88 1118.94 12.9533 1118.4 13.1C1117.87 13.2467 1117.37 13.5333 1116.9 13.96C1116.44 14.3733 1116.05 14.9867 1115.74 15.8C1115.45 16.6133 1115.3 17.6933 1115.3 19.04L1112.18 17.56C1112.18 15.8533 1112.53 14.2533 1113.22 12.76C1113.92 11.2667 1114.96 10.06 1116.34 9.14C1117.74 8.22 1119.5 7.76 1121.62 7.76C1123.32 7.76 1124.7 8.04667 1125.76 8.62C1126.83 9.19333 1127.66 9.92 1128.24 10.8C1128.84 11.68 1129.27 12.6 1129.52 13.56C1129.78 14.5067 1129.93 15.3733 1129.98 16.16C1130.04 16.9467 1130.06 17.52 1130.06 17.88V30H1124.54ZM1109.78 30V8.4H1114.62V15.56H1115.3V30H1109.78ZM1143.69 30.6C1140.97 30.6 1138.77 29.9867 1137.09 28.76C1135.43 27.52 1134.41 25.7733 1134.05 23.52L1139.61 22.68C1139.84 23.6933 1140.34 24.4867 1141.11 25.06C1141.9 25.6333 1142.89 25.92 1144.09 25.92C1145.08 25.92 1145.84 25.7333 1146.37 25.36C1146.91 24.9733 1147.17 24.44 1147.17 23.76C1147.17 23.3333 1147.07 22.9933 1146.85 22.74C1146.64 22.4733 1146.16 22.2133 1145.41 21.96C1144.68 21.7067 1143.53 21.3733 1141.97 20.96C1140.21 20.5067 1138.81 20 1137.75 19.44C1136.7 18.88 1135.94 18.2133 1135.47 17.44C1135.01 16.6533 1134.77 15.7067 1134.77 14.6C1134.77 13.2133 1135.13 12.0133 1135.83 11C1136.54 9.97333 1137.53 9.18667 1138.81 8.64C1140.11 8.08 1141.63 7.8 1143.37 7.8C1145.07 7.8 1146.57 8.06 1147.87 8.58C1149.18 9.1 1150.23 9.84 1151.03 10.8C1151.85 11.76 1152.35 12.8933 1152.53 14.2L1146.97 15.2C1146.88 14.4 1146.53 13.7667 1145.93 13.3C1145.33 12.8333 1144.52 12.56 1143.49 12.48C1142.49 12.4133 1141.69 12.5467 1141.07 12.88C1140.47 13.2133 1140.17 13.6933 1140.17 14.32C1140.17 14.6933 1140.3 15.0067 1140.55 15.26C1140.82 15.5133 1141.36 15.7733 1142.17 16.04C1143 16.3067 1144.25 16.6533 1145.93 17.08C1147.57 17.5067 1148.89 18.0067 1149.87 18.58C1150.87 19.14 1151.6 19.82 1152.05 20.62C1152.51 21.4067 1152.73 22.36 1152.73 23.48C1152.73 25.6933 1151.93 27.4333 1150.33 28.7C1148.73 29.9667 1146.52 30.6 1143.69 30.6ZM1171.82 30V6.28H1162.74V1.2H1186.34V6.28H1177.26V30H1171.82ZM1196.07 30.6C1193.89 30.6 1191.99 30.1133 1190.35 29.14C1188.71 28.1667 1187.43 26.8267 1186.51 25.12C1185.6 23.4 1185.15 21.4267 1185.15 19.2C1185.15 16.9467 1185.61 14.9667 1186.55 13.26C1187.48 11.54 1188.77 10.2 1190.41 9.24C1192.05 8.28 1193.93 7.8 1196.07 7.8C1198.24 7.8 1200.15 8.28667 1201.79 9.26C1203.44 10.2333 1204.73 11.58 1205.65 13.3C1206.57 15.0067 1207.03 16.9733 1207.03 19.2C1207.03 21.44 1206.56 23.42 1205.63 25.14C1204.71 26.8467 1203.42 28.1867 1201.77 29.16C1200.13 30.12 1198.23 30.6 1196.07 30.6ZM1196.07 25.52C1197.81 25.52 1199.11 24.9333 1199.97 23.76C1200.83 22.5733 1201.27 21.0533 1201.27 19.2C1201.27 17.28 1200.83 15.7467 1199.95 14.6C1199.08 13.4533 1197.79 12.88 1196.07 12.88C1194.88 12.88 1193.91 13.1467 1193.15 13.68C1192.39 14.2133 1191.82 14.9533 1191.45 15.9C1191.09 16.8467 1190.91 17.9467 1190.91 19.2C1190.91 21.1333 1191.34 22.6733 1192.21 23.82C1193.09 24.9533 1194.37 25.52 1196.07 25.52ZM1220.19 30.6C1218.2 30.6 1216.46 30.1 1214.97 29.1C1213.47 28.1 1212.31 26.74 1211.47 25.02C1210.64 23.3 1210.23 21.36 1210.23 19.2C1210.23 17 1210.65 15.0467 1211.49 13.34C1212.34 11.62 1213.53 10.2667 1215.07 9.28C1216.6 8.29333 1218.4 7.8 1220.47 7.8C1222.52 7.8 1224.25 8.3 1225.65 9.3C1227.05 10.3 1228.11 11.66 1228.82 13.38C1229.55 15.1 1229.91 17.04 1229.91 19.2C1229.91 21.36 1229.54 23.3 1228.81 25.02C1228.09 26.74 1227.01 28.1 1225.57 29.1C1224.13 30.1 1222.33 30.6 1220.19 30.6ZM1221.07 25.76C1222.28 25.76 1223.25 25.4867 1223.97 24.94C1224.7 24.3933 1225.23 23.6267 1225.55 22.64C1225.87 21.6533 1226.03 20.5067 1226.03 19.2C1226.03 17.8933 1225.87 16.7467 1225.55 15.76C1225.23 14.7733 1224.71 14.0067 1224.01 13.46C1223.31 12.9133 1222.4 12.64 1221.27 12.64C1220.05 12.64 1219.05 12.94 1218.27 13.54C1217.49 14.1267 1216.92 14.92 1216.55 15.92C1216.17 16.9067 1215.99 18 1215.99 19.2C1215.99 20.4133 1216.17 21.52 1216.53 22.52C1216.89 23.5067 1217.44 24.2933 1218.19 24.88C1218.93 25.4667 1219.89 25.76 1221.07 25.76ZM1226.03 30V15.2H1225.35V1.2H1230.83V30H1226.03ZM1242.43 30.6C1240.88 30.6 1239.57 30.3067 1238.49 29.72C1237.42 29.12 1236.61 28.3267 1236.05 27.34C1235.5 26.34 1235.23 25.24 1235.23 24.04C1235.23 23.04 1235.38 22.1267 1235.69 21.3C1235.99 20.4733 1236.49 19.7467 1237.17 19.12C1237.86 18.48 1238.79 17.9467 1239.95 17.52C1240.75 17.2267 1241.7 16.9667 1242.81 16.74C1243.91 16.5133 1245.17 16.3 1246.57 16.1C1247.97 15.8867 1249.51 15.6533 1251.19 15.4L1249.23 16.48C1249.23 15.2 1248.92 14.26 1248.31 13.66C1247.69 13.06 1246.67 12.76 1245.23 12.76C1244.43 12.76 1243.59 12.9533 1242.73 13.34C1241.86 13.7267 1241.25 14.4133 1240.91 15.4L1235.99 13.84C1236.53 12.0533 1237.56 10.6 1239.07 9.48C1240.57 8.36 1242.63 7.8 1245.23 7.8C1247.13 7.8 1248.83 8.09333 1250.31 8.68C1251.79 9.26666 1252.91 10.28 1253.67 11.72C1254.09 12.52 1254.35 13.32 1254.43 14.12C1254.51 14.92 1254.55 15.8133 1254.55 16.8V30H1249.79V25.56L1250.47 26.48C1249.41 27.9333 1248.27 28.9867 1247.05 29.64C1245.83 30.28 1244.29 30.6 1242.43 30.6ZM1243.59 26.32C1244.59 26.32 1245.43 26.1467 1246.11 25.8C1246.8 25.44 1247.35 25.0333 1247.75 24.58C1248.16 24.1267 1248.44 23.7467 1248.59 23.44C1248.87 22.8533 1249.03 22.1733 1249.07 21.4C1249.12 20.6133 1249.15 19.96 1249.15 19.44L1250.75 19.84C1249.13 20.1067 1247.83 20.3333 1246.83 20.52C1245.83 20.6933 1245.02 20.8533 1244.41 21C1243.79 21.1467 1243.25 21.3067 1242.79 21.48C1242.25 21.6933 1241.82 21.9267 1241.49 22.18C1241.17 22.42 1240.93 22.6867 1240.77 22.98C1240.62 23.2733 1240.55 23.6 1240.55 23.96C1240.55 24.4533 1240.67 24.88 1240.91 25.24C1241.16 25.5867 1241.51 25.8533 1241.97 26.04C1242.42 26.2267 1242.96 26.32 1243.59 26.32ZM1261.29 39.6L1265.45 28.16L1265.53 31.52L1256.13 8.4H1261.77L1268.09 24.76H1266.81L1273.09 8.4H1278.53L1266.33 39.6H1261.29ZM1283.35 30V25.2H1288.79V30H1283.35ZM1283.35 22.8V1.2H1288.79V22.8H1283.35Z" fill="#235BDB"/>
<path d="M447.536 164.091C446.064 164.091 444.741 163.835 443.568 163.323C442.416 162.789 441.509 162.064 440.848 161.147C440.187 160.208 439.845 159.131 439.824 157.915H442.928C443.035 158.96 443.461 159.845 444.208 160.571C444.976 161.275 446.085 161.627 447.536 161.627C448.923 161.627 450.011 161.285 450.8 160.603C451.611 159.899 452.016 159.003 452.016 157.915C452.016 157.061 451.781 156.368 451.312 155.835C450.843 155.301 450.256 154.896 449.552 154.619C448.848 154.341 447.899 154.043 446.704 153.723C445.232 153.339 444.048 152.955 443.152 152.571C442.277 152.187 441.52 151.589 440.88 150.779C440.261 149.947 439.952 148.837 439.952 147.451C439.952 146.235 440.261 145.157 440.88 144.219C441.499 143.28 442.363 142.555 443.472 142.043C444.603 141.531 445.893 141.275 447.344 141.275C449.435 141.275 451.141 141.797 452.464 142.843C453.808 143.888 454.565 145.275 454.736 147.003H451.536C451.429 146.149 450.981 145.403 450.192 144.763C449.403 144.101 448.357 143.771 447.056 143.771C445.84 143.771 444.848 144.091 444.08 144.731C443.312 145.349 442.928 146.224 442.928 147.355C442.928 148.165 443.152 148.827 443.6 149.339C444.069 149.851 444.635 150.245 445.296 150.523C445.979 150.779 446.928 151.077 448.144 151.419C449.616 151.824 450.8 152.229 451.696 152.635C452.592 153.019 453.36 153.627 454 154.459C454.64 155.269 454.96 156.379 454.96 157.787C454.96 158.875 454.672 159.899 454.096 160.859C453.52 161.819 452.667 162.597 451.536 163.195C450.405 163.792 449.072 164.091 447.536 164.091ZM462.157 141.563V163.867H459.245V141.563H462.157ZM484.016 148.027C483.398 146.725 482.502 145.723 481.328 145.019C480.155 144.293 478.79 143.931 477.232 143.931C475.675 143.931 474.267 144.293 473.008 145.019C471.771 145.723 470.79 146.747 470.064 148.091C469.36 149.413 469.008 150.949 469.008 152.699C469.008 154.448 469.36 155.984 470.064 157.307C470.79 158.629 471.771 159.653 473.008 160.379C474.267 161.083 475.675 161.435 477.232 161.435C479.408 161.435 481.2 160.784 482.608 159.483C484.016 158.181 484.838 156.421 485.072 154.203H476.176V151.835H488.176V154.075C488.006 155.909 487.43 157.595 486.448 159.131C485.467 160.645 484.176 161.851 482.576 162.747C480.976 163.621 479.195 164.059 477.232 164.059C475.163 164.059 473.275 163.579 471.568 162.619C469.862 161.637 468.507 160.283 467.504 158.555C466.523 156.827 466.032 154.875 466.032 152.699C466.032 150.523 466.523 148.571 467.504 146.843C468.507 145.093 469.862 143.739 471.568 142.779C473.275 141.797 475.163 141.307 477.232 141.307C479.6 141.307 481.691 141.893 483.504 143.067C485.339 144.24 486.672 145.893 487.504 148.027H484.016ZM509.562 163.867H506.651L494.939 146.107V163.867H492.027V141.531H494.939L506.651 159.259V141.531H509.562V163.867ZM517.439 143.931V151.387H525.567V153.787H517.439V161.467H526.527V163.867H514.527V141.531H526.527V143.931H517.439ZM537.877 141.563C540.309 141.563 542.41 142.021 544.181 142.939C545.973 143.835 547.338 145.125 548.277 146.811C549.237 148.496 549.717 150.48 549.717 152.763C549.717 155.045 549.237 157.029 548.277 158.715C547.338 160.379 545.973 161.659 544.181 162.555C542.41 163.429 540.309 163.867 537.877 163.867H530.933V141.563H537.877ZM537.877 161.467C540.757 161.467 542.954 160.709 544.469 159.195C545.983 157.659 546.741 155.515 546.741 152.763C546.741 149.989 545.973 147.824 544.437 146.267C542.922 144.709 540.735 143.931 537.877 143.931H533.845V161.467H537.877ZM564.937 141.563V155.675C564.937 157.659 565.417 159.131 566.377 160.091C567.358 161.051 568.713 161.531 570.441 161.531C572.148 161.531 573.481 161.051 574.441 160.091C575.422 159.131 575.913 157.659 575.913 155.675V141.563H578.825V155.643C578.825 157.499 578.452 159.067 577.705 160.347C576.958 161.605 575.945 162.544 574.665 163.163C573.406 163.781 571.988 164.091 570.409 164.091C568.83 164.091 567.401 163.781 566.121 163.163C564.862 162.544 563.86 161.605 563.113 160.347C562.388 159.067 562.025 157.499 562.025 155.643V141.563H564.937ZM598.595 148.091C598.595 149.947 597.955 151.493 596.675 152.731C595.416 153.947 593.485 154.555 590.883 154.555H586.595V163.867H583.683V141.563H590.883C593.4 141.563 595.309 142.171 596.611 143.387C597.933 144.603 598.595 146.171 598.595 148.091ZM590.883 152.155C592.504 152.155 593.699 151.803 594.467 151.099C595.235 150.395 595.619 149.392 595.619 148.091C595.619 145.339 594.04 143.963 590.883 143.963H586.595V152.155H590.883ZM617.817 164.091C616.345 164.091 615.023 163.835 613.849 163.323C612.697 162.789 611.791 162.064 611.129 161.147C610.468 160.208 610.127 159.131 610.105 157.915H613.209C613.316 158.96 613.743 159.845 614.489 160.571C615.257 161.275 616.367 161.627 617.817 161.627C619.204 161.627 620.292 161.285 621.081 160.603C621.892 159.899 622.297 159.003 622.297 157.915C622.297 157.061 622.063 156.368 621.593 155.835C621.124 155.301 620.537 154.896 619.833 154.619C619.129 154.341 618.18 154.043 616.985 153.723C615.513 153.339 614.329 152.955 613.433 152.571C612.559 152.187 611.801 151.589 611.161 150.779C610.543 149.947 610.233 148.837 610.233 147.451C610.233 146.235 610.543 145.157 611.161 144.219C611.78 143.28 612.644 142.555 613.753 142.043C614.884 141.531 616.175 141.275 617.625 141.275C619.716 141.275 621.423 141.797 622.745 142.843C624.089 143.888 624.847 145.275 625.017 147.003H621.817C621.711 146.149 621.263 145.403 620.473 144.763C619.684 144.101 618.639 143.771 617.337 143.771C616.121 143.771 615.129 144.091 614.361 144.731C613.593 145.349 613.209 146.224 613.209 147.355C613.209 148.165 613.433 148.827 613.881 149.339C614.351 149.851 614.916 150.245 615.577 150.523C616.26 150.779 617.209 151.077 618.425 151.419C619.897 151.824 621.081 152.229 621.977 152.635C622.873 153.019 623.641 153.627 624.281 154.459C624.921 155.269 625.241 156.379 625.241 157.787C625.241 158.875 624.953 159.899 624.377 160.859C623.801 161.819 622.948 162.597 621.817 163.195C620.687 163.792 619.353 164.091 617.817 164.091ZM632.375 141.563V155.675C632.375 157.659 632.855 159.131 633.815 160.091C634.796 161.051 636.151 161.531 637.879 161.531C639.585 161.531 640.919 161.051 641.879 160.091C642.86 159.131 643.351 157.659 643.351 155.675V141.563H646.263V155.643C646.263 157.499 645.889 159.067 645.142 160.347C644.396 161.605 643.383 162.544 642.103 163.163C640.844 163.781 639.425 164.091 637.847 164.091C636.268 164.091 634.839 163.781 633.559 163.163C632.3 162.544 631.297 161.605 630.551 160.347C629.825 159.067 629.463 157.499 629.463 155.643V141.563H632.375ZM650.032 152.699C650.032 150.523 650.523 148.571 651.504 146.843C652.486 145.093 653.819 143.728 655.504 142.747C657.211 141.765 659.099 141.275 661.168 141.275C663.6 141.275 665.723 141.861 667.536 143.035C669.35 144.208 670.672 145.872 671.504 148.027H668.016C667.398 146.683 666.502 145.648 665.328 144.923C664.176 144.197 662.79 143.835 661.168 143.835C659.611 143.835 658.214 144.197 656.976 144.923C655.739 145.648 654.768 146.683 654.064 148.027C653.36 149.349 653.008 150.907 653.008 152.699C653.008 154.469 653.36 156.027 654.064 157.371C654.768 158.693 655.739 159.717 656.976 160.443C658.214 161.168 659.611 161.531 661.168 161.531C662.79 161.531 664.176 161.179 665.328 160.475C666.502 159.749 667.398 158.715 668.016 157.371H671.504C670.672 159.504 669.35 161.157 667.536 162.331C665.723 163.483 663.6 164.059 661.168 164.059C659.099 164.059 657.211 163.579 655.504 162.619C653.819 161.637 652.486 160.283 651.504 158.555C650.523 156.827 650.032 154.875 650.032 152.699ZM674.751 152.699C674.751 150.523 675.242 148.571 676.223 146.843C677.204 145.093 678.538 143.728 680.223 142.747C681.93 141.765 683.818 141.275 685.887 141.275C688.319 141.275 690.442 141.861 692.255 143.035C694.068 144.208 695.391 145.872 696.223 148.027H692.735C692.116 146.683 691.22 145.648 690.047 144.923C688.895 144.197 687.508 143.835 685.887 143.835C684.33 143.835 682.932 144.197 681.695 144.923C680.458 145.648 679.487 146.683 678.783 148.027C678.079 149.349 677.727 150.907 677.727 152.699C677.727 154.469 678.079 156.027 678.783 157.371C679.487 158.693 680.458 159.717 681.695 160.443C682.932 161.168 684.33 161.531 685.887 161.531C687.508 161.531 688.895 161.179 690.047 160.475C691.22 159.749 692.116 158.715 692.735 157.371H696.223C695.391 159.504 694.068 161.157 692.255 162.331C690.442 163.483 688.319 164.059 685.887 164.059C683.818 164.059 681.93 163.579 680.223 162.619C678.538 161.637 677.204 160.283 676.223 158.555C675.242 156.827 674.751 154.875 674.751 152.699ZM703.47 143.931V151.387H711.598V153.787H703.47V161.467H712.558V163.867H700.558V141.531H712.558V143.931H703.47ZM724.036 164.091C722.564 164.091 721.241 163.835 720.068 163.323C718.916 162.789 718.009 162.064 717.348 161.147C716.687 160.208 716.345 159.131 716.324 157.915H719.428C719.535 158.96 719.961 159.845 720.708 160.571C721.476 161.275 722.585 161.627 724.036 161.627C725.423 161.627 726.511 161.285 727.3 160.603C728.111 159.899 728.516 159.003 728.516 157.915C728.516 157.061 728.281 156.368 727.812 155.835C727.343 155.301 726.756 154.896 726.052 154.619C725.348 154.341 724.399 154.043 723.204 153.723C721.732 153.339 720.548 152.955 719.652 152.571C718.777 152.187 718.02 151.589 717.38 150.779C716.761 149.947 716.452 148.837 716.452 147.451C716.452 146.235 716.761 145.157 717.38 144.219C717.999 143.28 718.863 142.555 719.972 142.043C721.103 141.531 722.393 141.275 723.844 141.275C725.935 141.275 727.641 141.797 728.964 142.843C730.308 143.888 731.065 145.275 731.236 147.003H728.036C727.929 146.149 727.481 145.403 726.692 144.763C725.903 144.101 724.857 143.771 723.556 143.771C722.34 143.771 721.348 144.091 720.58 144.731C719.812 145.349 719.428 146.224 719.428 147.355C719.428 148.165 719.652 148.827 720.1 149.339C720.569 149.851 721.135 150.245 721.796 150.523C722.479 150.779 723.428 151.077 724.644 151.419C726.116 151.824 727.3 152.229 728.196 152.635C729.092 153.019 729.86 153.627 730.5 154.459C731.14 155.269 731.46 156.379 731.46 157.787C731.46 158.875 731.172 159.899 730.596 160.859C730.02 161.819 729.167 162.597 728.036 163.195C726.905 163.792 725.572 164.091 724.036 164.091ZM742.817 164.091C741.345 164.091 740.023 163.835 738.849 163.323C737.697 162.789 736.791 162.064 736.129 161.147C735.468 160.208 735.127 159.131 735.105 157.915H738.209C738.316 158.96 738.743 159.845 739.489 160.571C740.257 161.275 741.367 161.627 742.817 161.627C744.204 161.627 745.292 161.285 746.081 160.603C746.892 159.899 747.297 159.003 747.297 157.915C747.297 157.061 747.063 156.368 746.593 155.835C746.124 155.301 745.537 154.896 744.833 154.619C744.129 154.341 743.18 154.043 741.985 153.723C740.513 153.339 739.329 152.955 738.433 152.571C737.559 152.187 736.801 151.589 736.161 150.779C735.543 149.947 735.233 148.837 735.233 147.451C735.233 146.235 735.543 145.157 736.161 144.219C736.78 143.28 737.644 142.555 738.753 142.043C739.884 141.531 741.175 141.275 742.625 141.275C744.716 141.275 746.423 141.797 747.745 142.843C749.089 143.888 749.847 145.275 750.017 147.003H746.817C746.711 146.149 746.263 145.403 745.473 144.763C744.684 144.101 743.639 143.771 742.337 143.771C741.121 143.771 740.129 144.091 739.361 144.731C738.593 145.349 738.209 146.224 738.209 147.355C738.209 148.165 738.433 148.827 738.881 149.339C739.351 149.851 739.916 150.245 740.577 150.523C741.26 150.779 742.209 151.077 743.425 151.419C744.897 151.824 746.081 152.229 746.977 152.635C747.873 153.019 748.641 153.627 749.281 154.459C749.921 155.269 750.241 156.379 750.241 157.787C750.241 158.875 749.953 159.899 749.377 160.859C748.801 161.819 747.948 162.597 746.817 163.195C745.687 163.792 744.353 164.091 742.817 164.091ZM767.135 141.563V143.931H757.439V151.451H765.311V153.819H757.439V163.867H754.527V141.563H767.135ZM773.5 141.563V155.675C773.5 157.659 773.98 159.131 774.94 160.091C775.921 161.051 777.276 161.531 779.004 161.531C780.71 161.531 782.044 161.051 783.004 160.091C783.985 159.131 784.476 157.659 784.476 155.675V141.563H787.388V155.643C787.388 157.499 787.014 159.067 786.267 160.347C785.521 161.605 784.508 162.544 783.228 163.163C781.969 163.781 780.55 164.091 778.972 164.091C777.393 164.091 775.964 163.781 774.684 163.163C773.425 162.544 772.422 161.605 771.676 160.347C770.95 159.067 770.588 157.499 770.588 155.643V141.563H773.5ZM795.157 161.499H802.965V163.867H792.245V141.563H795.157V161.499ZM808.97 161.499H816.778V163.867H806.058V141.563H808.97V161.499ZM835.486 141.563L828.222 155.451V163.867H825.31V155.451L818.014 141.563H821.246L826.75 152.859L832.254 141.563H835.486ZM842.334 141.563L841.982 157.563H839.55L839.198 141.563H842.334ZM840.894 164.059C840.339 164.059 839.87 163.867 839.486 163.483C839.102 163.099 838.91 162.629 838.91 162.075C838.91 161.52 839.102 161.051 839.486 160.667C839.87 160.283 840.339 160.091 840.894 160.091C841.427 160.091 841.875 160.283 842.238 160.667C842.622 161.051 842.814 161.52 842.814 162.075C842.814 162.629 842.622 163.099 842.238 163.483C841.875 163.867 841.427 164.059 840.894 164.059Z" fill="black"/>
<path d="M311.249 277.667C317.876 277.667 323.249 272.294 323.249 265.667C323.249 259.039 317.876 253.667 311.249 253.667C304.621 253.667 299.249 259.039 299.249 265.667C299.249 272.294 304.621 277.667 311.249 277.667Z" fill="#C19CFC"/>
<path d="M1181.36 427.31L1201.85 421.819L1196.36 401.329L1216.85 395.838L1211.36 375.348L1231.85 369.858" stroke="#00A7E5" stroke-width="8" stroke-linecap="round" stroke-linejoin="round"/>
<path d="M1082.19 217.447C1085.77 212.32 1090.55 208.144 1096.11 205.278C1101.67 202.413 1107.85 200.945 1114.1 201.002C1120.36 201.059 1126.5 202.639 1132.01 205.605C1137.52 208.571 1142.22 212.835 1145.7 218.026" stroke="#E2A21F" stroke-width="8"/>
<path d="M323.248 83L344.033 119H302.463L323.248 83Z" fill="#00CC67"/>
<path d="M67.2487 316.667L91.4977 330.667V358.667L67.2487 372.667L43 358.667V330.667L67.2487 316.667Z" fill="#D9DBE9"/>
<g clip-path="url(#clip0_0_1)">
<path d="M528.335 565.852C534.82 551.087 538.915 534.05 539.301 514.293C541.175 417.659 650.439 343.088 771.646 425.053C892.853 507.018 785.73 732.509 785.73 732.509" stroke="#CCDDE2" stroke-width="4.47" stroke-miterlimit="10"/>
<path d="M443.593 732.509C438.237 728.301 397.411 688.383 421.933 665.537C432.411 655.786 454.962 644.399 477.553 627.039" stroke="#CCDDE2" stroke-width="4.47" stroke-miterlimit="10"/>
<path d="M735.738 490.299C736.178 492.586 737.334 494.674 739.037 496.262" stroke="#CCDDE2" stroke-width="4.47" stroke-miterlimit="10"/>
<path d="M640.58 534.176C639.74 534.398 639.03 534.557 638.468 534.687C638.047 534.761 637.701 534.835 637.462 534.869H637.411L637.082 534.926C637.082 534.926 637.048 534.886 637.025 534.886C631.346 530.718 633.09 522.96 633.09 522.96C650.07 525.635 653.591 511.88 653.591 511.88C653.369 505.287 652.114 502.186 649.218 500.403C646.191 498.506 641.364 498.018 633.987 496.428L632.766 496.155C621.794 493.662 616.677 482.401 614.656 476.154C614.185 474.77 613.805 473.356 613.52 471.923C601.094 476.591 593.314 483.201 588.833 488.159C587.061 453.012 622.339 458.06 622.339 458.06C628.276 458.146 634.175 459.008 639.887 460.627C641.182 461.195 642.42 461.763 643.601 462.331C644.169 462.621 644.771 462.933 645.305 463.257C645.839 463.58 646.441 463.898 646.963 464.222C647.344 464.444 647.73 464.682 648.099 464.932C655.86 469.857 662.063 476.883 665.988 485.195C666.044 485.307 666.093 485.423 666.136 485.541C666.315 485.926 666.472 486.32 666.607 486.722C674.592 521.66 649.956 531.66 640.58 534.176Z" fill="#3FBDF1"/>
<path d="M640.58 534.174C638.104 530.057 639.251 525.088 639.251 525.088C656.215 527.768 659.747 514.014 659.747 514.014C659.383 503.9 656.652 502.003 649.218 500.384C646.464 499.765 643.079 499.197 638.922 498.272C637.196 497.884 635.534 497.251 633.987 496.392C622.691 490.202 619.647 474.022 619.647 474.022C617.898 474.675 616.24 475.385 614.656 476.118C614.185 474.734 613.805 473.321 613.52 471.887C601.094 476.555 593.314 483.165 588.833 488.123C587.061 452.976 622.339 458.025 622.339 458.025C628.276 458.11 634.175 458.973 639.887 460.591C641.182 461.159 642.42 461.727 643.601 462.295C644.169 462.585 644.771 462.897 645.305 463.221C645.839 463.545 646.441 463.863 646.963 464.186C647.344 464.408 647.73 464.646 648.099 464.896C655.86 469.822 662.063 476.848 665.988 485.159C666.044 485.272 666.093 485.387 666.136 485.505C666.315 485.89 666.472 486.284 666.607 486.686C674.592 521.658 649.956 531.658 640.58 534.174Z" fill="#3FBDF1"/>
<path d="M700.113 689.729C702.737 706.857 705.945 723.707 709.296 732.509H558.683C540.55 681.023 549.148 624.778 549.148 624.778L522.4 625.619C538.489 597.394 532.764 573.531 530.05 565.569C551.062 561.997 572.074 559.192 593.308 558.953C592.74 571.106 606.006 585.076 625.139 581.402C632.896 579.926 642.352 576.859 642.556 563.269L647.548 564.144C654.454 565.279 660.701 566.495 666.624 567.863C681.957 571.396 695.133 575.814 711.551 581.402C688.835 598.218 700.124 637.056 700.124 637.056L700.692 638.351L693.44 637.056C693.44 637.056 696.126 663.697 700.113 689.729Z" fill="#353642"/>
<path d="M543.85 315.425C558.867 315.425 571.041 303.251 571.041 288.234C571.041 273.216 558.867 261.042 543.85 261.042C528.833 261.042 516.659 273.216 516.659 288.234C516.659 303.251 528.833 315.425 543.85 315.425Z" fill="#3FBDF1"/>
<path d="M552.789 279.16C552.406 278.275 551.891 277.453 551.261 276.724C550.186 275.445 548.682 274.604 547.031 274.357C545.38 274.11 543.695 274.475 542.294 275.383C541.378 275.975 540.613 276.772 540.058 277.712C539.505 278.652 539.177 279.707 539.102 280.795C537.672 280.278 536.113 280.239 534.659 280.684C533.204 281.128 531.934 282.032 531.038 283.261C530.142 284.49 529.668 285.976 529.689 287.496C529.709 289.016 530.222 290.49 531.152 291.694C533.099 294.232 536.41 295.902 539.409 296.873C540.982 297.373 542.601 297.718 544.242 297.901C545.071 297.992 549.813 298.628 550.256 297.901C553.152 293.284 555.253 284.805 552.789 279.16Z" fill="white"/>
<path d="M498.1 279.398C496.316 279.199 494.51 279.074 492.71 278.977C490.779 279.074 488.848 279.216 486.918 279.455C480.819 280.135 474.846 281.664 469.171 283.998C466.629 285.043 464.178 286.299 461.845 287.752C460.161 288.764 458.549 289.889 457.018 291.119C455.887 289.499 454.981 287.734 454.32 285.872C453.196 282.73 452.784 279.378 453.112 276.057C453.44 272.736 454.5 269.529 456.217 266.668C457.934 263.806 460.263 261.361 463.039 259.508C465.814 257.656 468.966 256.441 472.267 255.954C475.569 255.466 478.937 255.717 482.13 256.687C485.322 257.658 488.26 259.325 490.73 261.568C493.201 263.811 495.144 266.574 496.418 269.658C497.692 272.742 498.266 276.071 498.1 279.403V279.398Z" fill="#3FBDF1"/>
<path d="M486.918 279.454C480.82 280.134 474.846 281.664 469.171 283.997C468.841 283.122 468.569 282.293 468.478 282.009C468.023 280.719 467.694 279.388 467.496 278.034C467.149 275.444 467.2 272.355 468.404 269.998C468.966 268.866 469.882 267.949 471.012 267.383C472.142 266.817 473.426 266.635 474.669 266.863C475.912 267.092 477.046 267.719 477.902 268.649C478.757 269.579 479.287 270.762 479.41 272.02C480.254 271.691 481.162 271.559 482.064 271.636C482.967 271.711 483.84 271.992 484.618 272.457C485.77 273.16 486.634 274.25 487.056 275.532C487.477 276.814 487.428 278.204 486.918 279.454Z" fill="white"/>
<path d="M461.844 287.746C460.161 288.757 458.548 289.883 457.017 291.114C455.991 291.908 455.006 292.753 454.064 293.646C452.858 294.797 451.795 296.09 450.901 297.497C450.064 298.806 449.338 300.184 448.732 301.614C447.815 303.802 447.084 306.062 446.545 308.372C445.466 313.354 444.814 318.419 444.597 323.512C440.604 321.518 437.399 318.237 435.497 314.199C433.595 310.16 433.108 305.6 434.114 301.251C435.12 296.902 437.56 293.018 441.043 290.225C444.525 287.432 448.845 285.893 453.309 285.855C453.655 285.855 453.979 285.855 454.325 285.855C456.933 285.98 459.489 286.623 461.844 287.746Z" fill="#3FBDF1"/>
<path d="M450.901 297.497C450.064 298.807 449.338 300.184 448.732 301.615C447.815 303.802 447.084 306.063 446.545 308.373C445.364 306.731 444.359 304.767 444.2 302.802C444.144 302.095 444.235 301.385 444.467 300.715C444.698 300.046 445.065 299.431 445.545 298.909C446.024 298.387 446.606 297.97 447.254 297.683C447.902 297.396 448.602 297.246 449.311 297.242C449.852 297.235 450.39 297.322 450.901 297.497Z" fill="white"/>
<g opacity="0.72">
<path opacity="0.72" d="M575.283 284.81C583.55 284.81 590.253 278.109 590.253 269.841C590.253 261.573 583.55 254.871 575.283 254.871C567.015 254.871 560.313 261.573 560.313 269.841C560.313 278.109 567.015 284.81 575.283 284.81Z" fill="#3FBDF1"/>
<path opacity="0.72" d="M581.78 272.51C582.148 272.129 582.458 271.697 582.7 271.226C583.127 270.411 583.241 269.469 583.022 268.575C582.802 267.682 582.263 266.9 581.508 266.376C581.016 266.037 580.453 265.816 579.862 265.73C579.271 265.645 578.668 265.697 578.1 265.882C578.069 265.043 577.766 264.236 577.236 263.585C576.706 262.934 575.979 262.473 575.163 262.271C574.348 262.07 573.489 262.139 572.717 262.469C571.945 262.799 571.301 263.371 570.882 264.099C569.996 265.627 569.837 267.66 569.974 269.392C570.046 270.298 570.209 271.194 570.462 272.067C570.587 272.51 571.251 275.054 571.706 275.133C574.659 275.633 579.418 274.935 581.78 272.51Z" fill="white"/>
</g>
<g opacity="0.72">
<path opacity="0.72" d="M568.611 437.444C574.513 437.444 579.299 432.659 579.299 426.756C579.299 420.853 574.513 416.068 568.611 416.068C562.708 416.068 557.923 420.853 557.923 426.756C557.923 432.659 562.708 437.444 568.611 437.444Z" fill="#3FBDF1"/>
<path opacity="0.72" d="M573.245 428.682C573.508 428.41 573.728 428.1 573.898 427.762C574.203 427.182 574.284 426.51 574.129 425.873C573.973 425.236 573.59 424.678 573.052 424.303C572.699 424.059 572.294 423.9 571.87 423.839C571.445 423.778 571.012 423.816 570.604 423.951C570.579 423.354 570.361 422.782 569.983 422.319C569.605 421.857 569.087 421.529 568.507 421.385C567.927 421.241 567.316 421.289 566.766 421.521C566.216 421.754 565.755 422.158 565.454 422.674C564.875 423.845 564.648 425.159 564.8 426.456C564.853 427.102 564.971 427.741 565.153 428.364C565.243 428.676 565.72 430.499 566.038 430.55C568.162 430.891 571.558 430.386 573.245 428.682Z" fill="white"/>
</g>
<path d="M544.836 298.456L537.722 313.498C535.14 318.956 537.473 325.473 542.931 328.054L557.973 335.168C563.431 337.749 569.948 335.416 572.529 329.959L579.643 314.916C582.225 309.458 579.892 302.941 574.434 300.36L559.392 293.246C553.934 290.665 547.417 292.998 544.836 298.456Z" fill="#3FBDF1"/>
<path d="M575.591 317.554L570.44 328.446C569.362 330.721 567.427 332.477 565.057 333.328C562.688 334.18 560.078 334.058 557.798 332.989L544.737 326.811C542.462 325.731 540.708 323.796 539.857 321.427C539.005 319.059 539.126 316.449 540.193 314.169L540.54 313.431C544.089 310.591 550.228 306.775 552.466 311.983C555.691 319.479 559.883 317.054 565.244 313.919C569.741 311.267 575.114 310.387 575.591 317.554Z" fill="white"/>
<path d="M555.344 305.971C557.564 305.971 559.365 304.171 559.365 301.95C559.365 299.73 557.564 297.929 555.344 297.929C553.123 297.929 551.323 299.73 551.323 301.95C551.323 304.171 553.123 305.971 555.344 305.971Z" fill="white"/>
<path d="M594.473 347.625L585.103 367.437C581.706 374.621 584.776 383.2 591.961 386.598L611.772 395.967C618.957 399.365 627.536 396.295 630.934 389.11L640.303 369.299C643.701 362.114 640.631 353.535 633.446 350.137L613.634 340.768C606.449 337.37 597.87 340.44 594.473 347.625Z" fill="#3FBDF1"/>
<path d="M634.959 372.778L628.144 387.117C626.72 390.108 624.17 392.414 621.051 393.53C617.932 394.646 614.497 394.483 611.499 393.074L594.326 384.953C591.334 383.529 589.029 380.979 587.912 377.86C586.796 374.741 586.96 371.307 588.368 368.308L588.828 367.337C593.502 363.612 601.578 358.574 604.525 365.429C608.779 375.299 614.293 372.107 621.352 367.978C627.252 364.508 634.334 363.339 634.959 372.778Z" fill="white"/>
<path d="M608.301 357.523C611.224 357.523 613.593 355.153 613.593 352.23C613.593 349.307 611.224 346.938 608.301 346.938C605.378 346.938 603.008 349.307 603.008 352.23C603.008 355.153 605.378 357.523 608.301 357.523Z" fill="white"/>
<path d="M632.965 291.182C633.754 292.634 634.328 294.193 634.669 295.81C635.274 298.786 635.096 301.868 634.153 304.755C633.211 307.641 631.535 310.234 629.291 312.279C627.514 313.852 625.248 315.085 623.442 316.732C622.129 317.867 621.163 319.35 620.653 321.008C620.558 321.574 620.331 322.109 619.989 322.57C618.933 323.705 617.905 321.922 616.99 321.598C615.523 321.123 613.933 321.202 612.521 321.82C608.81 323.35 604.685 323.554 600.84 322.399C596.996 321.244 593.667 318.8 591.414 315.478C589.16 312.156 588.121 308.159 588.469 304.16C588.817 300.161 590.532 296.404 593.326 293.521C596.109 290.682 599.755 288.882 603.27 287.019C606.371 285.372 609.454 283.612 612.816 282.641C620.733 280.289 629.143 284.214 632.965 291.182Z" fill="#3FBDF1"/>
<path d="M601.208 311.716C603.3 311.716 604.996 310.021 604.996 307.928C604.996 305.836 603.3 304.141 601.208 304.141C599.116 304.141 597.42 305.836 597.42 307.928C597.42 310.021 599.116 311.716 601.208 311.716Z" fill="white"/>
<path d="M611.413 306.259C613.506 306.259 615.201 304.564 615.201 302.471C615.201 300.379 613.506 298.684 611.413 298.684C609.321 298.684 607.625 300.379 607.625 302.471C607.625 304.564 609.321 306.259 611.413 306.259Z" fill="white"/>
<path d="M620.988 301.137C623.08 301.137 624.776 299.441 624.776 297.349C624.776 295.257 623.08 293.561 620.988 293.561C618.895 293.561 617.2 295.257 617.2 297.349C617.2 299.441 618.895 301.137 620.988 301.137Z" fill="white"/>
<path d="M750.582 546.27V546.361L749.18 578.606L748.396 596.274C748.396 595.621 748.43 594.945 748.47 594.292C738.776 591.049 726.322 586.438 716.713 583.178C697.802 576.727 683.553 571.769 666.613 567.873C665.59 562.938 664.625 552.352 669.378 536.9C676.193 514.854 678.436 492.484 674.972 488.163C674.939 488.113 674.897 488.071 674.847 488.038C672.382 479.15 665.863 484.903 665.863 484.903C665.863 484.903 665.903 484.994 665.92 485.045C664.563 482.796 663.072 480.63 661.456 478.559C661.51 478.238 661.595 477.922 661.712 477.617C663.807 471.313 674.972 469.797 674.972 469.797C691.316 471.001 699.914 478.287 704.253 487.856C708.075 499.935 705.82 513.031 705.326 525.423C705.128 530.795 704.361 539.052 708.461 543.402C712.249 550.563 721.778 547.468 724.362 546.685C725.203 546.446 727.384 546.299 730.246 546.208C736.078 546.066 744.659 546.174 749.89 546.264C750.145 546.27 750.367 546.27 750.582 546.27Z" fill="#3FBDF1"/>
<path d="M524.388 256.444C523.198 256.709 521.976 256.8 520.759 256.716C518.529 256.54 516.381 255.787 514.529 254.532C512.676 253.277 511.181 251.562 510.191 249.555C509.435 247.971 509.055 246.113 508.231 244.501C507.694 243.342 506.842 242.359 505.772 241.661C505.39 241.479 505.057 241.209 504.801 240.872C504.233 239.895 505.687 239.532 506.102 238.952C506.735 238.01 507.004 236.869 506.857 235.744C506.52 232.797 507.21 229.825 508.812 227.329C510.414 224.833 512.829 222.967 515.649 222.047C518.468 221.126 521.519 221.208 524.284 222.278C527.05 223.348 529.362 225.34 530.828 227.918C532.271 230.468 532.799 233.415 533.401 236.283C533.935 238.81 534.537 241.349 534.537 243.933C534.588 250.004 530.096 255.16 524.388 256.444Z" fill="#3FBDF1"/>
<path d="M519.004 233.335C520.544 233.335 521.793 232.087 521.793 230.547C521.793 229.007 520.544 227.758 519.004 227.758C517.464 227.758 516.216 229.007 516.216 230.547C516.216 232.087 517.464 233.335 519.004 233.335Z" fill="white"/>
<path d="M520.788 241.672C522.328 241.672 523.576 240.423 523.576 238.883C523.576 237.343 522.328 236.095 520.788 236.095C519.248 236.095 518 237.343 518 238.883C518 240.423 519.248 241.672 520.788 241.672Z" fill="white"/>
<path d="M522.463 249.498C524.003 249.498 525.252 248.25 525.252 246.71C525.252 245.17 524.003 243.921 522.463 243.921C520.923 243.921 519.675 245.17 519.675 246.71C519.675 248.25 520.923 249.498 522.463 249.498Z" fill="white"/>
<g opacity="0.72">
<path opacity="0.72" d="M690.646 357.825C702.351 357.825 711.84 348.336 711.84 336.631C711.84 324.926 702.351 315.437 690.646 315.437C678.941 315.437 669.452 324.926 669.452 336.631C669.452 348.336 678.941 357.825 690.646 357.825Z" fill="#3FBDF1"/>
<path opacity="0.72" d="M691.441 346.529C692.156 346.757 692.901 346.874 693.65 346.875C694.952 346.892 696.216 346.434 697.203 345.586C698.191 344.738 698.836 343.559 699.017 342.27C699.134 341.428 699.053 340.571 698.782 339.766C698.512 338.961 698.057 338.23 697.455 337.63C698.494 337.053 699.316 336.154 699.8 335.069C700.283 333.983 700.4 332.771 700.135 331.613C699.868 330.455 699.233 329.415 698.325 328.65C697.417 327.884 696.285 327.434 695.098 327.368C692.605 327.226 689.936 328.322 687.829 329.594C686.733 330.265 685.705 331.043 684.763 331.917C684.28 332.36 681.486 334.83 681.679 335.449C682.928 339.521 686.853 345.104 691.441 346.529Z" fill="white"/>
</g>
<path d="M700.488 423.133C699.163 425.059 697.564 426.781 695.741 428.244C692.366 430.911 688.356 432.656 684.105 433.309C679.854 433.962 675.505 433.5 671.486 431.97C668.356 430.726 665.358 428.642 662.121 427.427C659.848 426.494 657.359 426.219 654.937 426.632C654.162 426.873 653.341 426.928 652.54 426.791C650.439 426.177 652.029 423.747 651.853 422.384C651.517 420.227 650.405 418.268 648.724 416.875C644.392 413.167 641.474 408.076 640.465 402.464C639.456 396.852 640.418 391.063 643.188 386.078C645.958 381.094 650.365 377.22 655.664 375.113C660.963 373.005 666.827 372.795 672.264 374.515C677.636 376.219 682.23 379.678 686.83 382.932C690.885 385.8 695.059 388.611 698.455 392.2C706.457 400.724 706.86 413.865 700.488 423.133Z" fill="#3FBDF1"/>
<path d="M659.06 399.054C662.021 399.054 664.421 396.654 664.421 393.693C664.421 390.732 662.021 388.332 659.06 388.332C656.099 388.332 653.699 390.732 653.699 393.693C653.699 396.654 656.099 399.054 659.06 399.054Z" fill="white"/>
<path d="M672.468 408.471C675.429 408.471 677.829 406.071 677.829 403.11C677.829 400.149 675.429 397.749 672.468 397.749C669.507 397.749 667.107 400.149 667.107 403.11C667.107 406.071 669.507 408.471 672.468 408.471Z" fill="white"/>
<path d="M685.053 417.3C688.014 417.3 690.414 414.9 690.414 411.939C690.414 408.978 688.014 406.578 685.053 406.578C682.092 406.578 679.692 408.978 679.692 411.939C679.692 414.9 682.092 417.3 685.053 417.3Z" fill="white"/>
<g opacity="0.54">
<path opacity="0.54" d="M537.688 264.048C537.617 264.974 537.475 265.893 537.262 266.797L534.888 277.093C534.162 280.245 533.344 283.567 531.089 285.884C526.887 290.183 519.85 289.2 513.984 287.894L499.582 284.697C496.277 283.959 492.915 283.209 489.928 281.562C486.941 279.915 484.396 277.24 483.681 273.918C483.175 271.47 483.721 268.943 484.249 266.501L486.492 256.608C487.213 253.371 488.031 249.947 490.365 247.596C494.528 243.399 501.422 244.353 507.198 245.603L521.923 248.8C530.817 250.748 538.398 254.871 537.688 264.048Z" fill="#3FBDF1"/>
<path opacity="0.54" d="M517.829 264.325C518.445 264.899 518.899 265.625 519.146 266.43C519.392 267.236 519.423 268.092 519.234 268.912C519.045 269.733 518.644 270.489 518.07 271.105C517.497 271.722 516.771 272.176 515.966 272.424L511.576 273.769L507.192 275.11C506.385 275.358 505.527 275.389 504.705 275.199C503.882 275.009 503.125 274.606 502.508 274.03C501.891 273.454 501.437 272.726 501.192 271.918C500.946 271.111 500.918 270.252 501.11 269.431L502.138 264.956L503.166 260.486C503.356 259.666 503.758 258.909 504.333 258.294C504.907 257.677 505.633 257.223 506.438 256.977C507.244 256.73 508.1 256.699 508.921 256.887C509.742 257.076 510.499 257.477 511.116 258.05L514.472 261.179L517.829 264.325Z" fill="white"/>
</g>
<g opacity="0.54">
<path opacity="0.54" d="M699.529 283.866C699.457 284.792 699.315 285.711 699.103 286.615L696.729 296.928C696.002 300.08 695.184 303.402 692.93 305.713C688.727 310.018 681.691 309.03 675.824 307.729L661.422 304.526C658.117 303.794 654.755 303.038 651.768 301.397C648.781 299.756 646.237 297.07 645.521 293.753C645.016 291.306 645.561 288.778 646.089 286.336L648.338 276.483C649.054 273.241 649.871 269.822 652.205 267.465C656.368 263.274 663.262 264.222 669.038 265.477L683.741 268.652C692.657 270.577 700.238 274.706 699.529 283.866Z" fill="#3FBDF1"/>
<path opacity="0.54" d="M679.669 284.155C680.285 284.73 680.739 285.456 680.985 286.261C681.232 287.067 681.262 287.923 681.073 288.744C680.885 289.565 680.483 290.321 679.91 290.939C679.337 291.555 678.611 292.011 677.806 292.259L673.417 293.599L669.032 294.945C668.225 295.193 667.368 295.223 666.545 295.034C665.723 294.845 664.965 294.442 664.348 293.866C663.731 293.289 663.277 292.561 663.032 291.754C662.786 290.946 662.758 290.088 662.95 289.266L663.978 284.797L665.006 280.327C665.196 279.507 665.598 278.75 666.173 278.134C666.747 277.518 667.473 277.064 668.279 276.817C669.084 276.571 669.94 276.54 670.762 276.728C671.582 276.917 672.339 277.318 672.957 277.891L676.313 281.02L679.669 284.155Z" fill="white"/>
</g>
<g opacity="0.54">
<path opacity="0.54" d="M631.567 422.025C631.532 422.456 631.463 422.883 631.363 423.303L630.261 428.113C629.92 429.578 629.54 431.123 628.489 432.202C626.536 434.207 623.259 433.747 620.539 433.139L613.832 431.651C612.275 431.381 610.764 430.889 609.345 430.192C608.638 429.837 608.014 429.337 607.515 428.723C607.015 428.109 606.652 427.396 606.449 426.631C606.295 425.474 606.385 424.298 606.716 423.178L607.738 418.578C608.073 417.073 608.454 415.477 609.544 414.381C611.481 412.428 614.689 412.871 617.376 413.456L624.236 414.944C628.364 415.83 631.897 417.749 631.567 422.025Z" fill="#3FBDF1"/>
<path opacity="0.54" d="M622.316 422.155C622.603 422.422 622.816 422.76 622.931 423.136C623.046 423.511 623.06 423.91 622.972 424.292C622.884 424.675 622.697 425.027 622.429 425.314C622.161 425.601 621.822 425.812 621.447 425.926L619.408 426.551L617.364 427.176C616.988 427.293 616.589 427.309 616.205 427.222C615.822 427.135 615.468 426.949 615.18 426.681C614.892 426.414 614.679 426.075 614.565 425.699C614.449 425.323 614.435 424.923 614.524 424.541L615.024 422.434L615.501 420.35C615.588 419.966 615.774 419.612 616.042 419.324C616.309 419.036 616.648 418.824 617.023 418.708C617.399 418.593 617.799 418.579 618.181 418.668C618.564 418.757 618.917 418.945 619.204 419.214L620.765 420.668L622.316 422.155Z" fill="white"/>
</g>
<g opacity="0.54">
<path opacity="0.54" d="M560.87 222.607C561.335 222.85 561.784 223.125 562.21 223.431L566.98 226.918C568.446 227.98 569.973 229.133 570.666 230.802C571.955 233.909 569.899 237.31 567.94 240.036L563.13 246.738C562.1 248.333 560.845 249.771 559.405 251.008C557.905 252.144 555.963 252.905 554.106 252.525C552.737 252.252 551.556 251.389 550.42 250.599L545.82 247.3C544.316 246.221 542.737 245.028 542.038 243.324C540.795 240.258 542.799 236.924 544.713 234.238L549.591 227.366C552.516 223.221 556.304 220.228 560.87 222.607Z" fill="#3FBDF1"/>
<path opacity="0.54" d="M556.645 232.882C557.074 232.692 557.545 232.618 558.011 232.666C558.477 232.715 558.922 232.886 559.302 233.16C559.682 233.435 559.983 233.805 560.176 234.232C560.368 234.659 560.445 235.13 560.399 235.596L560.126 238.152L559.854 240.708C559.804 241.176 559.632 241.623 559.354 242.003C559.076 242.384 558.704 242.684 558.273 242.875C557.842 243.066 557.369 243.139 556.901 243.089C556.433 243.038 555.986 242.865 555.606 242.587L553.533 241.077L551.46 239.572C551.078 239.295 550.776 238.922 550.585 238.491C550.394 238.06 550.319 237.586 550.369 237.117C550.419 236.648 550.592 236.201 550.871 235.82C551.149 235.44 551.523 235.139 551.954 234.949L554.3 233.91L556.645 232.882Z" fill="white"/>
</g>
<path d="M785.707 651.3C785.704 651.399 785.693 651.498 785.673 651.595C785.664 651.619 785.664 651.645 785.673 651.669C784.874 656.973 782.672 661.966 779.295 666.133C779.255 666.168 779.238 666.224 779.204 666.258C774.014 672.727 766.489 677.395 758.874 680.325C751.093 683.352 743.205 684.573 737.589 684.153H737.464C730.592 683.642 723.05 684.533 716.451 685.771C715.758 685.902 715.066 686.027 714.373 686.175C710.017 687.049 705.718 688.14 701.459 689.344L700.658 689.565L700.124 689.707C696.149 663.674 693.457 637.017 693.457 637.017L774.667 651.448C778.322 652.111 782.071 652.061 785.707 651.3Z" fill="#3FBDF1"/>
<path d="M618.932 527.553C614.662 531.789 608.943 532.607 603.326 533.856C590.565 536.696 579.866 533.47 579.304 518.801C578.941 509.363 579.94 499.919 585.653 492.082C592.496 482.694 603.008 476.442 613.48 471.876C613.48 471.876 618.285 496.454 640.172 497.522C662.059 498.59 656.732 527.445 631.085 522.635" stroke="black" stroke-width="4.47" stroke-miterlimit="10"/>
<path d="M635.384 534.926C635.952 534.926 636.475 534.926 637.003 534.886C637.131 534.877 637.261 534.877 637.389 534.886H637.44L638.445 534.795" stroke="black" stroke-width="4.47" stroke-miterlimit="10"/>
<path d="M659.633 474.892C656.045 470.626 651.756 467.002 646.952 464.175C646.418 463.823 645.864 463.501 645.294 463.21C644.726 462.886 644.158 462.574 643.59 462.284C642.392 461.665 641.148 461.08 639.876 460.581C632.366 457.436 624.302 455.828 616.16 455.85C572.364 455.85 584.534 493.746 584.534 493.746" stroke="black" stroke-width="4.47" stroke-miterlimit="10"/>
<path d="M666.903 567.5C665.392 559.447 667.284 546.913 669.379 536.89C671.259 527.963 673.315 521.04 673.315 521.04C676.415 502.822 676.285 493.054 674.848 488.028C672.383 479.152 665.864 484.904 665.864 484.904" stroke="black" stroke-width="4.47" stroke-miterlimit="10"/>
<path d="M674.848 488.028C672.383 479.152 665.864 484.905 665.864 484.905C664.737 482.338 663.345 479.896 661.712 477.618C661.053 476.702 660.361 475.809 659.634 474.938C661.582 469.764 666.778 466.681 672.127 466.266C686.172 465.187 700.017 474.484 704.248 487.846C708.07 499.926 705.815 513.021 705.321 525.413C705.122 530.785 704.356 539.043 708.456 543.393C708.672 543.614 708.876 543.813 709.109 544.012C712.517 546.948 717.946 547.112 724.38 546.675C726.254 546.545 728.225 546.386 730.263 546.198C736.51 545.63 743.325 545.142 749.907 546.255L750.56 546.363C750.361 557.096 749.703 567.864 749.158 578.597C748.868 583.822 748.59 589.052 748.448 594.282C738.754 591.04 726.3 586.428 716.691 583.168L711.568 581.402C695.15 575.808 681.998 571.396 666.642 567.864C660.718 566.495 654.471 565.274 647.566 564.144L640.223 562.855C639.73 562.769 639.285 562.511 638.964 562.127C638.644 561.744 638.47 561.259 638.474 560.759V534.778C643.378 534.361 648.118 532.816 652.325 530.262C656.532 527.708 660.091 524.216 662.723 520.058C669.827 508.631 670.503 496.938 666.619 486.676C666.48 486.266 666.32 485.864 666.136 485.472C666.094 485.354 666.044 485.239 665.988 485.126C665.988 485.092 665.954 485.035 665.937 484.995" stroke="black" stroke-width="4.47" stroke-miterlimit="10"/>
<path d="M485.294 581.402C487.566 563.797 488.61 545.891 490.814 528.184" stroke="black" stroke-width="4.47" stroke-miterlimit="10"/>
<path d="M491.177 525.414C491.796 520.62 492.529 515.827 493.449 511.091C493.483 510.858 493.523 510.637 493.574 510.421C494.085 507.616 494.653 504.827 495.277 502.039C497.174 493.696 503.796 487.591 508.504 480.794L508.794 480.067C518.95 465.29 524.574 447.87 524.973 429.944C525.087 423.458 524.831 410.635 517.397 407.989C513.223 406.495 508.794 409.414 506.482 412.748C505.533 414.124 504.769 415.619 504.211 417.194" stroke="black" stroke-width="4.47" stroke-miterlimit="10"/>
<path d="M558.684 732.507C540.551 681.021 549.149 624.777 549.149 624.777L522.407 625.617L451.862 627.855C447.719 627.992 443.594 627.237 439.768 625.643C435.941 624.049 432.501 621.651 429.681 618.614C426.86 615.576 424.725 611.968 423.419 608.033C422.112 604.099 421.666 599.93 422.11 595.808L443.065 519.306" stroke="black" stroke-width="4.47" stroke-miterlimit="10"/>
<path d="M444.081 515.57L445.921 508.869L448.056 501.271" stroke="black" stroke-width="4.47" stroke-miterlimit="10"/>
<path d="M449.873 494.729L451.094 490.339C452.712 484.511 452.311 478.307 449.958 472.734L447.534 466.942C445.949 462.115 445.455 459.781 447.443 455.061C448.383 452.835 449.703 450.788 451.344 449.013C456.132 443.732 462.872 441.108 469.818 440.211C476.763 439.313 484.43 440.012 490.018 444.515C493.812 447.571 497.401 454.846 494.919 459.599C493.119 463.057 489.308 464.063 486.066 462.825C484.931 462.4 483.909 461.72 483.078 460.837C479.251 456.828 471.152 455.953 468.313 459.854" stroke="black" stroke-width="4.47" stroke-miterlimit="10"/>
<path d="M748.288 600.66C748.288 599.235 748.339 597.821 748.396 596.378V596.265C748.396 595.611 748.43 594.936 748.47 594.283" stroke="black" stroke-width="4.47" stroke-miterlimit="10"/>
<path d="M741.002 464.249C734.352 467.804 726.185 476.743 739.963 497.755C744.506 504.678 749.305 512.163 749.98 520.71C750.61 529.25 750.811 537.818 750.582 546.379" stroke="black" stroke-width="4.47" stroke-miterlimit="10"/>
<path d="M676.506 634.036L692.316 636.841L693.452 637.04L700.704 638.335L774.65 651.47C778.311 652.136 782.066 652.086 785.707 651.323C792.031 649.991 797.729 646.586 801.897 641.648C806.064 636.71 808.463 630.521 808.713 624.064L797.787 534.613L795.367 515.521C794.6 509.516 795.889 503.428 799.025 498.251L802.267 492.856C802.267 492.856 807.912 484.621 798.037 484.019C792.715 483.707 787.178 485.155 782.368 487.336C779.62 488.557 775.758 490.743 774.207 493.747C773.577 494.884 773.364 496.206 773.605 497.484C774.741 503.351 782.124 505.827 786.997 503.351" stroke="black" stroke-width="4.47" stroke-miterlimit="10"/>
<path d="M801.297 484.444C801.297 484.444 806.879 481.122 803.103 472.95C801.762 470.042 797.702 468.026 788.962 468.583C765.678 470.065 756.557 494.008 774.236 493.747" stroke="black" stroke-width="4.47" stroke-miterlimit="10"/>
<path d="M795.992 468.543C801.16 461.422 792.017 454.607 785.355 454.84C779.074 455.061 772.72 457.384 767.217 460.292C759.561 464.335 749.68 472.167 752.508 482.076C753.343 484.995 759.948 488.602 764.264 486.517" stroke="black" stroke-width="4.47" stroke-miterlimit="10"/>
<path d="M752.02 478.554C752.02 478.554 752.02 478.554 752.02 478.588C748.414 485.477 731.343 478.588 740.98 464.249C743.231 461.076 745.93 458.247 748.993 455.849C773.027 436.211 778.399 456.179 778.365 454.992" stroke="black" stroke-width="4.47" stroke-miterlimit="10"/>
<path d="M762.479 486.676C762.479 486.676 771.271 492.923 768.573 503.333" stroke="black" stroke-width="4.47" stroke-miterlimit="10"/>
<path d="M452.974 436.707C452.407 434.469 452.48 431.647 453.809 428.035C455.723 422.844 461.3 419.437 466.729 417.194C468.711 416.376 470.704 415.7 472.408 415.172C478.331 413.355 484.834 412.389 491.149 413.025C493.277 413.232 495.381 413.635 497.435 414.229C499.805 414.913 502.072 415.91 504.176 417.194C509.367 420.385 512.882 425.23 514.995 431.59C516.835 437.076 517.545 443.596 512.99 447.02" stroke="black" stroke-width="4.47" stroke-miterlimit="10"/>
<path d="M513.405 520.018L511.73 528.127C511.674 528.401 511.564 528.659 511.406 528.888C511.248 529.118 511.046 529.313 510.812 529.463C510.577 529.612 510.314 529.712 510.04 529.758C509.765 529.804 509.484 529.794 509.214 529.729C502.768 528.201 497.117 526.781 491.177 525.413C488.23 524.72 485.186 524.067 481.96 523.391C469.353 520.784 456.762 517.843 444.087 515.571C438.788 514.623 433.484 513.799 428.146 513.18C425.159 512.834 422.132 512.692 419.128 512.47C418.471 512.456 417.835 512.24 417.305 511.851C414.465 509.773 417.305 503.015 417.924 500.209C417.924 500.175 417.924 500.136 417.924 500.102C418.361 497.949 430.73 498.568 448.022 501.266C454.054 502.214 460.681 503.395 467.626 504.821C477.389 506.825 486.191 508.989 493.386 511.068C494.624 511.431 495.811 511.778 496.941 512.124C496.941 512.124 496.941 512.124 496.975 512.124C498.412 512.578 499.764 513.016 501.036 513.453C509.072 516.196 513.7 518.581 513.405 520.018Z" fill="#3FBDF1"/>
<path d="M513.405 520.018L511.73 528.127C511.674 528.401 511.564 528.659 511.406 528.888C511.248 529.118 511.046 529.313 510.812 529.463C510.577 529.612 510.314 529.712 510.04 529.758C509.765 529.804 509.484 529.794 509.214 529.729C502.768 528.201 497.117 526.781 491.177 525.413C488.23 524.72 485.186 524.067 481.96 523.391C469.353 520.784 456.762 517.843 444.087 515.571C438.788 514.623 433.484 513.799 428.146 513.18C425.159 512.834 422.132 512.692 419.128 512.47C418.471 512.456 417.835 512.24 417.305 511.851C414.465 509.773 417.305 503.015 417.924 500.209C417.924 500.175 417.924 500.136 417.924 500.102C418.361 497.949 430.73 498.568 448.022 501.266C454.054 502.214 460.681 503.395 467.626 504.821C477.389 506.825 486.191 508.989 493.386 511.068C494.624 511.431 495.811 511.778 496.941 512.124C496.941 512.124 496.941 512.124 496.975 512.124C498.412 512.578 499.764 513.016 501.036 513.453C509.072 516.196 513.7 518.581 513.405 520.018Z" stroke="black" stroke-width="4.47" stroke-miterlimit="10"/>
<path d="M495.721 455.231L497.333 458.462C499.361 460.683 502.166 462.086 506.011 461.12C513.553 459.246 514.297 452.993 512.985 447.019C512.759 445.934 512.467 444.865 512.11 443.816C510.344 438.546 507.612 434.304 503.785 431.209C501.065 429.007 497.922 427.387 494.551 426.45C491.804 425.656 488.969 425.204 486.112 425.104C480.497 424.91 474.89 425.679 469.535 427.375C464.179 429.017 456.853 431.839 452.958 436.683C452.085 437.748 451.394 438.949 450.913 440.238C449.715 443.498 449.51 446.139 449.931 448.274L450.334 450.262" stroke="black" stroke-width="4.47" stroke-miterlimit="10"/>
<path d="M497.81 414.355L499.684 406.592L501.911 397.448C502.225 396.13 502.264 394.761 502.026 393.426C501.788 392.092 501.278 390.821 500.527 389.693C499.776 388.565 498.801 387.603 497.663 386.868C496.524 386.132 495.246 385.64 493.909 385.42C493.385 385.333 492.855 385.292 492.324 385.295C490.077 385.29 487.896 386.055 486.145 387.464C484.395 388.873 483.18 390.84 482.704 393.036C482.136 395.682 481.426 398.902 480.643 402.531C479.899 405.973 479.075 409.743 478.201 413.719" stroke="black" stroke-width="4.47" stroke-miterlimit="10"/>
<path d="M475.566 425.924V425.904" stroke="black" stroke-width="2.98" stroke-miterlimit="10"/>
<path d="M468.331 459.848C467.763 462.636 467.439 464.391 467.456 464.692C467.456 464.692 467.456 464.692 467.456 464.732C464.997 481.258 457.762 490.094 449.891 494.7C445.077 497.439 439.7 499.041 434.171 499.385" stroke="black" stroke-width="4.47" stroke-miterlimit="10"/>
<path d="M486.111 462.818C486.111 462.818 472.925 497.965 493.545 510.425C494.635 511.08 495.775 511.649 496.952 512.129C498.364 512.715 499.82 513.184 501.308 513.531" stroke="black" stroke-width="4.47" stroke-miterlimit="10"/>
<path d="M510.639 529.564C510.639 529.564 510.73 531.188 490.814 528.184C483.999 527.162 474.839 525.594 462.521 523.226C454.798 521.75 448.38 520.438 443.065 519.308C415.135 513.333 417.299 511.857 417.299 511.857" stroke="black" stroke-width="4.47" stroke-miterlimit="10"/>
<path d="M566.754 331.997C562.506 354.514 548.513 378.218 531.544 393.432C524.604 399.679 516.534 404.035 507.823 405.75C505.15 406.293 502.429 406.573 499.702 406.585L501.911 397.447C502.453 395.197 502.189 392.827 501.164 390.752C500.138 388.676 498.417 387.026 496.3 386.089C495.535 385.761 494.735 385.522 493.915 385.379C493.39 385.292 492.857 385.25 492.325 385.254C490.073 385.251 487.888 386.021 486.136 387.436C484.385 388.852 483.174 390.827 482.704 393.029C482.358 394.687 481.938 396.567 481.484 398.623C459.903 384.357 450.544 353.844 451.584 329.066C451.913 320.832 452.367 309.99 455.973 301.608C457.19 298.621 459.007 295.915 461.312 293.658C471.534 284.037 485.527 279.648 499.957 278.989C511.033 279.511 521.933 281.959 532.169 286.224C551.25 294.282 571.161 308.571 566.754 331.997Z" fill="#3FBDF1"/>
<path d="M566.754 331.997C562.506 354.514 548.513 378.218 531.544 393.432C524.604 399.679 516.534 404.035 507.823 405.75L509.839 397.447C510.153 396.129 510.193 394.76 509.955 393.425C509.716 392.091 509.206 390.82 508.455 389.692C507.705 388.563 506.73 387.601 505.591 386.867C504.452 386.132 503.174 385.639 501.837 385.419C501.313 385.332 500.784 385.291 500.253 385.294C498.883 385.288 497.528 385.573 496.277 386.129C495.512 385.801 494.712 385.562 493.892 385.419C493.367 385.332 492.835 385.29 492.302 385.294C490.059 385.294 487.884 386.061 486.139 387.468C484.392 388.875 483.18 390.837 482.704 393.029C482.358 394.687 481.938 396.567 481.484 398.623C459.903 384.357 450.544 353.844 451.584 329.066C451.913 320.832 452.367 309.99 455.973 301.608C457.19 298.621 459.007 295.915 461.312 293.658C471.534 284.037 485.527 279.648 499.957 278.989C511.033 279.511 521.933 281.959 532.169 286.224C551.25 294.282 571.161 308.571 566.754 331.997Z" fill="#3FBDF1"/>
<path d="M566.754 332.002C562.511 354.52 548.518 378.224 531.544 393.438C522.457 401.581 511.491 406.534 499.684 406.59L501.911 397.447C502.225 396.129 502.264 394.76 502.026 393.425C501.788 392.091 501.278 390.82 500.527 389.692C499.776 388.563 498.801 387.601 497.663 386.867C496.524 386.131 495.246 385.639 493.909 385.419C493.385 385.332 492.855 385.291 492.324 385.294C490.077 385.288 487.896 386.055 486.145 387.463C484.394 388.872 483.18 390.839 482.704 393.035C482.136 395.681 481.426 398.901 480.643 402.53C454.008 390.723 442.508 356.416 443.661 329.072C443.985 320.837 444.439 309.996 448.051 301.614C449.266 298.626 451.083 295.919 453.389 293.663C473.499 274.752 508.101 276.058 532.168 286.23C551.244 294.288 571.16 308.571 566.754 332.002Z" stroke="black" stroke-width="4.47" stroke-miterlimit="10"/>
<path d="M566.64 332.815C571.234 338.312 575.545 347.524 571.751 361.21C571.168 363.37 570.333 365.453 569.264 367.417C563.233 378.207 551.591 380.098 543.742 379.985" stroke="black" stroke-width="4.47" stroke-miterlimit="10"/>
<path d="M563.142 344.326C567.117 349.085 570.791 356.621 569.258 367.429C569.014 369.164 568.656 370.88 568.185 372.568C562.506 392.967 541.658 391.962 534.502 390.968" stroke="black" stroke-width="4.47" stroke-miterlimit="10"/>
<path d="M451.804 372.458C447.363 373.373 422.233 368.216 421.927 347.266C421.836 344.427 422.372 341.602 423.494 338.992C427.43 330.121 437.811 327.316 443.791 326.402" stroke="black" stroke-width="4.47" stroke-miterlimit="10"/>
<path d="M447.284 361.959C442.741 362.237 418.599 353.622 421.217 332.831C421.53 330.015 422.454 327.301 423.926 324.88C429.037 316.64 439.737 315.317 445.779 315.226" stroke="black" stroke-width="4.47" stroke-miterlimit="10"/>
<path d="M549.148 624.784C549.148 624.784 549.665 620.837 552.505 611.921" stroke="black" stroke-width="4.47" stroke-miterlimit="10"/>
<path d="M642.545 563.233V563.273C642.341 576.852 632.891 579.93 625.128 581.406C605.995 585.063 592.712 571.11 593.297 558.957" stroke="black" stroke-width="4.47" stroke-miterlimit="10"/>
<path d="M596.926 488.522C596.926 488.522 597.494 494.769 592.059 502.827C590.605 504.997 595.636 505.888 596.835 506.292" stroke="black" stroke-width="4.47" stroke-miterlimit="10"/>
<path d="M618.839 502.042C622.066 496.451 620.998 489.793 616.454 487.17C611.91 484.546 605.61 486.95 602.383 492.541C599.155 498.131 600.222 504.789 604.767 507.413C609.311 510.036 615.611 507.632 618.839 502.042Z" stroke="black" stroke-width="4.47" stroke-miterlimit="10"/>
<path d="M596.294 494.81C599.521 489.194 598.437 482.515 593.872 479.891C589.307 477.267 582.989 479.693 579.762 485.309C576.535 490.924 577.619 497.603 582.184 500.227C586.75 502.851 593.066 500.425 596.294 494.81Z" stroke="black" stroke-width="4.48539" stroke-miterlimit="10"/>
<path d="M588.43 482.883C589.378 482.874 590.311 483.119 591.133 483.593C591.897 484.062 592.545 484.698 593.028 485.454C593.511 486.209 593.816 487.064 593.921 487.954C594.23 490.175 593.767 492.434 592.609 494.354C590.906 497.279 588.066 499.165 585.255 499.165C584.307 499.176 583.374 498.933 582.552 498.46C581.789 497.991 581.141 497.354 580.659 496.599C580.176 495.844 579.87 494.989 579.764 494.099C579.455 491.877 579.918 489.615 581.075 487.693C582.779 484.774 585.619 482.883 588.43 482.883ZM588.43 481.179C585.147 481.179 581.666 483.269 579.61 486.858C576.771 491.776 577.708 497.648 581.706 499.92C582.785 500.542 584.01 500.865 585.255 500.857C588.538 500.857 592.019 498.761 594.08 495.178C596.92 490.266 595.977 484.388 591.979 482.116C590.899 481.498 589.674 481.177 588.43 481.185V481.179Z" fill="white"/>
<path d="M594.078 495.186C596.916 490.269 595.978 484.414 591.982 482.107C587.987 479.8 582.446 481.916 579.608 486.832C576.77 491.748 577.708 497.604 581.703 499.911C585.699 502.217 591.239 500.102 594.078 495.186Z" fill="#3FBDF1"/>
<path d="M619.086 500.425C621.925 495.486 620.972 489.612 616.958 487.305C612.944 484.998 607.389 487.132 604.551 492.071C601.712 497.01 602.665 502.884 606.679 505.191C610.693 507.497 616.248 505.364 619.086 500.425Z" fill="#3FBDF1"/>
<path d="M596.852 490.583C596.852 490.583 598.556 488.044 602.4 492.537" stroke="black" stroke-width="4.47" stroke-miterlimit="10"/>
<path d="M613.568 496.788C614.493 495.577 614.41 493.959 613.384 493.174C612.356 492.391 610.774 492.737 609.849 493.948C608.924 495.16 609.007 496.778 610.034 497.562C611.061 498.346 612.644 498 613.568 496.788Z" fill="#353642"/>
<path d="M594.411 491.273C595.335 490.062 595.253 488.444 594.226 487.66C593.198 486.876 591.616 487.222 590.691 488.434C589.766 489.645 589.849 491.263 590.876 492.047C591.903 492.831 593.486 492.485 594.411 491.273Z" fill="#353642"/>
<path d="M608.511 516.416C596.88 526.297 590.775 517.495 590.775 517.495" stroke="black" stroke-width="4.47" stroke-miterlimit="10"/>
<path d="M485.294 573.218C495.351 571.418 505.5 570.01 515.467 568.17C520.328 567.276 525.185 566.409 530.039 565.569C551.664 561.889 573.256 559.026 595.12 558.935C596.176 558.936 597.196 558.554 597.993 557.862C598.789 557.168 599.308 556.211 599.453 555.165L599.857 552.138L602.406 533.266" stroke="black" stroke-width="4.47" stroke-miterlimit="10"/>
<path d="M638.445 534.778V534.687V534.231" stroke="black" stroke-width="4.47" stroke-miterlimit="10"/>
<path d="M693.446 637.039C693.446 637.039 696.127 663.697 700.113 689.729C702.737 706.857 705.946 723.707 709.296 732.509" stroke="black" stroke-width="4.47" stroke-miterlimit="10"/>
<path d="M700.113 689.728L700.641 689.586L701.448 689.364C705.707 688.16 710.006 687.092 714.362 686.195C715.055 686.048 715.748 685.923 716.44 685.792C721.298 684.896 726.222 684.416 731.16 684.355C733.347 684.355 735.442 684.281 737.447 684.173H737.572C745.971 683.696 752.991 682.351 758.857 680.346C768.437 677.086 774.906 672.077 779.188 666.279C779.222 666.245 779.239 666.188 779.279 666.154C782.394 661.832 784.566 656.905 785.656 651.69C785.648 651.666 785.648 651.64 785.656 651.616L785.713 651.343" stroke="black" stroke-width="4.47" stroke-miterlimit="10"/>
</g>
<defs>
<clipPath id="clip0_0_1">
<rect width="488" height="488" fill="white" transform="translate(393 197)"/>
</clipPath>
</defs>
</svg>
