<svg width="212" height="148" viewBox="0 0 212 148" fill="none" xmlns="http://www.w3.org/2000/svg">
<path d="M122.2 16.1225C121.533 15.6309 120.698 15.4245 119.879 15.5488C119.06 15.673 118.324 16.1177 117.832 16.785L103.022 36.885L93.6049 29.35C92.2543 28.3154 90.3243 28.5502 89.2612 29.8786C88.1981 31.2069 88.3919 33.1414 89.6974 34.2325L101.655 43.7975C102.322 44.3196 103.172 44.5515 104.012 44.441C104.852 44.3305 105.613 43.8869 106.122 43.21L122.872 20.4925C123.363 19.824 123.568 18.9878 123.442 18.1681C123.316 17.3485 122.869 16.6126 122.2 16.1225Z" fill="#0CA919"/>
<path fill-rule="evenodd" clip-rule="evenodd" d="M76 30C76 13.4315 89.4315 0 106 0C122.561 0.0179121 135.982 13.4389 136 30C136 46.5685 122.569 60 106 60C89.4315 60 76 46.5685 76 30ZM81 30C81 43.8071 92.1929 55 106 55C119.801 54.9848 130.985 43.8008 131 30C131 16.1929 119.807 5 106 5C92.1929 5 81 16.1929 81 30Z" fill="#0CA919"/>
<path d="M1.184 89.28H5.376C6.45333 89.28 7.30667 89.5307 7.936 90.032C8.576 90.5227 8.896 91.184 8.896 92.016C8.896 92.912 8.51733 93.6053 7.76 94.096C9.072 94.5547 9.728 95.4453 9.728 96.768C9.728 97.8027 9.37067 98.6027 8.656 99.168C7.952 99.7227 6.928 100 5.584 100H1.184V89.28ZM5.504 98.096C6.112 98.096 6.57067 97.9787 6.88 97.744C7.2 97.5093 7.36 97.1627 7.36 96.704C7.36 96.256 7.2 95.904 6.88 95.648C6.56 95.392 6.112 95.264 5.536 95.264H3.536V98.096H5.504ZM5.2 93.44C5.648 93.44 5.99467 93.3387 6.24 93.136C6.496 92.9333 6.624 92.6507 6.624 92.288C6.624 91.9253 6.50133 91.648 6.256 91.456C6.01067 91.2533 5.664 91.152 5.216 91.152H3.536V93.44H5.2ZM11.9278 100V93.76H10.7598V91.92H12.9358C13.3624 91.92 13.6771 92.0213 13.8798 92.224C14.0824 92.4267 14.1838 92.7413 14.1838 93.168V100H11.9278ZM12.8558 91.04C12.4504 91.04 12.1198 90.9173 11.8638 90.672C11.6078 90.4267 11.4798 90.1173 11.4798 89.744C11.4798 89.3707 11.6078 89.0613 11.8638 88.816C12.1198 88.5707 12.4504 88.448 12.8558 88.448C13.2611 88.448 13.5918 88.5707 13.8478 88.816C14.1038 89.0613 14.2318 89.3707 14.2318 89.744C14.2318 90.1173 14.1038 90.4267 13.8478 90.672C13.5918 90.9173 13.2611 91.04 12.8558 91.04ZM22.101 100V98.928C21.8877 99.2053 21.6423 99.4453 21.365 99.648C21.0877 99.84 20.789 99.984 20.469 100.08C20.149 100.187 19.813 100.24 19.461 100.24C18.725 100.24 18.0743 100.053 17.509 99.68C16.9437 99.3067 16.5063 98.8 16.197 98.16C15.8983 97.5093 15.749 96.7787 15.749 95.968C15.749 95.1147 15.909 94.3627 16.229 93.712C16.5597 93.0613 17.0023 92.5653 17.557 92.224C18.1223 91.872 18.757 91.696 19.461 91.696C20.005 91.696 20.4957 91.808 20.933 92.032C21.381 92.2453 21.749 92.5653 22.037 92.992V88.496H24.293V100H22.101ZM20.069 98.272C20.6877 98.272 21.189 98.0587 21.573 97.632C21.957 97.2053 22.149 96.6507 22.149 95.968C22.149 95.2853 21.957 94.7307 21.573 94.304C21.189 93.8773 20.6877 93.664 20.069 93.664C19.4717 93.664 18.9863 93.8773 18.613 94.304C18.2397 94.7307 18.053 95.2853 18.053 95.968C18.053 96.6507 18.2397 97.2053 18.613 97.632C18.9863 98.0587 19.4717 98.272 20.069 98.272ZM33.2538 100.24C32.5924 100.24 31.9418 100.16 31.3018 100C30.6618 99.8293 30.1444 99.6107 29.7498 99.344L30.3418 97.648C30.6618 97.872 31.1044 98.064 31.6698 98.224C32.2351 98.3733 32.7524 98.448 33.2218 98.448C33.6378 98.448 33.9578 98.384 34.1818 98.256C34.4058 98.128 34.5178 97.9413 34.5178 97.696C34.5178 97.3333 34.2031 97.0933 33.5738 96.976L32.4538 96.784C30.7151 96.4853 29.8458 95.6587 29.8458 94.304C29.8458 93.504 30.1498 92.8693 30.7578 92.4C31.3658 91.9307 32.1871 91.696 33.2218 91.696C33.8618 91.696 34.4538 91.776 34.9978 91.936C35.5418 92.0853 36.0058 92.2987 36.3898 92.576L35.7498 94.128C35.3871 93.9253 34.9871 93.7707 34.5498 93.664C34.1124 93.5467 33.6911 93.488 33.2858 93.488C32.8911 93.488 32.5871 93.5467 32.3738 93.664C32.1604 93.7707 32.0538 93.9307 32.0538 94.144C32.0538 94.464 32.3311 94.672 32.8858 94.768L33.8938 94.96C34.8858 95.1413 35.6058 95.4347 36.0538 95.84C36.5018 96.2453 36.7258 96.8053 36.7258 97.52C36.7258 98.3733 36.4164 99.04 35.7978 99.52C35.1898 100 34.3418 100.24 33.2538 100.24ZM41.452 100.24C40.5027 100.24 39.756 99.9307 39.212 99.312C38.6787 98.6933 38.412 97.84 38.412 96.752V91.92H40.668V96.624C40.668 97.7333 41.148 98.288 42.108 98.288C42.6413 98.288 43.0467 98.112 43.324 97.76C43.6013 97.408 43.74 96.9013 43.74 96.24V91.92H45.996V100H43.932V98.912C43.676 99.3387 43.3347 99.6693 42.908 99.904C42.492 100.128 42.0067 100.24 41.452 100.24ZM47.9131 100V88.496H50.1691V92.992C50.4571 92.5653 50.8198 92.2453 51.2571 92.032C51.7051 91.808 52.2011 91.696 52.7451 91.696C53.4811 91.696 54.1318 91.8827 54.6971 92.256C55.2625 92.6293 55.6945 93.1413 55.9931 93.792C56.3025 94.432 56.4571 95.1573 56.4571 95.968C56.4571 96.8213 56.2918 97.5733 55.9611 98.224C55.6411 98.8747 55.1985 99.376 54.6331 99.728C54.0785 100.069 53.4491 100.24 52.7451 100.24C52.1905 100.24 51.6838 100.128 51.2251 99.904C50.7771 99.6693 50.4038 99.344 50.1051 98.928V100H47.9131ZM52.1371 98.272C52.7345 98.272 53.2198 98.0587 53.5931 97.632C53.9665 97.2053 54.1531 96.6507 54.1531 95.968C54.1531 95.2853 53.9665 94.7307 53.5931 94.304C53.2198 93.8773 52.7345 93.664 52.1371 93.664C51.5185 93.664 51.0171 93.8773 50.6331 94.304C50.2491 94.7307 50.0571 95.2853 50.0571 95.968C50.0571 96.6507 50.2491 97.2053 50.6331 97.632C51.0171 98.0587 51.5185 98.272 52.1371 98.272ZM62.5501 91.696C63.0941 91.696 63.5635 91.84 63.9581 92.128C64.3635 92.4053 64.6728 92.8107 64.8861 93.344C65.1528 92.8107 65.5368 92.4053 66.0381 92.128C66.5395 91.84 67.1208 91.696 67.7821 91.696C68.7101 91.696 69.4355 92.0053 69.9581 92.624C70.4915 93.232 70.7581 94.08 70.7581 95.168V100H68.5021V95.312C68.5021 94.2027 68.0381 93.648 67.1101 93.648C66.6088 93.648 66.2195 93.8187 65.9421 94.16C65.6648 94.4907 65.5261 94.9707 65.5261 95.6V100H63.2701V95.312C63.2701 94.2027 62.8061 93.648 61.8781 93.648C61.3768 93.648 60.9875 93.824 60.7101 94.176C60.4328 94.528 60.2941 95.0347 60.2941 95.696V100H58.0381V91.92H60.1021V93.024C60.3475 92.5973 60.6781 92.272 61.0941 92.048C61.5208 91.8133 62.0061 91.696 62.5501 91.696ZM73.2559 100V93.76H72.0879V91.92H74.2639C74.6905 91.92 75.0052 92.0213 75.2079 92.224C75.4105 92.4267 75.5119 92.7413 75.5119 93.168V100H73.2559ZM74.1839 91.04C73.7785 91.04 73.4479 90.9173 73.1919 90.672C72.9359 90.4267 72.8079 90.1173 72.8079 89.744C72.8079 89.3707 72.9359 89.0613 73.1919 88.816C73.4479 88.5707 73.7785 88.448 74.1839 88.448C74.5892 88.448 74.9199 88.5707 75.1759 88.816C75.4319 89.0613 75.5599 89.3707 75.5599 89.744C75.5599 90.1173 75.4319 90.4267 75.1759 90.672C74.9199 90.9173 74.5892 91.04 74.1839 91.04ZM81.0771 100.24C80.1278 100.24 79.4078 99.984 78.9171 99.472C78.4265 98.9493 78.1811 98.1867 78.1811 97.184V93.76H76.8531V91.92H77.6691C77.9145 91.92 78.0905 91.872 78.1971 91.776C78.3038 91.6693 78.3571 91.4933 78.3571 91.248V89.904H80.4371V91.92H82.7891V93.76H80.4371V96.912C80.4371 97.4133 80.5225 97.776 80.6931 98C80.8745 98.224 81.1678 98.336 81.5731 98.336C81.9891 98.336 82.3998 98.2453 82.8051 98.064L83.1731 99.744C82.9278 99.904 82.6185 100.027 82.2451 100.112C81.8825 100.197 81.4931 100.24 81.0771 100.24ZM88.2334 100.24C87.284 100.24 86.564 99.984 86.0734 99.472C85.5827 98.9493 85.3374 98.1867 85.3374 97.184V93.76H84.0094V91.92H84.8254C85.0707 91.92 85.2467 91.872 85.3534 91.776C85.46 91.6693 85.5134 91.4933 85.5134 91.248V89.904H87.5934V91.92H89.9454V93.76H87.5934V96.912C87.5934 97.4133 87.6787 97.776 87.8494 98C88.0307 98.224 88.324 98.336 88.7294 98.336C89.1454 98.336 89.556 98.2453 89.9614 98.064L90.3294 99.744C90.084 99.904 89.7747 100.027 89.4014 100.112C89.0387 100.197 88.6494 100.24 88.2334 100.24ZM98.9134 99.328C98.5614 99.616 98.1027 99.84 97.5374 100C96.9827 100.16 96.3747 100.24 95.7134 100.24C94.316 100.24 93.2174 99.8613 92.4174 99.104C91.628 98.336 91.2334 97.2907 91.2334 95.968C91.2334 95.104 91.4094 94.352 91.7614 93.712C92.124 93.0613 92.6094 92.5653 93.2174 92.224C93.836 91.872 94.5347 91.696 95.3134 91.696C96.444 91.696 97.3347 92.048 97.9854 92.752C98.6467 93.4453 98.9774 94.3947 98.9774 95.6V96.56H93.4894C93.5854 97.1573 93.8307 97.616 94.2254 97.936C94.62 98.256 95.1374 98.416 95.7774 98.416C96.204 98.416 96.6414 98.352 97.0894 98.224C97.548 98.096 97.9214 97.936 98.2094 97.744L98.9134 99.328ZM95.2654 93.456C94.7854 93.456 94.3907 93.6 94.0814 93.888C93.772 94.1653 93.58 94.5653 93.5054 95.088H96.8974C96.8654 94.5653 96.7054 94.1653 96.4174 93.888C96.14 93.6 95.756 93.456 95.2654 93.456ZM106.57 100V98.928C106.356 99.2053 106.111 99.4453 105.834 99.648C105.556 99.84 105.258 99.984 104.938 100.08C104.618 100.187 104.282 100.24 103.93 100.24C103.194 100.24 102.543 100.053 101.978 99.68C101.412 99.3067 100.975 98.8 100.666 98.16C100.367 97.5093 100.218 96.7787 100.218 95.968C100.218 95.1147 100.378 94.3627 100.698 93.712C101.028 93.0613 101.471 92.5653 102.026 92.224C102.591 91.872 103.226 91.696 103.93 91.696C104.474 91.696 104.964 91.808 105.402 92.032C105.85 92.2453 106.218 92.5653 106.506 92.992V88.496H108.762V100H106.57ZM104.538 98.272C105.156 98.272 105.658 98.0587 106.042 97.632C106.426 97.2053 106.618 96.6507 106.618 95.968C106.618 95.2853 106.426 94.7307 106.042 94.304C105.658 93.8773 105.156 93.664 104.538 93.664C103.94 93.664 103.455 93.8773 103.082 94.304C102.708 94.7307 102.522 95.2853 102.522 95.968C102.522 96.6507 102.708 97.2053 103.082 97.632C103.455 98.0587 103.94 98.272 104.538 98.272ZM117.723 100.24C117.061 100.24 116.411 100.16 115.771 100C115.131 99.8293 114.613 99.6107 114.219 99.344L114.811 97.648C115.131 97.872 115.573 98.064 116.139 98.224C116.704 98.3733 117.221 98.448 117.691 98.448C118.107 98.448 118.427 98.384 118.651 98.256C118.875 98.128 118.987 97.9413 118.987 97.696C118.987 97.3333 118.672 97.0933 118.043 96.976L116.923 96.784C115.184 96.4853 114.315 95.6587 114.315 94.304C114.315 93.504 114.619 92.8693 115.227 92.4C115.835 91.9307 116.656 91.696 117.691 91.696C118.331 91.696 118.923 91.776 119.467 91.936C120.011 92.0853 120.475 92.2987 120.859 92.576L120.219 94.128C119.856 93.9253 119.456 93.7707 119.019 93.664C118.581 93.5467 118.16 93.488 117.755 93.488C117.36 93.488 117.056 93.5467 116.843 93.664C116.629 93.7707 116.523 93.9307 116.523 94.144C116.523 94.464 116.8 94.672 117.355 94.768L118.363 94.96C119.355 95.1413 120.075 95.4347 120.523 95.84C120.971 96.2453 121.195 96.8053 121.195 97.52C121.195 98.3733 120.885 99.04 120.267 99.52C119.659 100 118.811 100.24 117.723 100.24ZM125.921 100.24C124.971 100.24 124.225 99.9307 123.681 99.312C123.147 98.6933 122.881 97.84 122.881 96.752V91.92H125.137V96.624C125.137 97.7333 125.617 98.288 126.577 98.288C127.11 98.288 127.515 98.112 127.793 97.76C128.07 97.408 128.209 96.9013 128.209 96.24V91.92H130.465V100H128.401V98.912C128.145 99.3387 127.803 99.6693 127.377 99.904C126.961 100.128 126.475 100.24 125.921 100.24ZM136.334 100.24C135.033 100.24 133.993 99.8613 133.214 99.104C132.435 98.336 132.046 97.312 132.046 96.032C132.046 95.1573 132.233 94.3893 132.606 93.728C132.979 93.0667 133.491 92.5653 134.142 92.224C134.793 91.872 135.534 91.696 136.366 91.696C137.614 91.696 138.638 92.096 139.438 92.896L138.43 94.416C137.907 93.904 137.262 93.648 136.494 93.648C135.843 93.648 135.321 93.8613 134.926 94.288C134.542 94.704 134.35 95.264 134.35 95.968C134.35 96.6613 134.542 97.2213 134.926 97.648C135.321 98.064 135.838 98.272 136.478 98.272C136.862 98.272 137.246 98.2027 137.63 98.064C138.014 97.9253 138.323 97.7493 138.558 97.536L139.454 99.152C139.081 99.4827 138.611 99.7493 138.046 99.952C137.491 100.144 136.921 100.24 136.334 100.24ZM144.459 100.24C143.158 100.24 142.118 99.8613 141.339 99.104C140.56 98.336 140.171 97.312 140.171 96.032C140.171 95.1573 140.358 94.3893 140.731 93.728C141.104 93.0667 141.616 92.5653 142.267 92.224C142.918 91.872 143.659 91.696 144.491 91.696C145.739 91.696 146.763 92.096 147.563 92.896L146.555 94.416C146.032 93.904 145.387 93.648 144.619 93.648C143.968 93.648 143.446 93.8613 143.051 94.288C142.667 94.704 142.475 95.264 142.475 95.968C142.475 96.6613 142.667 97.2213 143.051 97.648C143.446 98.064 143.963 98.272 144.603 98.272C144.987 98.272 145.371 98.2027 145.755 98.064C146.139 97.9253 146.448 97.7493 146.683 97.536L147.579 99.152C147.206 99.4827 146.736 99.7493 146.171 99.952C145.616 100.144 145.046 100.24 144.459 100.24ZM155.976 99.328C155.624 99.616 155.165 99.84 154.6 100C154.045 100.16 153.437 100.24 152.776 100.24C151.379 100.24 150.28 99.8613 149.48 99.104C148.691 98.336 148.296 97.2907 148.296 95.968C148.296 95.104 148.472 94.352 148.824 93.712C149.187 93.0613 149.672 92.5653 150.28 92.224C150.899 91.872 151.597 91.696 152.376 91.696C153.507 91.696 154.397 92.048 155.048 92.752C155.709 93.4453 156.04 94.3947 156.04 95.6V96.56H150.552C150.648 97.1573 150.893 97.616 151.288 97.936C151.683 98.256 152.2 98.416 152.84 98.416C153.267 98.416 153.704 98.352 154.152 98.224C154.611 98.096 154.984 97.936 155.272 97.744L155.976 99.328ZM152.328 93.456C151.848 93.456 151.453 93.6 151.144 93.888C150.835 94.1653 150.643 94.5653 150.568 95.088H153.96C153.928 94.5653 153.768 94.1653 153.48 93.888C153.203 93.6 152.819 93.456 152.328 93.456ZM160.816 100.24C160.155 100.24 159.504 100.16 158.864 100C158.224 99.8293 157.707 99.6107 157.312 99.344L157.904 97.648C158.224 97.872 158.667 98.064 159.232 98.224C159.798 98.3733 160.315 98.448 160.784 98.448C161.2 98.448 161.52 98.384 161.744 98.256C161.968 98.128 162.08 97.9413 162.08 97.696C162.08 97.3333 161.766 97.0933 161.136 96.976L160.016 96.784C158.278 96.4853 157.408 95.6587 157.408 94.304C157.408 93.504 157.712 92.8693 158.32 92.4C158.928 91.9307 159.75 91.696 160.784 91.696C161.424 91.696 162.016 91.776 162.56 91.936C163.104 92.0853 163.568 92.2987 163.952 92.576L163.312 94.128C162.95 93.9253 162.55 93.7707 162.112 93.664C161.675 93.5467 161.254 93.488 160.848 93.488C160.454 93.488 160.15 93.5467 159.936 93.664C159.723 93.7707 159.616 93.9307 159.616 94.144C159.616 94.464 159.894 94.672 160.448 94.768L161.456 94.96C162.448 95.1413 163.168 95.4347 163.616 95.84C164.064 96.2453 164.288 96.8053 164.288 97.52C164.288 98.3733 163.979 99.04 163.36 99.52C162.752 100 161.904 100.24 160.816 100.24ZM169.066 100.24C168.405 100.24 167.754 100.16 167.114 100C166.474 99.8293 165.957 99.6107 165.562 99.344L166.154 97.648C166.474 97.872 166.917 98.064 167.482 98.224C168.048 98.3733 168.565 98.448 169.034 98.448C169.45 98.448 169.77 98.384 169.994 98.256C170.218 98.128 170.33 97.9413 170.33 97.696C170.33 97.3333 170.016 97.0933 169.386 96.976L168.266 96.784C166.528 96.4853 165.658 95.6587 165.658 94.304C165.658 93.504 165.962 92.8693 166.57 92.4C167.178 91.9307 168 91.696 169.034 91.696C169.674 91.696 170.266 91.776 170.81 91.936C171.354 92.0853 171.818 92.2987 172.202 92.576L171.562 94.128C171.2 93.9253 170.8 93.7707 170.362 93.664C169.925 93.5467 169.504 93.488 169.098 93.488C168.704 93.488 168.4 93.5467 168.186 93.664C167.973 93.7707 167.866 93.9307 167.866 94.144C167.866 94.464 168.144 94.672 168.698 94.768L169.706 94.96C170.698 95.1413 171.418 95.4347 171.866 95.84C172.314 96.2453 172.538 96.8053 172.538 97.52C172.538 98.3733 172.229 99.04 171.61 99.52C171.002 100 170.154 100.24 169.066 100.24ZM174.884 100V93.76H173.556V91.92H174.884V91.728C174.884 90.6187 175.172 89.7653 175.748 89.168C176.324 88.56 177.135 88.256 178.18 88.256C178.447 88.256 178.724 88.2933 179.012 88.368C179.311 88.4427 179.562 88.5333 179.764 88.64L179.332 90.352C179.044 90.224 178.772 90.16 178.516 90.16C177.599 90.16 177.14 90.6667 177.14 91.68V91.92H179.38V93.76H177.14V100H174.884ZM183.718 100.24C182.768 100.24 182.022 99.9307 181.478 99.312C180.944 98.6933 180.678 97.84 180.678 96.752V91.92H182.934V96.624C182.934 97.7333 183.414 98.288 184.374 98.288C184.907 98.288 185.312 98.112 185.59 97.76C185.867 97.408 186.006 96.9013 186.006 96.24V91.92H188.262V100H186.198V98.912C185.942 99.3387 185.6 99.6693 185.174 99.904C184.758 100.128 184.272 100.24 183.718 100.24ZM190.179 100V88.496H192.435V100H190.179ZM194.351 100V88.496H196.607V100H194.351ZM203.003 100.016C202.736 100.677 202.475 101.216 202.219 101.632C201.973 102.059 201.696 102.405 201.387 102.672C201.077 102.939 200.725 103.136 200.331 103.264C199.947 103.403 199.499 103.472 198.987 103.472C198.677 103.472 198.384 103.44 198.107 103.376C197.829 103.312 197.627 103.237 197.498 103.152L197.819 101.28C198.139 101.419 198.496 101.488 198.891 101.488C199.381 101.488 199.765 101.381 200.043 101.168C200.32 100.965 200.565 100.629 200.779 100.16L200.891 99.904L197.546 91.92H199.995L201.915 97.328L203.819 91.92H206.219L203.003 100.016ZM207.625 89.28H210.025L209.881 96.432H207.769L207.625 89.28ZM208.825 100.192C208.431 100.192 208.105 100.075 207.849 99.84C207.593 99.5947 207.465 99.2853 207.465 98.912C207.465 98.5387 207.593 98.2347 207.849 98C208.105 97.7547 208.431 97.632 208.825 97.632C209.22 97.632 209.545 97.7547 209.801 98C210.057 98.2347 210.185 98.5387 210.185 98.912C210.185 99.2853 210.057 99.5947 209.801 99.84C209.545 100.075 209.22 100.192 208.825 100.192Z" fill="#0F0F0F"/>
<path d="M68.564 144V134.72H65.092V133.28H73.604V134.72H70.132V144H68.564ZM79.4511 135.744C80.4218 135.744 81.1738 136.048 81.7071 136.656C82.2405 137.253 82.5071 138.096 82.5071 139.184V144H81.0191V139.28C81.0191 138.565 80.8538 138.021 80.5231 137.648C80.2031 137.264 79.7338 137.072 79.1151 137.072C78.4325 137.072 77.8938 137.291 77.4991 137.728C77.1045 138.165 76.9071 138.773 76.9071 139.552V144H75.4191V132.496H76.9071V137.136C77.1631 136.688 77.5098 136.347 77.9471 136.112C78.3845 135.867 78.8858 135.744 79.4511 135.744ZM90.9043 144C90.5416 144 90.2696 143.925 90.0883 143.776C89.9176 143.616 89.8216 143.365 89.8003 143.024C89.5549 143.408 89.2029 143.707 88.7443 143.92C88.2856 144.123 87.7576 144.224 87.1603 144.224C86.3069 144.224 85.6243 144.005 85.1123 143.568C84.6109 143.12 84.3603 142.517 84.3603 141.76C84.3603 140.907 84.6749 140.24 85.3043 139.76C85.9336 139.28 86.8083 139.04 87.9283 139.04H89.6243C89.5923 137.664 88.8829 136.976 87.4963 136.976C86.6643 136.976 85.9176 137.195 85.2563 137.632L84.7763 136.608C85.1069 136.341 85.5283 136.133 86.0403 135.984C86.5629 135.824 87.0963 135.744 87.6403 135.744C88.7283 135.744 89.5763 136.043 90.1843 136.64C90.7923 137.227 91.0963 138.048 91.0963 139.104V142.736H92.1683V144H90.9043ZM85.8003 141.616C85.8003 142.053 85.9496 142.395 86.2483 142.64C86.5469 142.885 86.9629 143.008 87.4963 143.008C88.1149 143.008 88.6216 142.827 89.0163 142.464C89.4216 142.101 89.6243 141.637 89.6243 141.072V140.224H88.0403C87.2723 140.224 86.7069 140.341 86.3443 140.576C85.9816 140.8 85.8003 141.147 85.8003 141.616ZM97.8574 135.744C98.828 135.744 99.58 136.048 100.113 136.656C100.647 137.253 100.913 138.096 100.913 139.184V144H99.4254V139.28C99.4254 138.565 99.26 138.021 98.9294 137.648C98.6094 137.264 98.14 137.072 97.5214 137.072C96.8387 137.072 96.3 137.291 95.9054 137.728C95.5107 138.165 95.3134 138.773 95.3134 139.552V144H93.8254V135.952H95.2174V137.184C95.4734 136.715 95.8254 136.357 96.2734 136.112C96.732 135.867 97.26 135.744 97.8574 135.744ZM108.335 135.952H110.175L106.799 139.36L110.671 144H108.799L105.807 140.368L104.767 141.408V144H103.279V132.496H104.767V139.616L108.335 135.952ZM119.091 144.592C118.792 145.328 118.499 145.899 118.211 146.304C117.923 146.709 117.587 147.003 117.203 147.184C116.819 147.365 116.344 147.456 115.779 147.456C115.544 147.456 115.315 147.435 115.091 147.392C114.867 147.349 114.696 147.291 114.579 147.216L114.803 145.984C115.027 146.08 115.331 146.128 115.715 146.128C116.216 146.128 116.611 146.005 116.899 145.76C117.198 145.525 117.459 145.12 117.683 144.544L117.891 144.016L114.627 135.952H116.211L118.563 142.288L120.931 135.952H122.499L119.091 144.592ZM127.303 144.224C126.482 144.224 125.751 144.037 125.111 143.664C124.482 143.28 123.991 142.768 123.639 142.128C123.298 141.488 123.127 140.773 123.127 139.984C123.127 139.152 123.314 138.416 123.687 137.776C124.06 137.125 124.562 136.624 125.191 136.272C125.82 135.92 126.524 135.744 127.303 135.744C128.114 135.744 128.834 135.936 129.463 136.32C130.103 136.693 130.594 137.2 130.935 137.84C131.287 138.48 131.463 139.195 131.463 139.984C131.463 140.816 131.276 141.557 130.903 142.208C130.53 142.848 130.028 143.344 129.399 143.696C128.77 144.048 128.071 144.224 127.303 144.224ZM127.303 142.896C127.815 142.896 128.274 142.768 128.679 142.512C129.084 142.245 129.394 141.893 129.607 141.456C129.831 141.019 129.943 140.528 129.943 139.984C129.943 139.408 129.826 138.901 129.591 138.464C129.356 138.016 129.036 137.675 128.631 137.44C128.236 137.195 127.794 137.072 127.303 137.072C126.791 137.072 126.332 137.205 125.927 137.472C125.522 137.728 125.207 138.075 124.983 138.512C124.77 138.949 124.663 139.44 124.663 139.984C124.663 140.56 124.78 141.072 125.015 141.52C125.25 141.957 125.564 142.299 125.959 142.544C126.364 142.779 126.812 142.896 127.303 142.896ZM136.411 144.224C135.451 144.224 134.704 143.925 134.171 143.328C133.637 142.72 133.371 141.867 133.371 140.768V135.952H134.859V140.688C134.859 141.403 135.019 141.952 135.339 142.336C135.669 142.709 136.139 142.896 136.747 142.896C137.429 142.896 137.963 142.677 138.347 142.24C138.741 141.803 138.939 141.189 138.939 140.4V135.952H140.427V144H139.035V142.784C138.768 143.253 138.405 143.611 137.947 143.856C137.499 144.101 136.987 144.224 136.411 144.224ZM143.321 133.28H144.921L144.793 140.816H143.449L143.321 133.28ZM144.121 144.176C143.822 144.176 143.577 144.085 143.385 143.904C143.203 143.723 143.113 143.488 143.113 143.2C143.113 142.912 143.203 142.677 143.385 142.496C143.577 142.304 143.822 142.208 144.121 142.208C144.419 142.208 144.659 142.304 144.841 142.496C145.033 142.677 145.129 142.912 145.129 143.2C145.129 143.488 145.033 143.723 144.841 143.904C144.659 144.085 144.419 144.176 144.121 144.176Z" fill="#0F0F0F"/>
</svg>
